DrVivigray-Bold.ufo
<glyph name="ampersand" format="2">
  <advance width="1525"/>
  <unicode hex="0026"/>
  <outline>
    <contour>
      <point x="638" y="1448" type="curve" smooth="yes"/>
      <point x="366" y="1448"/>
      <point x="218" y="1314"/>
      <point x="218" y="1117" type="curve" smooth="yes"/>
      <point x="218" y="983"/>
      <point x="275" y="883"/>
      <point x="355" y="790" type="curve"/>
      <point x="183" y="695"/>
      <point x="84" y="570"/>
      <point x="84" y="388" type="curve" smooth="yes"/>
      <point x="84" y="151"/>
      <point x="261" y="-20"/>
      <point x="573" y="-20" type="curve" smooth="yes"/>
      <point x="800" y="-20"/>
      <point x="898" y="40"/>
      <point x="1008" y="123" type="curve"/>
      <point x="1121" y="0" type="line" name=".hr01"/>
      <point x="1537" y="0" type="line"/>
      <point x="1238" y="295" type="line"/>
      <point x="1335" y="410"/>
      <point x="1418" y="586"/>
      <point x="1459" y="773" type="curve"/>
      <point x="1129" y="773" type="line"/>
      <point x="1107" y="667"/>
      <point x="1070" y="572"/>
      <point x="1019" y="498" type="curve"/>
      <point x="781" y="744" type="line"/>
      <point x="932" y="838"/>
      <point x="1040" y="952"/>
      <point x="1040" y="1118" type="curve" smooth="yes"/>
      <point x="1040" y="1326"/>
      <point x="887" y="1448"/>
    </contour>
    <contour>
      <point x="812" y="314" type="line"/>
      <point x="769" y="272"/>
      <point x="697" y="235"/>
      <point x="600" y="235" type="curve" smooth="yes"/>
      <point x="489" y="235"/>
      <point x="415" y="306"/>
      <point x="415" y="409" type="curve" smooth="yes"/>
      <point x="415" y="497"/>
      <point x="455" y="556"/>
      <point x="531" y="613" type="curve"/>
    </contour>
    <contour>
      <point x="632" y="1233" type="curve" smooth="yes"/>
      <point x="699" y="1233"/>
      <point x="748" y="1193"/>
      <point x="748" y="1118" type="curve" smooth="yes"/>
      <point x="748" y="1042"/>
      <point x="703" y="977"/>
      <point x="610" y="919" type="curve"/>
      <point x="552" y="980"/>
      <point x="510" y="1039"/>
      <point x="510" y="1110" type="curve" smooth="yes"/>
      <point x="510" y="1192"/>
      <point x="564" y="1233"/>
    </contour>
  </outline>
</glyph>
<glyph name="quotesingle" format="2">
  <advance width="506"/>
  <unicode hex="0027"/>
  <outline>
    <contour>
      <point x="111" y="1428" type="line"/>
      <point x="139" y="912" type="line"/>
      <point x="367" y="912" type="line"/>
      <point x="395" y="1428" type="line"/>
    </contour>
  </outline>
</glyph>
<glyph name="period" format="2">
  <advance width="506"/>
  <unicode hex="002E"/>
  <outline>
    <contour>
      <point x="89" y="144" type="curve" smooth="yes"/>
      <point x="89" y="24"/>
      <point x="165" y="-25"/>
      <point x="257" y="-25" type="curve" smooth="yes"/>
      <point x="342" y="-25"/>
      <point x="415" y="24"/>
      <point x="415" y="144" type="curve" smooth="yes"/>
      <point x="415" y="269"/>
      <point x="342" y="314"/>
      <point x="257" y="314" type="curve" smooth="yes"/>
      <point x="165" y="314"/>
      <point x="89" y="269"/>
    </contour>
  </outline>
</glyph>
<glyph name="slash" format="2">
  <advance width="1158"/>
  <unicode hex="002F"/>
  <outline>
    <contour>
      <point x="831" y="1442" type="line"/>
      <point x="33" y="-13" type="line"/>
      <point x="336" y="-13" type="line"/>
      <point x="1134" y="1442" type="line"/>
    </contour>
  </outline>
</glyph>
<glyph name="two" format="2">
  <advance width="1351"/>
  <unicode hex="0032"/>
  <outline>
    <contour>
      <point x="1260" y="266" type="line"/>
      <point x="467" y="266" type="line"/>
      <point x="467" y="275" type="line"/>
      <point x="734" y="436" type="line"/>
      <point x="1031" y="671"/>
      <point x="1204" y="822"/>
      <point x="1204" y="1062" type="curve" smooth="yes"/>
      <point x="1204" y="1290"/>
      <point x="990" y="1448"/>
      <point x="652" y="1448" type="curve" smooth="yes"/>
      <point x="377" y="1448"/>
      <point x="204" y="1348"/>
      <point x="59" y="1240" type="curve"/>
      <point x="234" y="1036" type="line"/>
      <point x="372" y="1131"/>
      <point x="484" y="1182"/>
      <point x="630" y="1182" type="curve" smooth="yes"/>
      <point x="775" y="1182"/>
      <point x="881" y="1130"/>
      <point x="881" y="1022" type="curve" smooth="yes"/>
      <point x="881" y="888"/>
      <point x="769" y="797"/>
      <point x="501" y="579" type="curve" smooth="yes"/>
      <point x="56" y="218" type="line"/>
      <point x="56" y="0" type="line"/>
      <point x="1260" y="0" type="line"/>
    </contour>
  </outline>
</glyph>
<glyph name="six" format="2">
  <advance width="1351"/>
  <unicode hex="0036"/>
  <outline>
    <contour>
      <point x="81" y="606" type="curve" smooth="yes"/>
      <point x="81" y="178"/>
      <point x="351" y="-20"/>
      <point x="699" y="-20" type="curve" smooth="yes"/>
      <point x="1055" y="-20"/>
      <point x="1277" y="166"/>
      <point x="1277" y="479" type="curve" smooth="yes"/>
      <point x="1277" y="768"/>
      <point x="1084" y="933"/>
      <point x="781" y="933" type="curve" smooth="yes"/>
      <point x="582" y="933"/>
      <point x="466" y="860"/>
      <point x="399" y="766" type="curve"/>
      <point x="384" y="766" type="line"/>
      <point x="400" y="1021"/>
      <point x="515" y="1200"/>
      <point x="924" y="1200" type="curve" smooth="yes"/>
      <point x="1016" y="1200"/>
      <point x="1093" y="1192"/>
      <point x="1154" y="1180" type="curve"/>
      <point x="1154" y="1432" type="line"/>
      <point x="1095" y="1441"/>
      <point x="994" y="1448"/>
      <point x="926" y="1448" type="curve" smooth="yes"/>
      <point x="223" y="1448"/>
      <point x="81" y="1016"/>
    </contour>
    <contour>
      <point x="694" y="234" type="curve" smooth="yes"/>
      <point x="500" y="234"/>
      <point x="404" y="372"/>
      <point x="404" y="498" type="curve" smooth="yes"/>
      <point x="404" y="591"/>
      <point x="519" y="688"/>
      <point x="700" y="688" type="curve" smooth="yes"/>
      <point x="878" y="688"/>
      <point x="963" y="606"/>
      <point x="963" y="474" type="curve" smooth="yes"/>
      <point x="963" y="309"/>
      <point x="854" y="234"/>
    </contour>
  </outline>
</glyph>
<glyph name="nine" format="2">
  <advance width="1351"/>
  <unicode hex="0039"/>
  <outline>
    <contour>
      <point x="1270" y="808" type="curve" smooth="yes"/>
      <point x="1270" y="1250"/>
      <point x="999" y="1448"/>
      <point x="655" y="1448" type="curve" smooth="yes"/>
      <point x="299" y="1448"/>
      <point x="74" y="1262"/>
      <point x="74" y="950" type="curve" smooth="yes"/>
      <point x="74" y="660"/>
      <point x="269" y="496"/>
      <point x="565" y="496" type="curve" smooth="yes"/>
      <point x="771" y="496"/>
      <point x="883" y="567"/>
      <point x="952" y="662" type="curve"/>
      <point x="967" y="662" type="line"/>
      <point x="952" y="415"/>
      <point x="841" y="228"/>
      <point x="415" y="228" type="curve" smooth="yes"/>
      <point x="334" y="228"/>
      <point x="259" y="236"/>
      <point x="197" y="248" type="curve"/>
      <point x="197" y="-6" type="line"/>
      <point x="256" y="-16"/>
      <point x="359" y="-20"/>
      <point x="426" y="-20" type="curve" smooth="yes"/>
      <point x="1078" y="-20"/>
      <point x="1270" y="331"/>
    </contour>
    <contour>
      <point x="660" y="1194" type="curve" smooth="yes"/>
      <point x="855" y="1194"/>
      <point x="948" y="1056"/>
      <point x="948" y="930" type="curve" smooth="yes"/>
      <point x="948" y="837"/>
      <point x="832" y="739"/>
      <point x="653" y="739" type="curve" smooth="yes"/>
      <point x="474" y="739"/>
      <point x="389" y="822"/>
      <point x="389" y="954" type="curve" smooth="yes"/>
      <point x="389" y="1119"/>
      <point x="497" y="1194"/>
    </contour>
  </outline>
</glyph>
<glyph name="less" format="2">
  <advance width="1629"/>
  <unicode hex="003C"/>
  <outline>
    <contour>
      <point x="1517" y="438" type="line"/>
      <point x="443" y="707" type="line"/>
      <point x="1517" y="1010" type="line"/>
      <point x="1517" y="1255" type="line"/>
      <point x="108" y="769" type="line"/>
      <point x="108" y="624" type="line"/>
      <point x="1517" y="194" type="line"/>
    </contour>
  </outline>
</glyph>
<glyph name="equal" format="2">
  <advance width="1629"/>
  <unicode hex="003D"/>
  <outline>
    <contour>
      <point x="1512" y="808" type="line"/>
      <point x="1512" y="1030" type="line"/>
      <point x="118" y="1030" type="line"/>
      <point x="118" y="808" type="line"/>
    </contour>
    <contour>
      <point x="1512" y="378" type="line"/>
      <point x="1512" y="602" type="line"/>
      <point x="118" y="602" type="line"/>
      <point x="118" y="378" type="line"/>
    </contour>
  </outline>
</glyph>
<glyph name="question" format="2">
  <advance width="1018"/>
  <unicode hex="003F"/>
  <outline>
    <contour>
      <point x="299" y="470" type="line"/>
      <point x="551" y="470" type="line"/>
      <point x="551" y="515" type="line" smooth="yes"/>
      <point x="551" y="594"/>
      <point x="586" y="633"/>
      <point x="722" y="722" type="curve" smooth="yes"/>
      <point x="892" y="832"/>
      <point x="975" y="932"/>
      <point x="975" y="1094" type="curve" smooth="yes"/>
      <point x="975" y="1309"/>
      <point x="803" y="1448"/>
      <point x="500" y="1448" type="curve" smooth="yes"/>
      <point x="303" y="1448"/>
      <point x="141" y="1398"/>
      <point x="0" y="1324" type="curve"/>
      <point x="113" y="1100" type="line"/>
      <point x="238" y="1160"/>
      <point x="355" y="1197"/>
      <point x="477" y="1197" type="curve" smooth="yes"/>
      <point x="599" y="1197"/>
      <point x="673" y="1150"/>
      <point x="673" y="1072" type="curve" smooth="yes"/>
      <point x="673" y="996"/>
      <point x="642" y="950"/>
      <point x="488" y="851" type="curve" smooth="yes"/>
      <point x="340" y="756"/>
      <point x="299" y="674"/>
      <point x="299" y="544" type="curve" smooth="yes"/>
    </contour>
    <contour>
      <point x="251" y="144" type="curve" smooth="yes"/>
      <point x="251" y="24"/>
      <point x="333" y="-25"/>
      <point x="437" y="-25" type="curve" smooth="yes"/>
      <point x="537" y="-25"/>
      <point x="620" y="24"/>
      <point x="620" y="144" type="curve" smooth="yes"/>
      <point x="620" y="269"/>
      <point x="537" y="314"/>
      <point x="437" y="314" type="curve" smooth="yes"/>
      <point x="333" y="314"/>
      <point x="251" y="269"/>
    </contour>
  </outline>
</glyph>
<glyph name="A" format="2">
  <advance width="1508"/>
  <unicode hex="0041"/>
  <anchor x="760" y="0" name="bottom"/>
  <anchor x="754" y="1428" name="top"/>
  <anchor x="1281" y="1428" name="topright"/>
  <outline>
    <contour>
      <point x="1508" y="0" type="line"/>
      <point x="945" y="1434" type="line"/>
      <point x="561" y="1434" type="line"/>
      <point x="0" y="0" type="line"/>
      <point x="343" y="0" type="line"/>
      <point x="472" y="352" type="line"/>
      <point x="1036" y="352" type="line"/>
      <point x="1165" y="0" type="line"/>
    </contour>
    <contour>
      <point x="961" y="593" type="line"/>
      <point x="551" y="593" type="line"/>
      <point x="671" y="922" type="line"/>
      <point x="693" y="993"/>
      <point x="733" y="1132"/>
      <point x="754" y="1223" type="curve"/>
      <point x="772" y="1148"/>
      <point x="825" y="977"/>
      <point x="842" y="922" type="curve"/>
    </contour>
  </outline>
</glyph>
<glyph name="grave" format="2">
  <advance width="1308"/>
  <unicode hex="0060"/>
  <outline>
    <contour>
      <point x="315" y="1532" type="line"/>
      <point x="315" y="1512" type="line"/>
      <point x="398" y="1437"/>
      <point x="637" y="1282"/>
      <point x="779" y="1212" type="curve"/>
      <point x="993" y="1212" type="line"/>
      <point x="993" y="1239" type="line"/>
      <point x="899" y="1313"/>
      <point x="760" y="1442"/>
      <point x="688" y="1532" type="curve"/>
    </contour>
  </outline>
</glyph>
<glyph name="k" format="2">
  <advance width="1296"/>
  <unicode hex="006B"/>
  <anchor x="653" y="0" name="bottom"/>
  <anchor x="320" y="1520" name="top"/>
  <anchor x="893" y="1747" name="topright"/>
  <outline>
    <contour>
      <point x="479" y="1520" type="line"/>
      <point x="158" y="1520" type="line"/>
      <point x="158" y="0" type="line"/>
      <point x="479" y="0" type="line"/>
      <point x="479" y="333" type="line"/>
      <point x="611" y="431" type="line"/>
      <point x="926" y="0" type="line"/>
      <point x="1296" y="0" type="line"/>
      <point x="835" y="629" type="line"/>
      <point x="1268" y="1095" type="line"/>
      <point x="907" y="1095" type="line"/>
      <point x="601" y="766" type="line" smooth="yes"/>
      <point x="561" y="723"/>
      <point x="499" y="640"/>
      <point x="470" y="599" type="curve"/>
      <point x="461" y="599" type="line"/>
      <point x="471" y="676"/>
      <point x="479" y="783"/>
      <point x="479" y="857" type="curve" smooth="yes"/>
    </contour>
  </outline>
</glyph>
<glyph name="q" format="2">
  <advance width="1357"/>
  <unicode hex="0071"/>
  <anchor x="1039" y="-480" name="bottom"/>
  <anchor x="680" y="1095" name="top"/>
  <anchor x="1259" y="1095" name="topright"/>
  <outline>
    <contour>
      <point x="879" y="-480" type="line"/>
      <point x="1199" y="-480" type="line"/>
      <point x="1199" y="1095" type="line"/>
      <point x="928" y="1095" type="line"/>
      <point x="899" y="956" type="line"/>
      <point x="891" y="956" type="line"/>
      <point x="825" y="1045"/>
      <point x="724" y="1115"/>
      <point x="551" y="1115" type="curve" smooth="yes"/>
      <point x="284" y="1115"/>
      <point x="100" y="918"/>
      <point x="100" y="546" type="curve" smooth="yes"/>
      <point x="100" y="174"/>
      <point x="280" y="-20"/>
      <point x="545" y="-20" type="curve" smooth="yes"/>
      <point x="717" y="-20"/>
      <point x="819" y="52"/>
      <point x="879" y="142" type="curve"/>
      <point x="892" y="142" type="line"/>
      <point x="883" y="90"/>
      <point x="879" y="30"/>
      <point x="879" y="-22" type="curve" smooth="yes"/>
    </contour>
    <contour>
      <point x="659" y="226" type="curve" smooth="yes"/>
      <point x="501" y="226"/>
      <point x="427" y="328"/>
      <point x="427" y="541" type="curve" smooth="yes"/>
      <point x="427" y="750"/>
      <point x="501" y="869"/>
      <point x="653" y="869" type="curve" smooth="yes"/>
      <point x="842" y="869"/>
      <point x="900" y="755"/>
      <point x="900" y="550" type="curve" smooth="yes"/>
      <point x="900" y="507" type="line" smooth="yes"/>
      <point x="900" y="318"/>
      <point x="835" y="226"/>
    </contour>
  </outline>
</glyph>
<glyph name="t" format="2">
  <advance width="830"/>
  <unicode hex="0074"/>
  <anchor x="474" y="0" name="bottom"/>
  <anchor x="414" y="548" name="center"/>
  <anchor x="392" y="1325" name="top"/>
  <anchor x="567" y="1747" name="topright"/>
  <outline>
    <contour>
      <point x="599" y="230" type="curve" smooth="yes"/>
      <point x="538" y="230"/>
      <point x="503" y="274"/>
      <point x="503" y="366" type="curve" smooth="yes"/>
      <point x="503" y="859" type="line"/>
      <point x="743" y="859" type="line"/>
      <point x="743" y="1095" type="line"/>
      <point x="503" y="1095" type="line"/>
      <point x="503" y="1325" type="line"/>
      <point x="294" y="1325" type="line"/>
      <point x="211" y="1094" type="line"/>
      <point x="62" y="991" type="line"/>
      <point x="62" y="859" type="line"/>
      <point x="181" y="859" type="line"/>
      <point x="181" y="347" type="line" smooth="yes"/>
      <point x="181" y="60"/>
      <point x="309" y="-20"/>
      <point x="494" y="-20" type="curve" smooth="yes"/>
      <point x="615" y="-20"/>
      <point x="686" y="2"/>
      <point x="756" y="32" type="curve"/>
      <point x="756" y="262" type="line"/>
      <point x="705" y="244"/>
      <point x="657" y="230"/>
    </contour>
  </outline>
</glyph>
<glyph name="w" format="2">
  <advance width="1767"/>
  <unicode hex="0077"/>
  <anchor x="879" y="0" name="bottom"/>
  <anchor x="884" y="1095" name="top"/>
  <anchor x="1723" y="1095" name="topright"/>
  <outline>
    <contour>
      <point x="1087" y="1" type="line"/>
      <point x="1435" y="1" type="line"/>
      <point x="1739" y="1096" type="line"/>
      <point x="1428" y="1096" type="line"/>
      <point x="1312" y="622" type="line" smooth="yes"/>
      <point x="1288" y="524"/>
      <point x="1264" y="368"/>
      <point x="1255" y="274" type="curve"/>
      <point x="1248" y="274" type="line"/>
      <point x="1238" y="368"/>
      <point x="1207" y="512"/>
      <point x="1187" y="593" type="curve" smooth="yes"/>
      <point x="1063" y="1096" type="line"/>
      <point x="710" y="1096" type="line"/>
      <point x="579" y="597" type="line" smooth="yes"/>
      <point x="565" y="542"/>
      <point x="528" y="366"/>
      <point x="520" y="273" type="curve"/>
      <point x="512" y="273" type="line"/>
      <point x="505" y="369"/>
      <point x="479" y="521"/>
      <point x="456" y="622" type="curve" smooth="yes"/>
      <point x="347" y="1096" type="line"/>
      <point x="28" y="1096" type="line"/>
      <point x="330" y="1" type="line"/>
      <point x="673" y="1" type="line"/>
      <point x="811" y="515" type="line" smooth="yes"/>
      <point x="841" y="628"/>
      <point x="870" y="780"/>
      <point x="878" y="840" type="curve"/>
      <point x="885" y="840" type="line"/>
      <point x="894" y="780"/>
      <point x="922" y="628"/>
      <point x="949" y="525" type="curve" smooth="yes"/>
    </contour>
  </outline>
</glyph>
<glyph name="cent" format="2">
  <advance width="1351"/>
  <unicode hex="00A2"/>
  <outline>
    <contour>
      <point x="869" y="1448" type="line" name=".hr02"/>
      <point x="665" y="1448" type="line"/>
      <point x="665" y="1284" type="line"/>
      <point x="358" y="1239"/>
      <point x="151" y="1068"/>
      <point x="151" y="723" type="curve" smooth="yes"/>
      <point x="151" y="376"/>
      <point x="350" y="207"/>
      <point x="665" y="168" type="curve"/>
      <point x="665" y="-20" type="line" name=".hr01"/>
      <point x="867" y="-20" type="line"/>
      <point x="867" y="162" type="line"/>
      <point x="1004" y="172"/>
      <point x="1104" y="201"/>
      <point x="1197" y="246" type="curve"/>
      <point x="1197" y="500" type="line"/>
      <point x="1085" y="448"/>
      <point x="966" y="415"/>
      <point x="821" y="415" type="curve" smooth="yes"/>
      <point x="601" y="415"/>
      <point x="478" y="504"/>
      <point x="478" y="725" type="curve" smooth="yes"/>
      <point x="478" y="941"/>
      <point x="595" y="1046"/>
      <point x="826" y="1046" type="curve" smooth="yes"/>
      <point x="923" y="1046"/>
      <point x="1036" y="1020"/>
      <point x="1135" y="984" type="curve"/>
      <point x="1229" y="1221" type="line"/>
      <point x="1133" y="1262"/>
      <point x="1004" y="1290"/>
      <point x="869" y="1295" type="curve"/>
    </contour>
  </outline>
</glyph>
<glyph name="section" format="2">
  <advance width="1351"/>
  <unicode hex="00A7"/>
  <outline>
    <contour>
      <point x="139" y="786" type="curve" smooth="yes"/>
      <point x="139" y="605"/>
      <point x="318" y="527"/>
      <point x="612" y="444" type="curve"/>
      <point x="898" y="375"/>
      <point x="950" y="340"/>
      <point x="950" y="280" type="curve" smooth="yes"/>
      <point x="950" y="217"/>
      <point x="870" y="170"/>
      <point x="619" y="170" type="curve" smooth="yes"/>
      <point x="451" y="170"/>
      <point x="257" y="213"/>
      <point x="125" y="268" type="curve"/>
      <point x="125" y="59" type="line"/>
      <point x="249" y="8"/>
      <point x="403" y="-19"/>
      <point x="610" y="-19" type="curve" smooth="yes"/>
      <point x="1004" y="-19"/>
      <point x="1230" y="108"/>
      <point x="1230" y="290" type="curve" smooth="yes"/>
      <point x="1230" y="393"/>
      <point x="1154" y="469"/>
      <point x="1027" y="522" type="curve"/>
      <point x="1137" y="572"/>
      <point x="1239" y="644"/>
      <point x="1239" y="778" type="curve" smooth="yes"/>
      <point x="1239" y="916"/>
      <point x="1077" y="1013"/>
      <point x="775" y="1100" type="curve"/>
      <point x="506" y="1162"/>
      <point x="428" y="1206"/>
      <point x="428" y="1260" type="curve" smooth="yes"/>
      <point x="428" y="1317"/>
      <point x="505" y="1348"/>
      <point x="703" y="1348" type="curve" smooth="yes"/>
      <point x="870" y="1348"/>
      <point x="992" y="1312"/>
      <point x="1121" y="1270" type="curve"/>
      <point x="1212" y="1458" type="line"/>
      <point x="1070" y="1504"/>
      <point x="926" y="1537"/>
      <point x="717" y="1537" type="curve" smooth="yes"/>
      <point x="354" y="1537"/>
      <point x="154" y="1424"/>
      <point x="154" y="1259" type="curve" smooth="yes"/>
      <point x="154" y="1156"/>
      <point x="231" y="1082"/>
      <point x="366" y="1022" type="curve"/>
      <point x="250" y="977"/>
      <point x="139" y="898"/>
    </contour>
    <contour>
      <point x="398" y="813" type="curve" smooth="yes"/>
      <point x="398" y="877"/>
      <point x="484" y="920"/>
      <point x="575" y="937" type="curve"/>
      <point x="890" y="872"/>
      <point x="978" y="816"/>
      <point x="978" y="736" type="curve" smooth="yes"/>
      <point x="978" y="672"/>
      <point x="899" y="632"/>
      <point x="825" y="606" type="curve"/>
      <point x="768" y="621" type="line" smooth="yes"/>
      <point x="494" y="689"/>
      <point x="398" y="736"/>
    </contour>
  </outline>
</glyph>
<glyph name="dieresis" format="2">
  <advance width="1308"/>
  <unicode hex="00A8"/>
  <outline>
    <contour>
      <point x="261" y="1374" type="curve" smooth="yes"/>
      <point x="261" y="1282"/>
      <point x="329" y="1240"/>
      <point x="414" y="1240" type="curve" smooth="yes"/>
      <point x="497" y="1240"/>
      <point x="569" y="1282"/>
      <point x="569" y="1374" type="curve" smooth="yes"/>
      <point x="569" y="1468"/>
      <point x="497" y="1510"/>
      <point x="414" y="1510" type="curve" smooth="yes"/>
      <point x="329" y="1510"/>
      <point x="261" y="1468"/>
    </contour>
    <contour>
      <point x="784" y="1374" type="curve" smooth="yes"/>
      <point x="784" y="1282"/>
      <point x="851" y="1240"/>
      <point x="936" y="1240" type="curve" smooth="yes"/>
      <point x="1018" y="1240"/>
      <point x="1090" y="1282"/>
      <point x="1090" y="1374" type="curve" smooth="yes"/>
      <point x="1090" y="1468"/>
      <point x="1018" y="1510"/>
      <point x="936" y="1510" type="curve" smooth="yes"/>
      <point x="851" y="1510"/>
      <point x="784" y="1468"/>
    </contour>
  </outline>
</glyph>
<glyph name="guillemetleft" format="2">
  <advance width="1166"/>
  <unicode hex="00AB"/>
  <outline>
    <contour>
      <point x="86" y="537" type="line"/>
      <point x="390" y="90" type="line"/>
      <point x="620" y="210" type="line"/>
      <point x="411" y="551" type="line"/>
      <point x="620" y="890" type="line"/>
      <point x="390" y="1012" type="line"/>
      <point x="86" y="563" type="line"/>
    </contour>
    <contour>
      <point x="545" y="537" type="line"/>
      <point x="847" y="90" type="line"/>
      <point x="1078" y="210" type="line"/>
      <point x="867" y="551" type="line"/>
      <point x="1078" y="890" type="line"/>
      <point x="847" y="1012" type="line"/>
      <point x="545" y="563" type="line"/>
    </contour>
  </outline>
</glyph>
<glyph name="logicalnot" format="2">
  <advance width="1629"/>
  <unicode hex="00AC"/>
  <outline>
    <contour>
      <point x="108" y="816" type="line"/>
      <point x="108" y="594" type="line"/>
      <point x="1274" y="594" type="line"/>
      <point x="1274" y="240" type="line"/>
      <point x="1519" y="240" type="line"/>
      <point x="1519" y="816" type="line"/>
    </contour>
  </outline>
</glyph>
<glyph name="softhyphen" format="2">
  <advance width="1308"/>
  <unicode hex="00AD"/>
  <outline>
    <contour>
      <point x="1027" y="409" type="line"/>
      <point x="1027" y="664" type="line"/>
      <point x="282" y="664" type="line"/>
      <point x="282" y="409" type="line"/>
    </contour>
  </outline>
</glyph>
<glyph name="twosuperior" format="2">
  <advance width="987"/>
  <unicode hex="00B2"/>
  <outline>
    <contour>
      <point x="908" y="1020" type="line"/>
      <point x="370" y="1020" type="line"/>
      <point x="568" y="1108" type="line"/>
      <point x="774" y="1229"/>
      <point x="904" y="1328"/>
      <point x="904" y="1476" type="curve" smooth="yes"/>
      <point x="904" y="1616"/>
      <point x="758" y="1709"/>
      <point x="508" y="1709" type="curve" smooth="yes"/>
      <point x="325" y="1709"/>
      <point x="194" y="1660"/>
      <point x="79" y="1584" type="curve"/>
      <point x="202" y="1446" type="line"/>
      <point x="301" y="1510"/>
      <point x="385" y="1532"/>
      <point x="487" y="1532" type="curve" smooth="yes"/>
      <point x="588" y="1532"/>
      <point x="655" y="1504"/>
      <point x="655" y="1452" type="curve" smooth="yes"/>
      <point x="655" y="1394"/>
      <point x="609" y="1343"/>
      <point x="394" y="1216" type="curve"/>
      <point x="74" y="1003" type="line"/>
      <point x="74" y="832" type="line"/>
      <point x="908" y="832" type="line"/>
    </contour>
  </outline>
</glyph>
<glyph name="threesuperior" format="2">
  <advance width="987"/>
  <unicode hex="00B3"/>
  <outline>
    <contour>
      <point x="484" y="1706" type="curve" smooth="yes"/>
      <point x="312" y="1706"/>
      <point x="185" y="1660"/>
      <point x="77" y="1599" type="curve"/>
      <point x="190" y="1458" type="line"/>
      <point x="285" y="1508"/>
      <point x="370" y="1531"/>
      <point x="473" y="1531" type="curve" smooth="yes"/>
      <point x="572" y="1531"/>
      <point x="639" y="1496"/>
      <point x="639" y="1446" type="curve" smooth="yes"/>
      <point x="639" y="1390"/>
      <point x="573" y="1349"/>
      <point x="404" y="1349" type="curve" smooth="yes"/>
      <point x="266" y="1349" type="line"/>
      <point x="266" y="1186" type="line"/>
      <point x="413" y="1186" type="line" smooth="yes"/>
      <point x="590" y="1186"/>
      <point x="671" y="1149"/>
      <point x="671" y="1093" type="curve" smooth="yes"/>
      <point x="671" y="1030"/>
      <point x="596" y="998"/>
      <point x="439" y="998" type="curve" smooth="yes"/>
      <point x="322" y="998"/>
      <point x="193" y="1021"/>
      <point x="75" y="1074" type="curve"/>
      <point x="75" y="880" type="line"/>
      <point x="183" y="836"/>
      <point x="304" y="816"/>
      <point x="443" y="816" type="curve" smooth="yes"/>
      <point x="755" y="816"/>
      <point x="913" y="911"/>
      <point x="913" y="1069" type="curve" smooth="yes"/>
      <point x="913" y="1180"/>
      <point x="826" y="1247"/>
      <point x="677" y="1275" type="curve"/>
      <point x="677" y="1282" type="line"/>
      <point x="798" y="1319"/>
      <point x="878" y="1390"/>
      <point x="878" y="1493" type="curve" smooth="yes"/>
      <point x="878" y="1620"/>
      <point x="742" y="1706"/>
    </contour>
  </outline>
</glyph>
<glyph name="micro" format="2">
  <advance width="1419"/>
  <unicode hex="00B5"/>
  <outline>
    <contour>
      <point x="940" y="1095" type="line"/>
      <point x="940" y="586" type="line" smooth="yes"/>
      <point x="940" y="356"/>
      <point x="877" y="230"/>
      <point x="682" y="230" type="curve" smooth="yes"/>
      <point x="542" y="230"/>
      <point x="478" y="309"/>
      <point x="478" y="464" type="curve" smooth="yes"/>
      <point x="478" y="1095" type="line"/>
      <point x="158" y="1095" type="line"/>
      <point x="158" y="-480" type="line"/>
      <point x="478" y="-480" type="line"/>
      <point x="478" y="-168" type="line" smooth="yes"/>
      <point x="478" y="-82"/>
      <point x="473" y="12"/>
      <point x="467" y="65" type="curve"/>
      <point x="473" y="65" type="line"/>
      <point x="520" y="10"/>
      <point x="578" y="-20"/>
      <point x="673" y="-20" type="curve" smooth="yes"/>
      <point x="798" y="-20"/>
      <point x="897" y="36"/>
      <point x="957" y="147" type="curve"/>
      <point x="971" y="147" type="line"/>
      <point x="1017" y="0" type="line" name=".hr01"/>
      <point x="1261" y="0" type="line"/>
      <point x="1261" y="1095" type="line"/>
    </contour>
  </outline>
</glyph>
<glyph name="paragraph" format="2">
  <advance width="1351"/>
  <unicode hex="00B6"/>
  <outline>
    <contour>
      <point x="1198" y="1520" type="line"/>
      <point x="580" y="1520" type="line" smooth="yes"/>
      <point x="307" y="1520"/>
      <point x="120" y="1400"/>
      <point x="120" y="1018" type="curve" smooth="yes"/>
      <point x="120" y="652"/>
      <point x="290" y="528"/>
      <point x="549" y="528" type="curve" smooth="yes"/>
      <point x="603" y="528"/>
      <point x="642" y="534"/>
      <point x="684" y="546" type="curve"/>
      <point x="684" y="-254" type="line"/>
      <point x="851" y="-254" type="line"/>
      <point x="851" y="1334" type="line"/>
      <point x="1032" y="1334" type="line"/>
      <point x="1032" y="-254" type="line"/>
      <point x="1198" y="-254" type="line"/>
    </contour>
  </outline>
</glyph>
<glyph name="cedilla" format="2">
  <advance width="1308"/>
  <unicode hex="00B8"/>
  <outline>
    <contour>
      <point x="962" y="-256" type="curve" smooth="yes"/>
      <point x="962" y="-137"/>
      <point x="838" y="-94"/>
      <point x="698" y="-75" type="curve"/>
      <point x="767" y="0" type="line"/>
      <point x="573" y="0" type="line"/>
      <point x="451" y="-148" type="line"/>
      <point x="604" y="-164"/>
      <point x="713" y="-189"/>
      <point x="713" y="-243" type="curve" smooth="yes"/>
      <point x="713" y="-288"/>
      <point x="641" y="-310"/>
      <point x="509" y="-310" type="curve" smooth="yes"/>
      <point x="451" y="-310"/>
      <point x="385" y="-303"/>
      <point x="344" y="-292" type="curve"/>
      <point x="344" y="-454" type="line"/>
      <point x="384" y="-468"/>
      <point x="451" y="-480"/>
      <point x="525" y="-480" type="curve" smooth="yes"/>
      <point x="810" y="-480"/>
      <point x="962" y="-394"/>
    </contour>
  </outline>
</glyph>
<glyph name="onesuperior" format="2">
  <advance width="987"/>
  <unicode hex="00B9"/>
  <outline>
    <contour>
      <point x="497" y="1688" type="line"/>
      <point x="88" y="1448" type="line"/>
      <point x="212" y="1305" type="line"/>
      <point x="366" y="1376" type="line"/>
      <point x="413" y="1396"/>
      <point x="463" y="1425"/>
      <point x="498" y="1449" type="curve"/>
      <point x="492" y="1412"/>
      <point x="485" y="1299"/>
      <point x="485" y="1248" type="curve" smooth="yes"/>
      <point x="485" y="832" type="line"/>
      <point x="735" y="832" type="line"/>
      <point x="735" y="1688" type="line"/>
    </contour>
  </outline>
</glyph>
<glyph name="onequarter" format="2">
  <advance width="1946"/>
  <unicode hex="00BC"/>
  <outline>
    <contour>
      <point x="558" y="0" type="line"/>
      <point x="1590" y="1428" type="line"/>
      <point x="1333" y="1428" type="line"/>
      <point x="301" y="0" type="line"/>
    </contour>
    <contour>
      <point x="320" y="572" type="line"/>
      <point x="563" y="572" type="line"/>
      <point x="563" y="1428" type="line"/>
      <point x="347" y="1428" type="line"/>
      <point x="-15" y="1188" type="line"/>
      <point x="108" y="1045" type="line"/>
      <point x="231" y="1119" type="line"/>
      <point x="270" y="1144"/>
      <point x="308" y="1173"/>
      <point x="331" y="1189" type="curve"/>
      <point x="324" y="1122"/>
      <point x="320" y="1036"/>
      <point x="320" y="988" type="curve" smooth="yes"/>
    </contour>
    <contour>
      <point x="1772" y="0" type="line"/>
      <point x="1772" y="155" type="line"/>
      <point x="1925" y="155" type="line"/>
      <point x="1925" y="326" type="line"/>
      <point x="1772" y="326" type="line"/>
      <point x="1772" y="862" type="line"/>
      <point x="1520" y="862" type="line"/>
      <point x="1049" y="312" type="line"/>
      <point x="1049" y="155" type="line"/>
      <point x="1527" y="155" type="line"/>
      <point x="1527" y="0" type="line"/>
    </contour>
    <contour>
      <point x="1431" y="513" type="line"/>
      <point x="1461" y="542"/>
      <point x="1511" y="597"/>
      <point x="1535" y="651" type="curve"/>
      <point x="1530" y="602"/>
      <point x="1527" y="545"/>
      <point x="1527" y="496" type="curve" smooth="yes"/>
      <point x="1527" y="326" type="line"/>
      <point x="1259" y="326" type="line"/>
    </contour>
  </outline>
</glyph>
<glyph name="questiondown" format="2">
  <advance width="1018"/>
  <unicode hex="00BF"/>
  <outline>
    <contour>
      <point x="720" y="620" type="line"/>
      <point x="468" y="620" type="line"/>
      <point x="468" y="575" type="line" smooth="yes"/>
      <point x="468" y="496"/>
      <point x="434" y="457"/>
      <point x="298" y="368" type="curve" smooth="yes"/>
      <point x="128" y="258"/>
      <point x="43" y="158"/>
      <point x="43" y="-4" type="curve" smooth="yes"/>
      <point x="43" y="-219"/>
      <point x="216" y="-358"/>
      <point x="519" y="-358" type="curve" smooth="yes"/>
      <point x="716" y="-358"/>
      <point x="878" y="-308"/>
      <point x="1018" y="-234" type="curve"/>
      <point x="905" y="-10" type="line"/>
      <point x="781" y="-70"/>
      <point x="664" y="-107"/>
      <point x="542" y="-107" type="curve" smooth="yes"/>
      <point x="420" y="-107"/>
      <point x="346" y="-60"/>
      <point x="346" y="18" type="curve" smooth="yes"/>
      <point x="346" y="94"/>
      <point x="377" y="140"/>
      <point x="531" y="239" type="curve" smooth="yes"/>
      <point x="679" y="334"/>
      <point x="720" y="416"/>
      <point x="720" y="546" type="curve" smooth="yes"/>
    </contour>
    <contour>
      <point x="768" y="946" type="curve" smooth="yes"/>
      <point x="768" y="1066"/>
      <point x="686" y="1115"/>
      <point x="582" y="1115" type="curve" smooth="yes"/>
      <point x="483" y="1115"/>
      <point x="399" y="1066"/>
      <point x="399" y="946" type="curve" smooth="yes"/>
      <point x="399" y="821"/>
      <point x="483" y="776"/>
      <point x="582" y="776" type="curve" smooth="yes"/>
      <point x="686" y="776"/>
      <point x="768" y="821"/>
    </contour>
  </outline>
</glyph>
<glyph name="multiply" format="2">
  <advance width="1629"/>
  <unicode hex="00D7"/>
  <outline>
    <contour>
      <point x="812" y="864" type="line"/>
      <point x="340" y="1151" type="line"/>
      <point x="165" y="994" type="line"/>
      <point x="638" y="706" type="line"/>
      <point x="168" y="418" type="line"/>
      <point x="343" y="263" type="line"/>
      <point x="810" y="550" type="line"/>
      <point x="1288" y="262" type="line"/>
      <point x="1458" y="416" type="line"/>
      <point x="987" y="706" type="line"/>
      <point x="1461" y="998" type="line"/>
      <point x="1290" y="1151" type="line"/>
    </contour>
  </outline>
</glyph>
<glyph name="ccedilla" format="2">
  <advance width="1090"/>
  <unicode hex="00E7"/>
  <anchor x="638" y="-480" name="bottom"/>
  <anchor x="612" y="1095" name="top"/>
  <outline>
    <contour>
      <point x="657" y="-20" type="curve" smooth="yes"/>
      <point x="805" y="-20"/>
      <point x="910" y="12"/>
      <point x="998" y="65" type="curve"/>
      <point x="998" y="320" type="line"/>
      <point x="905" y="267"/>
      <point x="795" y="234"/>
      <point x="677" y="234" type="curve" smooth="yes"/>
      <point x="521" y="234"/>
      <point x="427" y="330"/>
      <point x="427" y="544" type="curve" smooth="yes"/>
      <point x="427" y="758"/>
      <point x="519" y="864"/>
      <point x="680" y="864" type="curve" smooth="yes"/>
      <point x="764" y="864"/>
      <point x="850" y="838"/>
      <point x="936" y="803" type="curve"/>
      <point x="1030" y="1040" type="line"/>
      <point x="937" y="1085"/>
      <point x="814" y="1115"/>
      <point x="681" y="1115" type="curve" smooth="yes"/>
      <point x="348" y="1115"/>
      <point x="100" y="942"/>
      <point x="100" y="542" type="curve" smooth="yes"/>
      <point x="100" y="153"/>
      <point x="324" y="-20"/>
    </contour>
    <contour>
      <point x="869" y="-256" type="curve" smooth="yes"/>
      <point x="869" y="-137"/>
      <point x="770" y="-94"/>
      <point x="680" y="-75" type="curve"/>
      <point x="712" y="0" type="line"/>
      <point x="541" y="0" type="line"/>
      <point x="468" y="-148" type="line"/>
      <point x="575" y="-164"/>
      <point x="633" y="-189"/>
      <point x="633" y="-243" type="curve" smooth="yes"/>
      <point x="633" y="-288"/>
      <point x="593" y="-310"/>
      <point x="522" y="-310" type="curve" smooth="yes"/>
      <point x="478" y="-310"/>
      <point x="433" y="-303"/>
      <point x="395" y="-292" type="curve"/>
      <point x="395" y="-454" type="line"/>
      <point x="435" y="-468"/>
      <point x="500" y="-480"/>
      <point x="576" y="-480" type="curve" smooth="yes"/>
      <point x="759" y="-480"/>
      <point x="869" y="-394"/>
    </contour>
  </outline>
</glyph>
<glyph name="eth" format="2">
  <advance width="1310"/>
  <unicode hex="00F0"/>
  <anchor x="654" y="0" name="bottom"/>
  <anchor x="654" y="1536" name="top"/>
  <outline>
    <contour>
      <point x="378" y="1376" type="line"/>
      <point x="434" y="1345"/>
      <point x="493" y="1310"/>
      <point x="540" y="1280" type="curve"/>
      <point x="367" y="1178" type="line"/>
      <point x="470" y="1021" type="line"/>
      <point x="682" y="1148" type="line"/>
      <point x="766" y="1072"/>
      <point x="824" y="985"/>
      <point x="865" y="886" type="curve"/>
      <point x="857" y="882" type="line"/>
      <point x="811" y="945"/>
      <point x="723" y="976"/>
      <point x="585" y="976" type="curve" smooth="yes"/>
      <point x="304" y="976"/>
      <point x="103" y="799"/>
      <point x="103" y="480" type="curve" smooth="yes"/>
      <point x="103" y="160"/>
      <point x="331" y="-20"/>
      <point x="647" y="-20" type="curve" smooth="yes"/>
      <point x="985" y="-20"/>
      <point x="1198" y="193"/>
      <point x="1198" y="561" type="curve" smooth="yes"/>
      <point x="1198" y="877"/>
      <point x="1087" y="1098"/>
      <point x="895" y="1277" type="curve"/>
      <point x="1061" y="1378" type="line"/>
      <point x="959" y="1532" type="line"/>
      <point x="739" y="1398" type="line"/>
      <point x="663" y="1449"/>
      <point x="575" y="1492"/>
      <point x="475" y="1534" type="curve"/>
    </contour>
    <contour>
      <point x="651" y="746" type="curve" smooth="yes"/>
      <point x="802" y="746"/>
      <point x="872" y="639"/>
      <point x="872" y="522" type="curve" smooth="yes"/>
      <point x="872" y="315"/>
      <point x="809" y="210"/>
      <point x="651" y="210" type="curve" smooth="yes"/>
      <point x="493" y="210"/>
      <point x="430" y="319"/>
      <point x="430" y="479" type="curve" smooth="yes"/>
      <point x="430" y="658"/>
      <point x="491" y="746"/>
    </contour>
  </outline>
</glyph>
<glyph name="aogonek" format="2">
  <advance width="1204"/>
  <unicode hex="0105"/>
  <anchor x="593" y="-466" name="bottom"/>
  <anchor x="593" y="1095" name="top"/>
  <outline>
    <contour>
      <point x="632" y="1114" type="curve" smooth="yes"/>
      <point x="455" y="1114"/>
      <point x="308" y="1078"/>
      <point x="193" y="1017" type="curve"/>
      <point x="286" y="805" type="line"/>
      <point x="385" y="851"/>
      <point x="489" y="887"/>
      <point x="578" y="887" type="curve" smooth="yes"/>
      <point x="668" y="887"/>
      <point x="723" y="842"/>
      <point x="723" y="717" type="curve" smooth="yes"/>
      <point x="723" y="685" type="line"/>
      <point x="549" y="679" type="line" smooth="yes"/>
      <point x="244" y="668"/>
      <point x="86" y="554"/>
      <point x="86" y="325" type="curve" smooth="yes"/>
      <point x="86" y="91"/>
      <point x="223" y="-20"/>
      <point x="405" y="-20" type="curve" smooth="yes"/>
      <point x="580" y="-20"/>
      <point x="661" y="30"/>
      <point x="751" y="148" type="curve"/>
      <point x="758" y="148" type="line"/>
      <point x="820" y="0" type="line" name=".hr01"/>
      <point x="1043" y="0" type="line"/>
      <point x="1043" y="728" type="line" smooth="yes"/>
      <point x="1043" y="982"/>
      <point x="894" y="1114"/>
    </contour>
    <contour>
      <point x="725" y="504" type="line"/>
      <point x="725" y="415" type="line" smooth="yes"/>
      <point x="725" y="283"/>
      <point x="640" y="208"/>
      <point x="534" y="208" type="curve" smooth="yes"/>
      <point x="461" y="208"/>
      <point x="412" y="248"/>
      <point x="412" y="339" type="curve" smooth="yes"/>
      <point x="412" y="438"/>
      <point x="466" y="492"/>
      <point x="626" y="500" type="curve" smooth="yes"/>
    </contour>
    <contour>
      <point x="876" y="-206" type="curve" smooth="yes"/>
      <point x="876" y="-139"/>
      <point x="916" y="-86"/>
      <point x="1001" y="0" type="curve"/>
      <point x="870" y="44" type="line"/>
      <point x="722" y="-55"/>
      <point x="662" y="-155"/>
      <point x="662" y="-253" type="curve" smooth="yes"/>
      <point x="662" y="-386"/>
      <point x="763" y="-466"/>
      <point x="906" y="-466" type="curve" smooth="yes"/>
      <point x="970" y="-466"/>
      <point x="1017" y="-456"/>
      <point x="1057" y="-443" type="curve"/>
      <point x="1057" y="-262" type="line"/>
      <point x="1032" y="-271"/>
      <point x="986" y="-280"/>
      <point x="951" y="-280" type="curve" smooth="yes"/>
      <point x="905" y="-280"/>
      <point x="876" y="-258"/>
    </contour>
  </outline>
</glyph>
<glyph name="IJ" format="2">
  <advance width="1431"/>
  <unicode hex="0132"/>
  <anchor x="704" y="-415" name="bottom"/>
  <anchor x="704" y="1428" name="top"/>
  <outline>
    <contour>
      <point x="717" y="165" type="line"/>
      <point x="559" y="218" type="line"/>
      <point x="559" y="1211" type="line"/>
      <point x="717" y="1264" type="line"/>
      <point x="717" y="1428" type="line"/>
      <point x="81" y="1428" type="line"/>
      <point x="81" y="1264" type="line"/>
      <point x="239" y="1211" type="line"/>
      <point x="239" y="218" type="line"/>
      <point x="81" y="165" type="line"/>
      <point x="81" y="0" type="line"/>
      <point x="717" y="0" type="line"/>
    </contour>
    <contour>
      <point x="811" y="-415" type="curve" smooth="yes"/>
      <point x="1069" y="-415"/>
      <point x="1247" y="-272"/>
      <point x="1247" y="84" type="curve" smooth="yes"/>
      <point x="1247" y="1428" type="line"/>
      <point x="927" y="1428" type="line"/>
      <point x="927" y="59" type="line" smooth="yes"/>
      <point x="927" y="-116"/>
      <point x="884" y="-183"/>
      <point x="766" y="-183" type="curve" smooth="yes"/>
      <point x="718" y="-183"/>
      <point x="676" y="-173"/>
      <point x="639" y="-163" type="curve"/>
      <point x="639" y="-392" type="line"/>
      <point x="680" y="-405"/>
      <point x="735" y="-415"/>
    </contour>
  </outline>
</glyph>
<glyph name="kgreenlandic" format="2">
  <advance width="1296"/>
  <unicode hex="0138"/>
  <anchor x="653" y="0" name="bottom"/>
  <anchor x="653" y="1095" name="top"/>
  <outline>
    <contour>
      <point x="906" y="1095" type="line"/>
      <point x="588" y="740" type="line"/>
      <point x="544" y="684"/>
      <point x="505" y="627"/>
      <point x="480" y="593" type="curve"/>
      <point x="473" y="593" type="line"/>
      <point x="477" y="644"/>
      <point x="484" y="734"/>
      <point x="484" y="842" type="curve" smooth="yes"/>
      <point x="484" y="1095" type="line"/>
      <point x="158" y="1095" type="line"/>
      <point x="158" y="0" type="line"/>
      <point x="484" y="0" type="line"/>
      <point x="484" y="322" type="line"/>
      <point x="621" y="422" type="line"/>
      <point x="931" y="0" type="line"/>
      <point x="1296" y="0" type="line"/>
      <point x="843" y="614" type="line"/>
      <point x="1271" y="1095" type="line"/>
    </contour>
  </outline>
</glyph>
<glyph name="Lcaron" format="2">
  <advance width="1191"/>
  <unicode hex="013D"/>
  <anchor x="662" y="0" name="bottom"/>
  <anchor x="337" y="1428" name="top"/>
  <outline>
    <contour>
      <point x="1139" y="0" type="line"/>
      <point x="1139" y="239" type="line"/>
      <point x="503" y="239" type="line"/>
      <point x="503" y="1428" type="line"/>
      <point x="184" y="1428" type="line"/>
      <point x="184" y="0" type="line"/>
    </contour>
    <contour>
      <point x="1175" y="1428" type="line"/>
      <point x="883" y="1428" type="line"/>
      <point x="872" y="1342"/>
      <point x="842" y="1212"/>
      <point x="817" y="1135" type="curve"/>
      <point x="817" y="1108" type="line"/>
      <point x="1001" y="1108" type="line"/>
      <point x="1074" y="1212"/>
      <point x="1133" y="1323"/>
      <point x="1175" y="1408" type="curve"/>
    </contour>
  </outline>
</glyph>
<glyph name="lcaron" format="2">
  <advance width="962"/>
  <unicode hex="013E"/>
  <anchor x="294" y="0" name="bottom"/>
  <anchor x="294" y="1520" name="top"/>
  <outline>
    <contour>
      <point x="453" y="1520" type="line"/>
      <point x="133" y="1520" type="line"/>
      <point x="133" y="0" type="line"/>
      <point x="453" y="0" type="line"/>
    </contour>
    <contour>
      <point x="830" y="1520" type="line"/>
      <point x="542" y="1520" type="line"/>
      <point x="534" y="1434"/>
      <point x="513" y="1304"/>
      <point x="499" y="1227" type="curve"/>
      <point x="499" y="1200" type="line"/>
      <point x="691" y="1200" type="line"/>
      <point x="750" y="1308"/>
      <point x="783" y="1410"/>
      <point x="830" y="1500" type="curve"/>
    </contour>
  </outline>
</glyph>
<glyph name="Ldot" format="2">
  <advance width="1191"/>
  <unicode hex="013F"/>
  <anchor x="648" y="0" name="bottom"/>
  <anchor x="337" y="1428" name="top"/>
  <outline>
    <contour>
      <point x="1112" y="0" type="line"/>
      <point x="1112" y="239" type="line"/>
      <point x="503" y="239" type="line"/>
      <point x="503" y="1428" type="line"/>
      <point x="184" y="1428" type="line"/>
      <point x="184" y="0" type="line"/>
    </contour>
    <contour>
      <point x="892" y="897" type="curve" smooth="yes"/>
      <point x="796" y="897"/>
      <point x="721" y="863"/>
      <point x="721" y="755" type="curve" smooth="yes"/>
      <point x="721" y="650"/>
      <point x="796" y="614"/>
      <point x="892" y="614" type="curve" smooth="yes"/>
      <point x="983" y="614"/>
      <point x="1062" y="650"/>
      <point x="1062" y="755" type="curve" smooth="yes"/>
      <point x="1062" y="863"/>
      <point x="983" y="897"/>
    </contour>
  </outline>
</glyph>
<glyph name="ldot" format="2">
  <advance width="962"/>
  <unicode hex="0140"/>
  <anchor x="375" y="0" name="bottom"/>
  <anchor x="375" y="1520" name="top"/>
  <outline>
    <contour>
      <point x="535" y="1520" type="line"/>
      <point x="215" y="1520" type="line"/>
      <point x="215" y="0" type="line"/>
      <point x="535" y="0" type="line"/>
    </contour>
    <contour>
      <point x="821" y="909" type="curve" smooth="yes"/>
      <point x="720" y="909"/>
      <point x="639" y="875"/>
      <point x="639" y="758" type="curve" smooth="yes"/>
      <point x="639" y="645"/>
      <point x="720" y="609"/>
      <point x="821" y="609" type="curve" smooth="yes"/>
      <point x="918" y="609"/>
      <point x="1002" y="645"/>
      <point x="1002" y="758" type="curve" smooth="yes"/>
      <point x="1002" y="875"/>
      <point x="918" y="909"/>
    </contour>
  </outline>
</glyph>
<glyph name="Tbar" format="2">
  <advance width="1413"/>
  <unicode hex="0166"/>
  <anchor x="708" y="0" name="bottom"/>
  <anchor x="708" y="1428" name="top"/>
  <outline>
    <contour>
      <point x="866" y="0" type="line"/>
      <point x="866" y="590" type="line"/>
      <point x="1177" y="590" type="line"/>
      <point x="1177" y="827" type="line"/>
      <point x="866" y="827" type="line"/>
      <point x="866" y="1188" type="line"/>
      <point x="1353" y="1188" type="line"/>
      <point x="1353" y="1428" type="line"/>
      <point x="60" y="1428" type="line"/>
      <point x="60" y="1188" type="line"/>
      <point x="547" y="1188" type="line"/>
      <point x="547" y="827" type="line"/>
      <point x="236" y="827" type="line"/>
      <point x="236" y="590" type="line"/>
      <point x="547" y="590" type="line"/>
      <point x="547" y="0" type="line"/>
    </contour>
  </outline>
</glyph>
<glyph name="Bhook" format="2">
  <advance width="1537"/>
  <unicode hex="0181"/>
  <anchor x="786" y="0" name="bottom"/>
  <anchor x="786" y="1428" name="top"/>
  <outline>
    <contour>
      <point x="952" y="0" type="line" smooth="yes"/>
      <point x="1275" y="0"/>
      <point x="1470" y="153"/>
      <point x="1470" y="410" type="curve" smooth="yes"/>
      <point x="1470" y="635"/>
      <point x="1343" y="719"/>
      <point x="1206" y="748" type="curve"/>
      <point x="1206" y="759" type="line"/>
      <point x="1348" y="788"/>
      <point x="1429" y="906"/>
      <point x="1429" y="1072" type="curve" smooth="yes"/>
      <point x="1429" y="1338"/>
      <point x="1227" y="1428"/>
      <point x="849" y="1428" type="curve" smooth="yes"/>
      <point x="362" y="1428" type="line" smooth="yes"/>
      <point x="101" y="1428"/>
      <point x="6" y="1321"/>
      <point x="6" y="1141" type="curve" smooth="yes"/>
      <point x="6" y="1103"/>
      <point x="20" y="1056"/>
      <point x="31" y="1030" type="curve"/>
      <point x="271" y="1030" type="line"/>
      <point x="263" y="1049"/>
      <point x="251" y="1088"/>
      <point x="251" y="1133" type="curve" smooth="yes"/>
      <point x="251" y="1188"/>
      <point x="284" y="1228"/>
      <point x="355" y="1228" type="curve" smooth="yes"/>
      <point x="407" y="1228" type="line"/>
      <point x="407" y="0" type="line"/>
    </contour>
    <contour>
      <point x="710" y="200" type="line"/>
      <point x="710" y="648" type="line"/>
      <point x="902" y="648" type="line" smooth="yes"/>
      <point x="1101" y="648"/>
      <point x="1154" y="558"/>
      <point x="1154" y="432" type="curve" smooth="yes"/>
      <point x="1154" y="295"/>
      <point x="1101" y="200"/>
      <point x="910" y="200" type="curve" smooth="yes"/>
    </contour>
    <contour>
      <point x="710" y="840" type="line"/>
      <point x="710" y="1228" type="line"/>
      <point x="868" y="1228" type="line" smooth="yes"/>
      <point x="1045" y="1228"/>
      <point x="1118" y="1175"/>
      <point x="1118" y="1042" type="curve" smooth="yes"/>
      <point x="1118" y="910"/>
      <point x="1068" y="840"/>
      <point x="887" y="840" type="curve" smooth="yes"/>
    </contour>
  </outline>
</glyph>
<glyph name="Tonesix" format="2">
  <advance width="1500"/>
  <unicode hex="0184"/>
  <anchor x="655" y="0" name="bottom"/>
  <anchor x="655" y="1428" name="top"/>
  <outline>
    <contour>
      <point x="696" y="-22" type="curve" smooth="yes"/>
      <point x="1061" y="-22"/>
      <point x="1234" y="160"/>
      <point x="1234" y="422" type="curve" smooth="yes"/>
      <point x="1234" y="655"/>
      <point x="1066" y="849"/>
      <point x="646" y="849" type="curve" smooth="yes"/>
      <point x="458" y="849" type="line"/>
      <point x="458" y="1428" type="line"/>
      <point x="156" y="1428" type="line"/>
      <point x="156" y="423" type="line" smooth="yes"/>
      <point x="156" y="147"/>
      <point x="330" y="-22"/>
    </contour>
    <contour>
      <point x="687" y="178" type="curve" smooth="yes"/>
      <point x="530" y="178"/>
      <point x="458" y="249"/>
      <point x="458" y="427" type="curve" smooth="yes"/>
      <point x="458" y="649" type="line"/>
      <point x="606" y="649" type="line" smooth="yes"/>
      <point x="809" y="649"/>
      <point x="926" y="590"/>
      <point x="926" y="422" type="curve" smooth="yes"/>
      <point x="926" y="261"/>
      <point x="840" y="178"/>
    </contour>
  </outline>
</glyph>
<glyph name="Chook" format="2">
  <advance width="1459"/>
  <unicode hex="0187"/>
  <anchor x="748" y="0" name="bottom"/>
  <anchor x="738" y="1704" name="top"/>
  <outline>
    <contour>
      <point x="1264" y="1732" type="curve" smooth="yes"/>
      <point x="1083" y="1732"/>
      <point x="959" y="1634"/>
      <point x="959" y="1442" type="curve" smooth="yes"/>
      <point x="959" y="1424" type="line"/>
      <point x="903" y="1440"/>
      <point x="844" y="1448"/>
      <point x="785" y="1448" type="curve" smooth="yes"/>
      <point x="344" y="1448"/>
      <point x="112" y="1148"/>
      <point x="112" y="715" type="curve" smooth="yes"/>
      <point x="112" y="266"/>
      <point x="312" y="-20"/>
      <point x="758" y="-20" type="curve" smooth="yes"/>
      <point x="915" y="-20"/>
      <point x="1024" y="0"/>
      <point x="1150" y="44" type="curve"/>
      <point x="1150" y="245" type="line"/>
      <point x="1016" y="206"/>
      <point x="905" y="180"/>
      <point x="787" y="180" type="curve" smooth="yes"/>
      <point x="536" y="180"/>
      <point x="425" y="379"/>
      <point x="425" y="712" type="curve" smooth="yes"/>
      <point x="425" y="1046"/>
      <point x="557" y="1248"/>
      <point x="783" y="1248" type="curve" smooth="yes"/>
      <point x="895" y="1248"/>
      <point x="1001" y="1206"/>
      <point x="1099" y="1164" type="curve"/>
      <point x="1201" y="1354" type="line"/>
      <point x="1201" y="1443" type="line" smooth="yes"/>
      <point x="1201" y="1510"/>
      <point x="1235" y="1541"/>
      <point x="1294" y="1541" type="curve" smooth="yes"/>
      <point x="1339" y="1541"/>
      <point x="1381" y="1529"/>
      <point x="1402" y="1521" type="curve"/>
      <point x="1402" y="1705" type="line"/>
      <point x="1378" y="1717"/>
      <point x="1322" y="1732"/>
    </contour>
  </outline>
</glyph>
<glyph name="chook" format="2">
  <advance width="1147"/>
  <unicode hex="0188"/>
  <anchor x="590" y="0" name="bottom"/>
  <anchor x="566" y="1530" name="top"/>
  <outline>
    <contour>
      <point x="587" y="-20" type="curve" smooth="yes"/>
      <point x="738" y="-20"/>
      <point x="824" y="3"/>
      <point x="914" y="54" type="curve"/>
      <point x="914" y="281" type="line"/>
      <point x="827" y="231"/>
      <point x="738" y="198"/>
      <point x="610" y="198" type="curve" smooth="yes"/>
      <point x="470" y="198"/>
      <point x="389" y="307"/>
      <point x="389" y="540" type="curve" smooth="yes"/>
      <point x="389" y="773"/>
      <point x="459" y="888"/>
      <point x="610" y="888" type="curve" smooth="yes"/>
      <point x="690" y="888"/>
      <point x="774" y="860"/>
      <point x="856" y="828" type="curve"/>
      <point x="948" y="1031" type="line"/>
      <point x="948" y="1214" type="line" smooth="yes"/>
      <point x="948" y="1281"/>
      <point x="982" y="1312"/>
      <point x="1041" y="1312" type="curve" smooth="yes"/>
      <point x="1086" y="1312"/>
      <point x="1128" y="1300"/>
      <point x="1149" y="1292" type="curve"/>
      <point x="1149" y="1500" type="line"/>
      <point x="1125" y="1512"/>
      <point x="1070" y="1530"/>
      <point x="1011" y="1530" type="curve" smooth="yes"/>
      <point x="818" y="1530"/>
      <point x="702" y="1429"/>
      <point x="702" y="1207" type="curve" smooth="yes"/>
      <point x="702" y="1098" type="line"/>
      <point x="673" y="1103"/>
      <point x="641" y="1106"/>
      <point x="610" y="1106" type="curve" smooth="yes"/>
      <point x="307" y="1106"/>
      <point x="78" y="947"/>
      <point x="78" y="538" type="curve" smooth="yes"/>
      <point x="78" y="144"/>
      <point x="275" y="-20"/>
    </contour>
  </outline>
</glyph>
<glyph name="Dhook" format="2">
  <advance width="1871"/>
  <unicode hex="018A"/>
  <anchor x="855" y="0" name="bottom"/>
  <anchor x="855" y="1428" name="top"/>
  <outline>
    <contour>
      <point x="825" y="0" type="line" smooth="yes"/>
      <point x="1309" y="0"/>
      <point x="1600" y="247"/>
      <point x="1600" y="728" type="curve" smooth="yes"/>
      <point x="1600" y="1184"/>
      <point x="1306" y="1428"/>
      <point x="868" y="1428" type="curve" smooth="yes"/>
      <point x="362" y="1428" type="line" smooth="yes"/>
      <point x="101" y="1428"/>
      <point x="6" y="1321"/>
      <point x="6" y="1141" type="curve" smooth="yes"/>
      <point x="6" y="1103"/>
      <point x="20" y="1056"/>
      <point x="31" y="1030" type="curve"/>
      <point x="271" y="1030" type="line"/>
      <point x="263" y="1049"/>
      <point x="251" y="1088"/>
      <point x="251" y="1133" type="curve" smooth="yes"/>
      <point x="251" y="1188"/>
      <point x="284" y="1228"/>
      <point x="355" y="1228" type="curve" smooth="yes"/>
      <point x="407" y="1228" type="line"/>
      <point x="407" y="0" type="line"/>
    </contour>
    <contour>
      <point x="710" y="200" type="line"/>
      <point x="710" y="1228" type="line"/>
      <point x="877" y="1228" type="line" smooth="yes"/>
      <point x="1139" y="1228"/>
      <point x="1285" y="1072"/>
      <point x="1285" y="721" type="curve" smooth="yes"/>
      <point x="1285" y="376"/>
      <point x="1140" y="200"/>
      <point x="839" y="200" type="curve" smooth="yes"/>
    </contour>
  </outline>
</glyph>
<glyph name="Dtopbar" format="2">
  <advance width="1278"/>
  <unicode hex="018B"/>
  <anchor x="619" y="0" name="bottom"/>
  <anchor x="619" y="1428" name="top"/>
  <outline>
    <contour>
      <point x="1078" y="0" type="line"/>
      <point x="1078" y="1428" type="line"/>
      <point x="180" y="1428" type="line"/>
      <point x="180" y="1228" type="line"/>
      <point x="779" y="1228" type="line"/>
      <point x="779" y="851" type="line"/>
      <point x="632" y="851" type="line" smooth="yes"/>
      <point x="240" y="851"/>
      <point x="70" y="639"/>
      <point x="70" y="411" type="curve" smooth="yes"/>
      <point x="70" y="152"/>
      <point x="250" y="0"/>
      <point x="618" y="0" type="curve" smooth="yes"/>
    </contour>
    <contour>
      <point x="632" y="200" type="line" smooth="yes"/>
      <point x="453" y="200"/>
      <point x="371" y="272"/>
      <point x="371" y="419" type="curve" smooth="yes"/>
      <point x="371" y="582"/>
      <point x="471" y="651"/>
      <point x="644" y="651" type="curve" smooth="yes"/>
      <point x="779" y="651" type="line"/>
      <point x="779" y="200" type="line"/>
    </contour>
  </outline>
</glyph>
<glyph name="deltaturned" format="2">
  <advance width="1274"/>
  <unicode hex="018D"/>
  <anchor x="612" y="-441" name="bottom"/>
  <anchor x="612" y="1086" name="top"/>
  <outline>
    <contour>
      <point x="640" y="1106" type="curve" smooth="yes"/>
      <point x="330" y="1106"/>
      <point x="110" y="934"/>
      <point x="110" y="618" type="curve" smooth="yes"/>
      <point x="110" y="419"/>
      <point x="190" y="257"/>
      <point x="521" y="71" type="curve" smooth="yes"/>
      <point x="682" y="-20"/>
      <point x="712" y="-64"/>
      <point x="712" y="-125" type="curve" smooth="yes"/>
      <point x="712" y="-181"/>
      <point x="673" y="-244"/>
      <point x="556" y="-244" type="curve" smooth="yes"/>
      <point x="456" y="-244"/>
      <point x="355" y="-197"/>
      <point x="267" y="-124" type="curve"/>
      <point x="151" y="-315" type="line"/>
      <point x="238" y="-379"/>
      <point x="388" y="-444"/>
      <point x="566" y="-444" type="curve" smooth="yes"/>
      <point x="863" y="-444"/>
      <point x="1000" y="-299"/>
      <point x="1000" y="-136" type="curve" smooth="yes"/>
      <point x="1000" y="9"/>
      <point x="924" y="88"/>
      <point x="808" y="154" type="curve"/>
      <point x="1052" y="243"/>
      <point x="1161" y="402"/>
      <point x="1161" y="638" type="curve" smooth="yes"/>
      <point x="1161" y="924"/>
      <point x="944" y="1106"/>
    </contour>
    <contour>
      <point x="635" y="906" type="curve" smooth="yes"/>
      <point x="771" y="906"/>
      <point x="861" y="792"/>
      <point x="861" y="617" type="curve" smooth="yes"/>
      <point x="861" y="434"/>
      <point x="770" y="329"/>
      <point x="621" y="269" type="curve"/>
      <point x="492" y="340"/>
      <point x="410" y="448"/>
      <point x="410" y="615" type="curve" smooth="yes"/>
      <point x="410" y="784"/>
      <point x="490" y="906"/>
    </contour>
  </outline>
</glyph>
<glyph name="Ereversed" format="2">
  <advance width="1230"/>
  <unicode hex="018E"/>
  <anchor x="519" y="0" name="bottom"/>
  <anchor x="516" y="1428" name="top"/>
  <anchor x="989" y="1428" name="topright"/>
  <outline>
    <contour>
      <point x="922" y="0" type="line"/>
      <point x="922" y="1428" type="line"/>
      <point x="96" y="1428" type="line"/>
      <point x="96" y="1228" type="line"/>
      <point x="624" y="1228" type="line"/>
      <point x="624" y="843" type="line"/>
      <point x="130" y="843" type="line"/>
      <point x="130" y="643" type="line"/>
      <point x="624" y="643" type="line"/>
      <point x="624" y="200" type="line"/>
      <point x="96" y="200" type="line"/>
      <point x="96" y="0" type="line"/>
    </contour>
  </outline>
</glyph>
<glyph name="Eopen" format="2">
  <advance width="1120"/>
  <unicode hex="0190"/>
  <anchor x="600" y="0" name="bottom"/>
  <anchor x="600" y="1428" name="top"/>
  <outline>
    <contour>
      <point x="632" y="1450" type="curve" smooth="yes"/>
      <point x="305" y="1450"/>
      <point x="133" y="1300"/>
      <point x="133" y="1090" type="curve" smooth="yes"/>
      <point x="133" y="890"/>
      <point x="270" y="783"/>
      <point x="463" y="753" type="curve"/>
      <point x="463" y="745" type="line"/>
      <point x="215" y="719"/>
      <point x="72" y="594"/>
      <point x="72" y="392" type="curve" smooth="yes"/>
      <point x="72" y="153"/>
      <point x="236" y="-21"/>
      <point x="645" y="-21" type="curve" smooth="yes"/>
      <point x="850" y="-21"/>
      <point x="1008" y="9"/>
      <point x="1127" y="64" type="curve"/>
      <point x="1127" y="271" type="line"/>
      <point x="1008" y="211"/>
      <point x="843" y="169"/>
      <point x="706" y="169" type="curve" smooth="yes"/>
      <point x="471" y="169"/>
      <point x="375" y="260"/>
      <point x="375" y="415" type="curve" smooth="yes"/>
      <point x="375" y="575"/>
      <point x="533" y="645"/>
      <point x="793" y="645" type="curve" smooth="yes"/>
      <point x="933" y="645" type="line"/>
      <point x="933" y="835" type="line"/>
      <point x="811" y="835" type="line" smooth="yes"/>
      <point x="532" y="835"/>
      <point x="430" y="925"/>
      <point x="430" y="1065" type="curve" smooth="yes"/>
      <point x="430" y="1188"/>
      <point x="512" y="1260"/>
      <point x="661" y="1260" type="curve" smooth="yes"/>
      <point x="813" y="1260"/>
      <point x="920" y="1209"/>
      <point x="1019" y="1141" type="curve"/>
      <point x="1147" y="1300" type="line"/>
      <point x="1014" y="1385"/>
      <point x="857" y="1450"/>
    </contour>
  </outline>
</glyph>
<glyph name="hv" format="2">
  <advance width="1937"/>
  <unicode hex="0195"/>
  <anchor x="977" y="0" name="bottom"/>
  <anchor x="977" y="1086" name="top"/>
  <outline>
    <contour>
      <point x="1321" y="-24" type="curve" smooth="yes"/>
      <point x="1651" y="-24"/>
      <point x="1814" y="116"/>
      <point x="1814" y="455" type="curve" smooth="yes"/>
      <point x="1814" y="1082" type="line"/>
      <point x="1510" y="1082" type="line"/>
      <point x="1510" y="473" type="line" smooth="yes"/>
      <point x="1510" y="268"/>
      <point x="1452" y="190"/>
      <point x="1318" y="190" type="curve" smooth="yes"/>
      <point x="1193" y="190"/>
      <point x="1131" y="267"/>
      <point x="1131" y="421" type="curve" smooth="yes"/>
      <point x="1131" y="700" type="line" smooth="yes"/>
      <point x="1131" y="982"/>
      <point x="980" y="1105"/>
      <point x="749" y="1105" type="curve" smooth="yes"/>
      <point x="626" y="1105"/>
      <point x="517" y="1050"/>
      <point x="452" y="944" type="curve"/>
      <point x="435" y="944" type="line"/>
      <point x="444" y="1012"/>
      <point x="450" y="1090"/>
      <point x="450" y="1163" type="curve" smooth="yes"/>
      <point x="450" y="1520" type="line"/>
      <point x="146" y="1520" type="line"/>
      <point x="146" y="0" type="line" name=".hr01"/>
      <point x="450" y="0" type="line"/>
      <point x="450" y="524" type="line" smooth="yes"/>
      <point x="450" y="757"/>
      <point x="501" y="891"/>
      <point x="665" y="891" type="curve" smooth="yes"/>
      <point x="775" y="891"/>
      <point x="827" y="810"/>
      <point x="827" y="656" type="curve" smooth="yes"/>
      <point x="827" y="389" type="line" smooth="yes"/>
      <point x="827" y="102"/>
      <point x="979" y="-24"/>
    </contour>
  </outline>
</glyph>
<glyph name="lbar" format="2">
  <advance width="740"/>
  <unicode hex="019A"/>
  <anchor x="291" y="0" name="bottom"/>
  <anchor x="291" y="1520" name="top"/>
  <outline>
    <contour>
      <point x="441" y="0" type="line"/>
      <point x="441" y="663" type="line"/>
      <point x="569" y="663" type="line"/>
      <point x="569" y="849" type="line"/>
      <point x="441" y="849" type="line"/>
      <point x="441" y="1520" type="line"/>
      <point x="141" y="1520" type="line"/>
      <point x="141" y="849" type="line"/>
      <point x="14" y="849" type="line"/>
      <point x="14" y="663" type="line"/>
      <point x="141" y="663" type="line"/>
      <point x="141" y="0" type="line"/>
    </contour>
  </outline>
</glyph>
<glyph name="Mturned" format="2">
  <advance width="2276"/>
  <unicode hex="019C"/>
  <anchor x="1041" y="0" name="bottom"/>
  <anchor x="1041" y="1428" name="top"/>
  <outline>
    <contour>
      <point x="567" y="-20" type="curve" smooth="yes"/>
      <point x="705" y="-20"/>
      <point x="836" y="40"/>
      <point x="915" y="167" type="curve"/>
      <point x="930" y="167" type="line"/>
      <point x="996" y="41"/>
      <point x="1103" y="-20"/>
      <point x="1261" y="-20" type="curve" smooth="yes"/>
      <point x="1394" y="-20"/>
      <point x="1533" y="38"/>
      <point x="1608" y="158" type="curve"/>
      <point x="1625" y="158" type="line"/>
      <point x="1668" y="0" type="line" name=".hr01"/>
      <point x="1899" y="0" type="line"/>
      <point x="1899" y="1426" type="line"/>
      <point x="1594" y="1426" type="line"/>
      <point x="1594" y="582" type="line" smooth="yes"/>
      <point x="1594" y="325"/>
      <point x="1540" y="180"/>
      <point x="1352" y="180" type="curve" smooth="yes"/>
      <point x="1234" y="180"/>
      <point x="1183" y="266"/>
      <point x="1183" y="436" type="curve" smooth="yes"/>
      <point x="1183" y="1426" type="line"/>
      <point x="880" y="1426" type="line"/>
      <point x="880" y="545" type="line" smooth="yes"/>
      <point x="880" y="310"/>
      <point x="815" y="180"/>
      <point x="637" y="180" type="curve" smooth="yes"/>
      <point x="522" y="180"/>
      <point x="470" y="267"/>
      <point x="470" y="436" type="curve" smooth="yes"/>
      <point x="470" y="1426" type="line"/>
      <point x="166" y="1426" type="line"/>
      <point x="166" y="404" type="line" smooth="yes"/>
      <point x="166" y="105"/>
      <point x="319" y="-20" name=".hr02"/>
    </contour>
  </outline>
</glyph>
<glyph name="Nhookleft" format="2">
  <advance width="1574"/>
  <unicode hex="019D"/>
  <anchor x="809" y="-494" name="bottom"/>
  <anchor x="809" y="1428" name="top"/>
  <outline>
    <contour>
      <point x="105" y="-494" type="curve" smooth="yes"/>
      <point x="315" y="-494"/>
      <point x="446" y="-393"/>
      <point x="446" y="-155" type="curve" smooth="yes"/>
      <point x="446" y="738" type="line" smooth="yes"/>
      <point x="446" y="892"/>
      <point x="433" y="1050"/>
      <point x="427" y="1139" type="curve"/>
      <point x="435" y="1139" type="line"/>
      <point x="1059" y="3" type="line"/>
      <point x="1443" y="3" type="line"/>
      <point x="1443" y="1431" type="line"/>
      <point x="1170" y="1431" type="line"/>
      <point x="1170" y="691" type="line" smooth="yes"/>
      <point x="1170" y="556"/>
      <point x="1182" y="361"/>
      <point x="1185" y="303" type="curve"/>
      <point x="1178" y="303" type="line"/>
      <point x="556" y="1431" type="line"/>
      <point x="175" y="1431" type="line"/>
      <point x="175" y="-145" type="line" smooth="yes"/>
      <point x="175" y="-257"/>
      <point x="131" y="-294"/>
      <point x="66" y="-294" type="curve" smooth="yes"/>
      <point x="25" y="-294"/>
      <point x="-14" y="-284"/>
      <point x="-36" y="-274" type="curve"/>
      <point x="-36" y="-466" type="line"/>
      <point x="-8" y="-481"/>
      <point x="42" y="-494"/>
    </contour>
  </outline>
</glyph>
<glyph name="nlegrightlong" format="2">
  <advance width="1345"/>
  <unicode hex="019E"/>
  <anchor x="634" y="-480" name="bottom"/>
  <anchor x="658" y="1086" name="top"/>
  <outline>
    <contour>
      <point x="1128" y="-480" type="line"/>
      <point x="1128" y="708" type="line" smooth="yes"/>
      <point x="1128" y="987"/>
      <point x="973" y="1106" name=".hr01"/>
      <point x="745" y="1106" type="curve" smooth="yes"/>
      <point x="614" y="1106"/>
      <point x="488" y="1057"/>
      <point x="418" y="945" type="curve"/>
      <point x="401" y="945" type="line"/>
      <point x="362" y="1086" type="line"/>
      <point x="132" y="1086" type="line"/>
      <point x="132" y="0" type="line"/>
      <point x="432" y="0" type="line"/>
      <point x="432" y="527" type="line" smooth="yes"/>
      <point x="432" y="765"/>
      <point x="486" y="896"/>
      <point x="657" y="896" type="curve" smooth="yes"/>
      <point x="775" y="896"/>
      <point x="828" y="813"/>
      <point x="828" y="664" type="curve" smooth="yes"/>
      <point x="828" y="-480" type="line"/>
    </contour>
  </outline>
</glyph>
<glyph name="Oi" format="2">
  <advance width="2383"/>
  <unicode hex="01A2"/>
  <anchor x="1121" y="0" name="bottom"/>
  <anchor x="1121" y="1428" name="top"/>
  <outline>
    <contour>
      <point x="1430" y="716" type="curve" smooth="yes"/>
      <point x="1430" y="885"/>
      <point x="1405" y="1032"/>
      <point x="1351" y="1149" type="curve"/>
      <point x="1395" y="1215"/>
      <point x="1459" y="1250"/>
      <point x="1576" y="1250" type="curve" smooth="yes"/>
      <point x="1708" y="1250"/>
      <point x="1772" y="1162"/>
      <point x="1772" y="992" type="curve" smooth="yes"/>
      <point x="1772" y="0" type="line"/>
      <point x="2075" y="0" type="line"/>
      <point x="2075" y="1001" type="line" smooth="yes"/>
      <point x="2075" y="1317"/>
      <point x="1911" y="1450"/>
      <point x="1653" y="1450" type="curve" smooth="yes"/>
      <point x="1479" y="1450"/>
      <point x="1341" y="1388"/>
      <point x="1245" y="1272" type="curve"/>
      <point x="1138" y="1386"/>
      <point x="981" y="1450"/>
      <point x="773" y="1450" type="curve" smooth="yes"/>
      <point x="317" y="1450"/>
      <point x="112" y="1159"/>
      <point x="112" y="718" type="curve" smooth="yes"/>
      <point x="112" y="272"/>
      <point x="317" y="-20" name=".hr01"/>
      <point x="771" y="-20" type="curve" smooth="yes"/>
      <point x="1220" y="-20"/>
      <point x="1430" y="270"/>
    </contour>
    <contour>
      <point x="430" y="716" type="curve" smooth="yes"/>
      <point x="430" y="1052"/>
      <point x="532" y="1250"/>
      <point x="773" y="1250" type="curve" smooth="yes"/>
      <point x="1020" y="1250"/>
      <point x="1112" y="1048"/>
      <point x="1112" y="716" type="curve" smooth="yes"/>
      <point x="1112" y="382"/>
      <point x="1013" y="180"/>
      <point x="771" y="180" type="curve" smooth="yes"/>
      <point x="533" y="180"/>
      <point x="430" y="382"/>
    </contour>
  </outline>
</glyph>
<glyph name="oi" format="2">
  <advance width="1999"/>
  <unicode hex="01A3"/>
  <anchor x="909" y="-480" name="bottom"/>
  <anchor x="909" y="1086" name="top"/>
  <outline>
    <contour>
      <point x="1088" y="546" type="curve" smooth="yes"/>
      <point x="1088" y="651"/>
      <point x="1072" y="743"/>
      <point x="1047" y="818" type="curve"/>
      <point x="1082" y="869"/>
      <point x="1134" y="893"/>
      <point x="1210" y="893" type="curve" smooth="yes"/>
      <point x="1325" y="893"/>
      <point x="1376" y="811"/>
      <point x="1376" y="656" type="curve" smooth="yes"/>
      <point x="1376" y="-480" type="line"/>
      <point x="1679" y="-480" type="line"/>
      <point x="1679" y="704" type="line" smooth="yes"/>
      <point x="1679" y="987"/>
      <point x="1532" y="1106"/>
      <point x="1298" y="1106" type="curve" smooth="yes"/>
      <point x="1164" y="1106"/>
      <point x="1043" y="1062"/>
      <point x="956" y="951" type="curve"/>
      <point x="864" y="1055"/>
      <point x="738" y="1106"/>
      <point x="585" y="1106" type="curve" smooth="yes"/>
      <point x="276" y="1106"/>
      <point x="78" y="908"/>
      <point x="78" y="546" type="curve" smooth="yes"/>
      <point x="78" y="174"/>
      <point x="292" y="-20"/>
      <point x="580" y="-20" type="curve" smooth="yes"/>
      <point x="887" y="-20"/>
      <point x="1088" y="179"/>
    </contour>
    <contour>
      <point x="389" y="546" type="curve" smooth="yes"/>
      <point x="389" y="770"/>
      <point x="441" y="893"/>
      <point x="582" y="893" type="curve" smooth="yes"/>
      <point x="719" y="893"/>
      <point x="777" y="774"/>
      <point x="777" y="546" type="curve" smooth="yes"/>
      <point x="777" y="317"/>
      <point x="718" y="193"/>
      <point x="583" y="193" type="curve" smooth="yes"/>
      <point x="446" y="193"/>
      <point x="389" y="318"/>
    </contour>
  </outline>
</glyph>
<glyph name="Phook" format="2">
  <advance width="1503"/>
  <unicode hex="01A4"/>
  <anchor x="740" y="0" name="bottom"/>
  <anchor x="740" y="1428" name="top"/>
  <outline>
    <contour>
      <point x="710" y="-2" type="line"/>
      <point x="710" y="532" type="line"/>
      <point x="831" y="532" type="line" smooth="yes"/>
      <point x="1277" y="532"/>
      <point x="1395" y="763"/>
      <point x="1395" y="997" type="curve" smooth="yes"/>
      <point x="1395" y="1265"/>
      <point x="1235" y="1428"/>
      <point x="858" y="1428" type="curve" smooth="yes"/>
      <point x="362" y="1428" type="line" smooth="yes"/>
      <point x="101" y="1428"/>
      <point x="6" y="1321"/>
      <point x="6" y="1141" type="curve" smooth="yes"/>
      <point x="6" y="1103"/>
      <point x="20" y="1056"/>
      <point x="31" y="1030" type="curve"/>
      <point x="271" y="1030" type="line"/>
      <point x="263" y="1049"/>
      <point x="251" y="1088"/>
      <point x="251" y="1133" type="curve" smooth="yes"/>
      <point x="251" y="1188"/>
      <point x="284" y="1228"/>
      <point x="355" y="1228" type="curve" smooth="yes"/>
      <point x="407" y="1228" type="line"/>
      <point x="407" y="-2" type="line"/>
    </contour>
    <contour>
      <point x="710" y="732" type="line"/>
      <point x="710" y="1228" type="line"/>
      <point x="841" y="1228" type="line" smooth="yes"/>
      <point x="1011" y="1228"/>
      <point x="1089" y="1150"/>
      <point x="1089" y="988" type="curve" smooth="yes"/>
      <point x="1089" y="806"/>
      <point x="986" y="732"/>
      <point x="804" y="732" type="curve" smooth="yes"/>
    </contour>
  </outline>
</glyph>
<glyph name="tonetwo" format="2">
  <advance width="1158"/>
  <unicode hex="01A8"/>
  <anchor x="494" y="0" name="bottom"/>
  <anchor x="494" y="1086" name="top"/>
  <outline>
    <contour>
      <point x="491" y="1106" type="curve" smooth="yes"/>
      <point x="361" y="1106"/>
      <point x="233" y="1079"/>
      <point x="106" y="1025" type="curve"/>
      <point x="192" y="829" type="line"/>
      <point x="299" y="873"/>
      <point x="384" y="906"/>
      <point x="471" y="906" type="curve" smooth="yes"/>
      <point x="559" y="906"/>
      <point x="613" y="871"/>
      <point x="613" y="813" type="curve" smooth="yes"/>
      <point x="613" y="754"/>
      <point x="579" y="723"/>
      <point x="378" y="646" type="curve" smooth="yes"/>
      <point x="182" y="570"/>
      <point x="76" y="484"/>
      <point x="76" y="309" type="curve" smooth="yes"/>
      <point x="76" y="94"/>
      <point x="230" y="-20"/>
      <point x="531" y="-20" type="curve" smooth="yes"/>
      <point x="676" y="-20"/>
      <point x="781" y="2"/>
      <point x="888" y="56" type="curve"/>
      <point x="888" y="269" type="line"/>
      <point x="778" y="215"/>
      <point x="650" y="180"/>
      <point x="543" y="180" type="curve" smooth="yes"/>
      <point x="429" y="180"/>
      <point x="374" y="222"/>
      <point x="374" y="295" type="curve" smooth="yes"/>
      <point x="374" y="349"/>
      <point x="384" y="387"/>
      <point x="610" y="475" type="curve" smooth="yes"/>
      <point x="820" y="557"/>
      <point x="912" y="633"/>
      <point x="912" y="809" type="curve" smooth="yes"/>
      <point x="912" y="1005"/>
      <point x="741" y="1106"/>
    </contour>
  </outline>
</glyph>
<glyph name="Esh" format="2">
  <advance width="1306"/>
  <unicode hex="01A9"/>
  <anchor x="582" y="0" name="bottom"/>
  <anchor x="582" y="1428" name="top"/>
  <outline>
    <contour>
      <point x="1119" y="0" type="line"/>
      <point x="1119" y="200" type="line"/>
      <point x="688" y="200" type="line" smooth="yes"/>
      <point x="587" y="200"/>
      <point x="482" y="200"/>
      <point x="390" y="200" type="curve"/>
      <point x="795" y="728" type="line"/>
      <point x="795" y="788" type="line"/>
      <point x="446" y="1228" type="line"/>
      <point x="510" y="1228"/>
      <point x="594" y="1228"/>
      <point x="641" y="1228" type="curve" smooth="yes"/>
      <point x="1101" y="1227" type="line"/>
      <point x="1101" y="1428" type="line"/>
      <point x="78" y="1428" type="line"/>
      <point x="78" y="1236" type="line"/>
      <point x="501" y="736" type="line"/>
      <point x="60" y="185" type="line"/>
      <point x="60" y="0" type="line"/>
    </contour>
  </outline>
</glyph>
<glyph name="tpalatalhook" format="2">
  <advance width="829"/>
  <unicode hex="01AB"/>
  <anchor x="443" y="-480" name="bottom"/>
  <anchor x="443" y="1322" name="top"/>
  <outline>
    <contour>
      <point x="532" y="-480" type="curve" smooth="yes"/>
      <point x="721" y="-480"/>
      <point x="814" y="-383"/>
      <point x="814" y="-171" type="curve" smooth="yes"/>
      <point x="814" y="218" type="line"/>
      <point x="758" y="201"/>
      <point x="694" y="188"/>
      <point x="634" y="188" type="curve" smooth="yes"/>
      <point x="555" y="188"/>
      <point x="501" y="235"/>
      <point x="501" y="348" type="curve" smooth="yes"/>
      <point x="501" y="886" type="line"/>
      <point x="807" y="886" type="line"/>
      <point x="807" y="1086" type="line"/>
      <point x="501" y="1086" type="line"/>
      <point x="501" y="1322" type="line"/>
      <point x="308" y="1322" type="line"/>
      <point x="217" y="1095" type="line"/>
      <point x="56" y="1001" type="line"/>
      <point x="56" y="886" type="line"/>
      <point x="197" y="886" type="line"/>
      <point x="197" y="332" type="line" smooth="yes"/>
      <point x="197" y="50"/>
      <point x="366" y="-23"/>
      <point x="526" y="-23" type="curve" smooth="yes"/>
      <point x="539" y="-23"/>
      <point x="549" y="-23"/>
      <point x="558" y="-23" type="curve"/>
      <point x="558" y="-178" type="line" smooth="yes"/>
      <point x="558" y="-254"/>
      <point x="530" y="-280"/>
      <point x="470" y="-280" type="curve" smooth="yes"/>
      <point x="434" y="-280"/>
      <point x="400" y="-271"/>
      <point x="377" y="-263" type="curve"/>
      <point x="377" y="-454" type="line"/>
      <point x="415" y="-467"/>
      <point x="472" y="-480"/>
    </contour>
  </outline>
</glyph>
<glyph name="thook" format="2">
  <advance width="830"/>
  <unicode hex="01AD"/>
  <anchor x="443" y="0" name="bottom"/>
  <anchor x="443" y="1530" name="top"/>
  <outline>
    <contour>
      <point x="577" y="1530" type="curve" smooth="yes"/>
      <point x="340" y="1530"/>
      <point x="198" y="1425"/>
      <point x="198" y="1195" type="curve" smooth="yes"/>
      <point x="198" y="1087" type="line"/>
      <point x="56" y="1001" type="line"/>
      <point x="56" y="886" type="line"/>
      <point x="197" y="886" type="line"/>
      <point x="197" y="337" type="line" smooth="yes"/>
      <point x="197" y="54"/>
      <point x="360" y="-20"/>
      <point x="547" y="-20" type="curve" smooth="yes"/>
      <point x="653" y="-20"/>
      <point x="755" y="1"/>
      <point x="814" y="26" type="curve"/>
      <point x="814" y="225" type="line"/>
      <point x="758" y="208"/>
      <point x="694" y="195"/>
      <point x="634" y="195" type="curve" smooth="yes"/>
      <point x="559" y="195"/>
      <point x="501" y="241"/>
      <point x="501" y="337" type="curve" smooth="yes"/>
      <point x="501" y="886" type="line"/>
      <point x="807" y="886" type="line"/>
      <point x="807" y="1086" type="line"/>
      <point x="501" y="1086" type="line"/>
      <point x="501" y="1202" type="line" smooth="yes"/>
      <point x="501" y="1278"/>
      <point x="532" y="1315"/>
      <point x="607" y="1315" type="curve" smooth="yes"/>
      <point x="669" y="1315"/>
      <point x="737" y="1302"/>
      <point x="764" y="1294" type="curve"/>
      <point x="764" y="1500" type="line"/>
      <point x="726" y="1513"/>
      <point x="653" y="1530"/>
    </contour>
  </outline>
</glyph>
<glyph name="yhook" format="2">
  <advance width="1465"/>
  <unicode hex="01B4"/>
  <anchor x="630" y="-480" name="bottom"/>
  <anchor x="630" y="1086" name="top"/>
  <outline>
    <contour>
      <point x="1070" y="1107" type="curve" smooth="yes"/>
      <point x="901" y="1107"/>
      <point x="824" y="1017"/>
      <point x="775" y="875" type="curve"/>
      <point x="667" y="529" type="line" smooth="yes"/>
      <point x="640" y="442"/>
      <point x="615" y="341"/>
      <point x="604" y="282" type="curve"/>
      <point x="597" y="282" type="line"/>
      <point x="584" y="374"/>
      <point x="559" y="463"/>
      <point x="541" y="535" type="curve"/>
      <point x="359" y="1086" type="line"/>
      <point x="28" y="1086" type="line"/>
      <point x="470" y="3" type="line"/>
      <point x="445" y="-90" type="line"/>
      <point x="409" y="-207"/>
      <point x="323" y="-268"/>
      <point x="208" y="-268" type="curve" smooth="yes"/>
      <point x="171" y="-268"/>
      <point x="118" y="-262"/>
      <point x="95" y="-257" type="curve"/>
      <point x="95" y="-464" type="line"/>
      <point x="128" y="-472"/>
      <point x="188" y="-480"/>
      <point x="245" y="-480" type="curve" smooth="yes"/>
      <point x="485" y="-480"/>
      <point x="643" y="-349"/>
      <point x="724" y="-133" type="curve"/>
      <point x="1015" y="726" type="line"/>
      <point x="1071" y="854"/>
      <point x="1111" y="889"/>
      <point x="1171" y="889" type="curve" smooth="yes"/>
      <point x="1191" y="889"/>
      <point x="1217" y="884"/>
      <point x="1238" y="879" type="curve"/>
      <point x="1238" y="1077" type="line"/>
      <point x="1201" y="1094"/>
      <point x="1129" y="1107"/>
    </contour>
  </outline>
</glyph>
<glyph name="zstroke" format="2">
  <advance width="1210"/>
  <unicode hex="01B6"/>
  <anchor x="481" y="0" name="bottom"/>
  <anchor x="481" y="1086" name="top"/>
  <outline>
    <contour>
      <point x="78" y="1086" type="line"/>
      <point x="78" y="886" type="line"/>
      <point x="553" y="886" type="line"/>
      <point x="403" y="647" type="line"/>
      <point x="83" y="647" type="line"/>
      <point x="83" y="464" type="line"/>
      <point x="251" y="464" type="line"/>
      <point x="48" y="158" type="line"/>
      <point x="48" y="0" type="line"/>
      <point x="912" y="0" type="line"/>
      <point x="912" y="200" type="line"/>
      <point x="403" y="200" type="line"/>
      <point x="565" y="464" type="line"/>
      <point x="880" y="464" type="line"/>
      <point x="880" y="647" type="line"/>
      <point x="716" y="647" type="line"/>
      <point x="893" y="912" type="line"/>
      <point x="893" y="1086" type="line"/>
    </contour>
  </outline>
</glyph>
<glyph name="Ezh" format="2">
  <advance width="1209"/>
  <unicode hex="01B7"/>
  <anchor x="613" y="0" name="bottom"/>
  <anchor x="613" y="1428" name="top"/>
  <outline>
    <contour>
      <point x="120" y="1428" type="line"/>
      <point x="120" y="1228" type="line"/>
      <point x="663" y="1228" type="line"/>
      <point x="291" y="823" type="line"/>
      <point x="291" y="647" type="line"/>
      <point x="411" y="647" type="line" smooth="yes"/>
      <point x="712" y="647"/>
      <point x="819" y="573"/>
      <point x="819" y="421" type="curve" smooth="yes"/>
      <point x="819" y="266"/>
      <point x="730" y="173"/>
      <point x="494" y="173" type="curve" smooth="yes"/>
      <point x="368" y="173"/>
      <point x="204" y="206"/>
      <point x="72" y="267" type="curve"/>
      <point x="72" y="58" type="line"/>
      <point x="197" y="3"/>
      <point x="346" y="-20"/>
      <point x="510" y="-20" type="curve" smooth="yes"/>
      <point x="932" y="-20"/>
      <point x="1127" y="162"/>
      <point x="1127" y="416" type="curve" smooth="yes"/>
      <point x="1127" y="672"/>
      <point x="936" y="809"/>
      <point x="619" y="822" type="curve"/>
      <point x="1054" y="1262" type="line"/>
      <point x="1054" y="1428" type="line"/>
    </contour>
  </outline>
</glyph>
<glyph name="Ezhreversed" format="2">
  <advance width="1209"/>
  <unicode hex="01B8"/>
  <anchor x="578" y="0" name="bottom"/>
  <anchor x="578" y="1428" name="top"/>
  <outline>
    <contour>
      <point x="669" y="-20" type="curve" smooth="yes"/>
      <point x="849" y="-20"/>
      <point x="990" y="2"/>
      <point x="1120" y="58" type="curve"/>
      <point x="1120" y="266" type="line"/>
      <point x="990" y="205"/>
      <point x="825" y="170"/>
      <point x="699" y="170" type="curve" smooth="yes"/>
      <point x="466" y="170"/>
      <point x="372" y="270"/>
      <point x="372" y="432" type="curve" smooth="yes"/>
      <point x="372" y="614"/>
      <point x="487" y="696"/>
      <point x="743" y="696" type="curve" smooth="yes"/>
      <point x="869" y="696" type="line"/>
      <point x="869" y="863" type="line"/>
      <point x="537" y="1228" type="line"/>
      <point x="1073" y="1228" type="line"/>
      <point x="1073" y="1428" type="line"/>
      <point x="133" y="1428" type="line"/>
      <point x="133" y="1262" type="line"/>
      <point x="525" y="872" type="line"/>
      <point x="255" y="857"/>
      <point x="68" y="711"/>
      <point x="68" y="421" type="curve" smooth="yes"/>
      <point x="68" y="180"/>
      <point x="258" y="-20"/>
    </contour>
  </outline>
</glyph>
<glyph name="ezhtail" format="2">
  <advance width="1110"/>
  <unicode hex="01BA"/>
  <anchor x="532" y="-480" name="bottom"/>
  <anchor x="532" y="1086" name="top"/>
  <outline>
    <contour>
      <point x="460" y="-480" type="curve" smooth="yes"/>
      <point x="634" y="-480"/>
      <point x="791" y="-449"/>
      <point x="885" y="-409" type="curve"/>
      <point x="885" y="-203" type="line"/>
      <point x="796" y="-237"/>
      <point x="662" y="-280"/>
      <point x="492" y="-280" type="curve" smooth="yes"/>
      <point x="378" y="-280"/>
      <point x="311" y="-251"/>
      <point x="311" y="-194" type="curve" smooth="yes"/>
      <point x="311" y="-139"/>
      <point x="355" y="-108"/>
      <point x="503" y="-103" type="curve" smooth="yes"/>
      <point x="901" y="-90"/>
      <point x="992" y="63"/>
      <point x="992" y="274" type="curve" smooth="yes"/>
      <point x="992" y="512"/>
      <point x="815" y="613"/>
      <point x="589" y="624" type="curve"/>
      <point x="932" y="912" type="line"/>
      <point x="932" y="1086" type="line"/>
      <point x="75" y="1086" type="line"/>
      <point x="75" y="886" type="line"/>
      <point x="571" y="886" type="line"/>
      <point x="258" y="606" type="line"/>
      <point x="258" y="453" type="line"/>
      <point x="382" y="453" type="line" smooth="yes"/>
      <point x="591" y="453"/>
      <point x="686" y="408"/>
      <point x="686" y="277" type="curve" smooth="yes"/>
      <point x="686" y="146"/>
      <point x="615" y="97"/>
      <point x="430" y="89" type="curve" smooth="yes"/>
      <point x="134" y="76"/>
      <point x="48" y="-45"/>
      <point x="48" y="-197" type="curve" smooth="yes"/>
      <point x="48" y="-392"/>
      <point x="221" y="-480"/>
    </contour>
  </outline>
</glyph>
<glyph name="twostroke" format="2">
  <advance width="1340"/>
  <unicode hex="01BB"/>
  <anchor x="540" y="0" name="bottom"/>
  <anchor x="540" y="1527" name="top"/>
  <outline>
    <contour>
      <point x="495" y="1527" type="curve" smooth="yes"/>
      <point x="259" y="1527"/>
      <point x="117" y="1424"/>
      <point x="31" y="1338" type="curve"/>
      <point x="181" y="1173" type="line"/>
      <point x="266" y="1257"/>
      <point x="347" y="1311"/>
      <point x="466" y="1311" type="curve" smooth="yes"/>
      <point x="571" y="1311"/>
      <point x="642" y="1242"/>
      <point x="642" y="1129" type="curve" smooth="yes"/>
      <point x="642" y="1034"/>
      <point x="633" y="951"/>
      <point x="563" y="846" type="curve"/>
      <point x="58" y="846" type="line"/>
      <point x="58" y="663" type="line"/>
      <point x="401" y="663" type="line"/>
      <point x="26" y="202" type="line"/>
      <point x="26" y="0" type="line"/>
      <point x="1031" y="0" type="line"/>
      <point x="1031" y="200" type="line"/>
      <point x="378" y="200" type="line"/>
      <point x="378" y="212" type="line"/>
      <point x="743" y="663" type="line"/>
      <point x="1029" y="663" type="line"/>
      <point x="1029" y="846" type="line"/>
      <point x="882" y="846" type="line"/>
      <point x="935" y="951"/>
      <point x="949" y="1039"/>
      <point x="949" y="1141" type="curve" smooth="yes"/>
      <point x="949" y="1367"/>
      <point x="776" y="1527"/>
    </contour>
  </outline>
</glyph>
<glyph name="tonefive" format="2">
  <advance width="923"/>
  <unicode hex="01BD"/>
  <anchor x="565" y="0" name="bottom"/>
  <anchor x="565" y="1086" name="top"/>
  <outline>
    <contour>
      <point x="482" y="-20" type="curve" smooth="yes"/>
      <point x="867" y="-20"/>
      <point x="1035" y="148"/>
      <point x="1035" y="359" type="curve" smooth="yes"/>
      <point x="1035" y="573"/>
      <point x="907" y="697"/>
      <point x="602" y="697" type="curve" smooth="yes"/>
      <point x="533" y="697" type="line"/>
      <point x="533" y="879" type="line"/>
      <point x="985" y="879" type="line"/>
      <point x="985" y="1086" type="line"/>
      <point x="93" y="1086" type="line"/>
      <point x="93" y="879" type="line"/>
      <point x="264" y="879" type="line"/>
      <point x="264" y="511" type="line"/>
      <point x="493" y="511" type="line" smooth="yes"/>
      <point x="656" y="511"/>
      <point x="741" y="466"/>
      <point x="741" y="358" type="curve" smooth="yes"/>
      <point x="741" y="240"/>
      <point x="657" y="190"/>
      <point x="493" y="187" type="curve" smooth="yes"/>
      <point x="330" y="185"/>
      <point x="168" y="228"/>
      <point x="88" y="267" type="curve"/>
      <point x="88" y="47" type="line"/>
      <point x="164" y="10"/>
      <point x="312" y="-20"/>
    </contour>
  </outline>
</glyph>
<glyph name="glottalinvertedstroke" format="2">
  <advance width="1132"/>
  <unicode hex="01BE"/>
  <anchor x="479" y="0" name="bottom"/>
  <anchor x="479" y="1322" name="top"/>
  <outline>
    <contour>
      <point x="428" y="-20" type="curve" smooth="yes"/>
      <point x="755" y="-20"/>
      <point x="897" y="114"/>
      <point x="897" y="320" type="curve" smooth="yes"/>
      <point x="897" y="479"/>
      <point x="793" y="557"/>
      <point x="635" y="624" type="curve"/>
      <point x="552" y="656"/>
      <point x="527" y="688"/>
      <point x="527" y="764" type="curve" smooth="yes"/>
      <point x="527" y="886" type="line"/>
      <point x="807" y="886" type="line"/>
      <point x="807" y="1086" type="line"/>
      <point x="527" y="1086" type="line"/>
      <point x="527" y="1322" type="line"/>
      <point x="334" y="1322" type="line"/>
      <point x="243" y="1095" type="line"/>
      <point x="44" y="1001" type="line"/>
      <point x="44" y="886" type="line"/>
      <point x="239" y="886" type="line"/>
      <point x="239" y="754" type="line" smooth="yes"/>
      <point x="239" y="583"/>
      <point x="303" y="514"/>
      <point x="451" y="455" type="curve"/>
      <point x="563" y="399"/>
      <point x="603" y="365"/>
      <point x="603" y="303" type="curve" smooth="yes"/>
      <point x="603" y="227"/>
      <point x="551" y="180"/>
      <point x="420" y="180" type="curve" smooth="yes"/>
      <point x="287" y="180"/>
      <point x="131" y="229"/>
      <point x="47" y="274" type="curve"/>
      <point x="47" y="54" type="line"/>
      <point x="137" y="8"/>
      <point x="288" y="-20"/>
    </contour>
  </outline>
</glyph>
<glyph name="clickretroflex" format="2">
  <advance width="666"/>
  <unicode hex="01C3"/>
  <anchor x="255" y="0" name="bottom"/>
  <anchor x="255" y="1428" name="top"/>
  <outline>
    <contour>
      <point x="424" y="1428" type="line"/>
      <point x="85" y="1428" type="line"/>
      <point x="135" y="444" type="line"/>
      <point x="374" y="444" type="line"/>
    </contour>
    <contour>
      <point x="80" y="131" type="curve" smooth="yes"/>
      <point x="80" y="20"/>
      <point x="158" y="-26"/>
      <point x="254" y="-26" type="curve" smooth="yes"/>
      <point x="346" y="-26"/>
      <point x="425" y="20"/>
      <point x="425" y="131" type="curve" smooth="yes"/>
      <point x="425" y="245"/>
      <point x="346" y="287"/>
      <point x="254" y="287" type="curve" smooth="yes"/>
      <point x="158" y="287"/>
      <point x="80" y="245"/>
    </contour>
  </outline>
</glyph>
<glyph name="DZcaron" format="2">
  <advance width="2845"/>
  <unicode hex="01C4"/>
  <anchor x="2044" y="0" name="bottom"/>
  <anchor x="2037" y="1879" name="top"/>
  <outline>
    <contour>
      <point x="1338" y="733" type="curve" smooth="yes"/>
      <point x="1338" y="1186"/>
      <point x="1073" y="1428"/>
      <point x="626" y="1428" type="curve" smooth="yes"/>
      <point x="154" y="1428" type="line"/>
      <point x="154" y="0" type="line"/>
      <point x="589" y="0" type="line" smooth="yes"/>
      <point x="1050" y="0"/>
      <point x="1338" y="246"/>
    </contour>
    <contour>
      <point x="1026" y="725" type="curve" smooth="yes"/>
      <point x="1026" y="374"/>
      <point x="883" y="200"/>
      <point x="585" y="200" type="curve" smooth="yes"/>
      <point x="453" y="200" type="line"/>
      <point x="453" y="1228" type="line"/>
      <point x="617" y="1228" type="line" smooth="yes"/>
      <point x="884" y="1228"/>
      <point x="1026" y="1073"/>
    </contour>
    <contour>
      <point x="2555" y="200" type="line"/>
      <point x="1863" y="200" type="line"/>
      <point x="2538" y="1262" type="line"/>
      <point x="2538" y="1428" type="line"/>
      <point x="1513" y="1428" type="line"/>
      <point x="1513" y="1228" type="line"/>
      <point x="2170" y="1228" type="line"/>
      <point x="1495" y="166" type="line"/>
      <point x="1495" y="0" type="line"/>
      <point x="2555" y="0" type="line"/>
    </contour>
    <contour>
      <point x="2187" y="1559" type="line"/>
      <point x="2243" y="1650"/>
      <point x="2366" y="1779"/>
      <point x="2437" y="1853" type="curve"/>
      <point x="2437" y="1879" type="line"/>
      <point x="2242" y="1879" type="line"/>
      <point x="2172" y="1835"/>
      <point x="2107" y="1774"/>
      <point x="2036" y="1706" type="curve"/>
      <point x="1968" y="1774"/>
      <point x="1906" y="1834"/>
      <point x="1836" y="1879" type="curve"/>
      <point x="1640" y="1879" type="line"/>
      <point x="1640" y="1853" type="line"/>
      <point x="1714" y="1778"/>
      <point x="1833" y="1650"/>
      <point x="1890" y="1559" type="curve"/>
    </contour>
  </outline>
</glyph>
<glyph name="Dzcaron" format="2">
  <advance width="2776"/>
  <unicode hex="01C5"/>
  <anchor x="1949" y="0" name="bottom"/>
  <anchor x="1942" y="1532" name="top"/>
  <outline>
    <contour>
      <point x="1339" y="735" type="curve" smooth="yes"/>
      <point x="1339" y="1184"/>
      <point x="1075" y="1428"/>
      <point x="627" y="1428" type="curve" smooth="yes"/>
      <point x="154" y="1428" type="line"/>
      <point x="154" y="0" type="line"/>
      <point x="591" y="0" type="line" smooth="yes"/>
      <point x="1051" y="0"/>
      <point x="1339" y="246"/>
    </contour>
    <contour>
      <point x="1023" y="726" type="curve" smooth="yes"/>
      <point x="1023" y="389"/>
      <point x="882" y="221"/>
      <point x="587" y="221" type="curve" smooth="yes"/>
      <point x="458" y="221" type="line"/>
      <point x="458" y="1207" type="line"/>
      <point x="619" y="1207" type="line" smooth="yes"/>
      <point x="882" y="1207"/>
      <point x="1023" y="1057"/>
    </contour>
    <contour>
      <point x="2373" y="200" type="line"/>
      <point x="1864" y="200" type="line"/>
      <point x="2354" y="912" type="line"/>
      <point x="2354" y="1086" type="line"/>
      <point x="1538" y="1086" type="line"/>
      <point x="1538" y="886" type="line"/>
      <point x="2014" y="886" type="line"/>
      <point x="1509" y="158" type="line"/>
      <point x="1509" y="0" type="line"/>
      <point x="2373" y="0" type="line"/>
    </contour>
    <contour>
      <point x="2095" y="1209" type="line"/>
      <point x="2152" y="1301"/>
      <point x="2274" y="1433"/>
      <point x="2345" y="1506" type="curve"/>
      <point x="2345" y="1532" type="line"/>
      <point x="2147" y="1532" type="line"/>
      <point x="2077" y="1489"/>
      <point x="2013" y="1431"/>
      <point x="1942" y="1363" type="curve"/>
      <point x="1873" y="1431"/>
      <point x="1812" y="1487"/>
      <point x="1742" y="1532" type="curve"/>
      <point x="1543" y="1532" type="line"/>
      <point x="1543" y="1506" type="line"/>
      <point x="1617" y="1431"/>
      <point x="1736" y="1301"/>
      <point x="1792" y="1209" type="curve"/>
    </contour>
  </outline>
</glyph>
<glyph name="dzcaron" format="2">
  <advance width="2481"/>
  <unicode hex="01C6"/>
  <anchor x="1753" y="0" name="bottom"/>
  <anchor x="1746" y="1532" name="top"/>
  <outline>
    <contour>
      <point x="495" y="-20" type="curve" smooth="yes"/>
      <point x="653" y="-20"/>
      <point x="747" y="53"/>
      <point x="805" y="145" type="curve"/>
      <point x="816" y="145" type="line"/>
      <point x="876" y="0" type="line" name=".hr01"/>
      <point x="1106" y="0" type="line"/>
      <point x="1106" y="1520" type="line"/>
      <point x="805" y="1520" type="line"/>
      <point x="805" y="1147" type="line" smooth="yes"/>
      <point x="805" y="1084"/>
      <point x="813" y="990"/>
      <point x="820" y="947" type="curve"/>
      <point x="811" y="947" type="line"/>
      <point x="750" y="1036"/>
      <point x="659" y="1106" name=".hr02"/>
      <point x="504" y="1106" type="curve" smooth="yes"/>
      <point x="254" y="1106"/>
      <point x="84" y="914"/>
      <point x="84" y="542" type="curve" smooth="yes"/>
      <point x="84" y="173"/>
      <point x="252" y="-20"/>
    </contour>
    <contour>
      <point x="600" y="192" type="curve" smooth="yes"/>
      <point x="466" y="192"/>
      <point x="389" y="311"/>
      <point x="389" y="537" type="curve" smooth="yes"/>
      <point x="389" y="763"/>
      <point x="466" y="894"/>
      <point x="597" y="894" type="curve" smooth="yes"/>
      <point x="772" y="894"/>
      <point x="825" y="767"/>
      <point x="825" y="539" type="curve" smooth="yes"/>
      <point x="825" y="508" type="line" smooth="yes"/>
      <point x="825" y="295"/>
      <point x="763" y="192"/>
    </contour>
    <contour>
      <point x="2177" y="200" type="line"/>
      <point x="1668" y="200" type="line"/>
      <point x="2158" y="912" type="line"/>
      <point x="2158" y="1086" type="line"/>
      <point x="1342" y="1086" type="line"/>
      <point x="1342" y="886" type="line"/>
      <point x="1818" y="886" type="line"/>
      <point x="1313" y="160" type="line"/>
      <point x="1313" y="0" type="line"/>
      <point x="2177" y="0" type="line"/>
    </contour>
    <contour>
      <point x="1899" y="1212" type="line" name=".hr03"/>
      <point x="1956" y="1303"/>
      <point x="2078" y="1433"/>
      <point x="2149" y="1506" type="curve"/>
      <point x="2149" y="1532" type="line"/>
      <point x="1950" y="1532" type="line"/>
      <point x="1880" y="1489"/>
      <point x="1816" y="1431"/>
      <point x="1746" y="1364" type="curve"/>
      <point x="1677" y="1431"/>
      <point x="1616" y="1487"/>
      <point x="1546" y="1532" type="curve"/>
      <point x="1347" y="1532" type="line"/>
      <point x="1347" y="1506" type="line"/>
      <point x="1421" y="1431"/>
      <point x="1539" y="1303"/>
      <point x="1596" y="1212" type="curve"/>
    </contour>
  </outline>
</glyph>
<glyph name="LJ" format="2">
  <advance width="1924"/>
  <unicode hex="01C7"/>
  <anchor x="1119" y="-398" name="bottom"/>
  <anchor x="1417" y="1428" name="top"/>
  <outline>
    <contour>
      <point x="1035" y="0" type="line"/>
      <point x="1035" y="200" type="line"/>
      <point x="453" y="200" type="line"/>
      <point x="453" y="1427" type="line"/>
      <point x="154" y="1427" type="line"/>
      <point x="154" y="0" type="line"/>
    </contour>
    <contour>
      <point x="1119" y="-398" type="curve" smooth="yes"/>
      <point x="1387" y="-398"/>
      <point x="1570" y="-260"/>
      <point x="1570" y="54" type="curve" smooth="yes"/>
      <point x="1570" y="1427" type="line"/>
      <point x="1270" y="1427" type="line"/>
      <point x="1270" y="35" type="line" smooth="yes"/>
      <point x="1270" y="-141"/>
      <point x="1206" y="-198"/>
      <point x="1084" y="-198" type="curve" smooth="yes"/>
      <point x="1030" y="-198"/>
      <point x="983" y="-189"/>
      <point x="941" y="-178" type="curve"/>
      <point x="941" y="-372" type="line"/>
      <point x="984" y="-387"/>
      <point x="1041" y="-398"/>
    </contour>
  </outline>
</glyph>
<glyph name="Lj" format="2">
  <advance width="1838"/>
  <unicode hex="01C8"/>
  <anchor x="1182" y="-480" name="bottom"/>
  <anchor x="1400" y="1506" name="top"/>
  <outline>
    <contour>
      <point x="1038" y="0" type="line"/>
      <point x="1038" y="223" type="line"/>
      <point x="458" y="223" type="line"/>
      <point x="458" y="1428" type="line" name=".hr01"/>
      <point x="154" y="1428" type="line"/>
      <point x="154" y="0" type="line"/>
    </contour>
    <contour>
      <point x="1182" y="-480" type="curve" smooth="yes"/>
      <point x="1449" y="-480"/>
      <point x="1549" y="-331"/>
      <point x="1549" y="-131" type="curve" smooth="yes"/>
      <point x="1549" y="1086" type="line"/>
      <point x="1249" y="1086" type="line"/>
      <point x="1249" y="-102" type="line" smooth="yes"/>
      <point x="1249" y="-233"/>
      <point x="1192" y="-269"/>
      <point x="1121" y="-269" type="curve" smooth="yes"/>
      <point x="1074" y="-269"/>
      <point x="1038" y="-262"/>
      <point x="997" y="-250" type="curve"/>
      <point x="997" y="-456" type="line"/>
      <point x="1043" y="-470"/>
      <point x="1118" y="-480"/>
    </contour>
    <contour>
      <point x="1238" y="1371" type="curve" smooth="yes"/>
      <point x="1238" y="1272"/>
      <point x="1310" y="1236"/>
      <point x="1401" y="1236" type="curve" smooth="yes"/>
      <point x="1489" y="1236"/>
      <point x="1564" y="1272"/>
      <point x="1564" y="1371" type="curve" smooth="yes"/>
      <point x="1564" y="1472"/>
      <point x="1489" y="1506"/>
      <point x="1401" y="1506" type="curve" smooth="yes"/>
      <point x="1310" y="1506"/>
      <point x="1238" y="1472"/>
    </contour>
  </outline>
</glyph>
<glyph name="lj" format="2">
  <advance width="1283"/>
  <unicode hex="01C9"/>
  <anchor x="659" y="-480" name="bottom"/>
  <anchor x="876" y="1534" name="top"/>
  <outline>
    <contour>
      <point x="432" y="1520" type="line"/>
      <point x="132" y="1520" type="line"/>
      <point x="132" y="0" type="line"/>
      <point x="432" y="0" type="line"/>
    </contour>
    <contour>
      <point x="659" y="-480" type="curve" smooth="yes"/>
      <point x="925" y="-480"/>
      <point x="1026" y="-331"/>
      <point x="1026" y="-131" type="curve" smooth="yes"/>
      <point x="1026" y="1086" type="line"/>
      <point x="726" y="1086" type="line"/>
      <point x="726" y="-102" type="line" smooth="yes"/>
      <point x="726" y="-233"/>
      <point x="669" y="-269"/>
      <point x="597" y="-269" type="curve" smooth="yes"/>
      <point x="550" y="-269"/>
      <point x="515" y="-262"/>
      <point x="474" y="-250" type="curve"/>
      <point x="474" y="-456" type="line"/>
      <point x="519" y="-470"/>
      <point x="594" y="-480"/>
    </contour>
    <contour>
      <point x="714" y="1371" type="curve" smooth="yes"/>
      <point x="714" y="1272"/>
      <point x="787" y="1236"/>
      <point x="877" y="1236" type="curve" smooth="yes"/>
      <point x="965" y="1236"/>
      <point x="1041" y="1272"/>
      <point x="1041" y="1371" type="curve" smooth="yes"/>
      <point x="1041" y="1472"/>
      <point x="965" y="1506"/>
      <point x="877" y="1506" type="curve" smooth="yes"/>
      <point x="787" y="1506"/>
      <point x="714" y="1472"/>
    </contour>
  </outline>
</glyph>
<glyph name="Nj" format="2">
  <advance width="2228"/>
  <unicode hex="01CB"/>
  <anchor x="1674" y="-480" name="bottom"/>
  <anchor x="1891" y="1506" name="top"/>
  <outline>
    <contour>
      <point x="1424" y="1428" type="line"/>
      <point x="1150" y="1428" type="line"/>
      <point x="1150" y="688" type="line" smooth="yes"/>
      <point x="1150" y="571"/>
      <point x="1159" y="400"/>
      <point x="1164" y="324" type="curve"/>
      <point x="1157" y="324" type="line"/>
      <point x="541" y="1428" type="line"/>
      <point x="154" y="1428" type="line"/>
      <point x="154" y="0" type="line"/>
      <point x="426" y="0" type="line"/>
      <point x="426" y="735" type="line" smooth="yes"/>
      <point x="426" y="865"/>
      <point x="416" y="1019"/>
      <point x="409" y="1113" type="curve"/>
      <point x="417" y="1113" type="line"/>
      <point x="1035" y="0" type="line"/>
      <point x="1424" y="0" type="line"/>
    </contour>
    <contour>
      <point x="1674" y="-480" type="curve" smooth="yes"/>
      <point x="1940" y="-480"/>
      <point x="2041" y="-331"/>
      <point x="2041" y="-131" type="curve" smooth="yes"/>
      <point x="2041" y="1086" type="line"/>
      <point x="1741" y="1086" type="line"/>
      <point x="1741" y="-102" type="line" smooth="yes"/>
      <point x="1741" y="-233"/>
      <point x="1684" y="-269"/>
      <point x="1612" y="-269" type="curve" smooth="yes"/>
      <point x="1565" y="-269"/>
      <point x="1530" y="-262"/>
      <point x="1488" y="-250" type="curve"/>
      <point x="1488" y="-456" type="line"/>
      <point x="1534" y="-470"/>
      <point x="1609" y="-480"/>
    </contour>
    <contour>
      <point x="1729" y="1371" type="curve" smooth="yes"/>
      <point x="1729" y="1272"/>
      <point x="1802" y="1236"/>
      <point x="1892" y="1236" type="curve" smooth="yes"/>
      <point x="1980" y="1236"/>
      <point x="2056" y="1272"/>
      <point x="2056" y="1371" type="curve" smooth="yes"/>
      <point x="2056" y="1472"/>
      <point x="1980" y="1506"/>
      <point x="1892" y="1506" type="curve" smooth="yes"/>
      <point x="1802" y="1506"/>
      <point x="1729" y="1472"/>
    </contour>
  </outline>
</glyph>
<glyph name="Acaron" format="2">
  <advance width="1508"/>
  <unicode hex="01CD"/>
  <anchor x="693" y="0" name="bottom"/>
  <anchor x="688" y="1879" name="top"/>
  <outline>
    <contour>
      <point x="1378" y="0" type="line"/>
      <point x="870" y="1432" type="line"/>
      <point x="505" y="1432" type="line"/>
      <point x="0" y="0" type="line"/>
      <point x="322" y="0" type="line"/>
      <point x="436" y="396" type="line"/>
      <point x="943" y="396" type="line"/>
      <point x="1056" y="0" type="line"/>
    </contour>
    <contour>
      <point x="874" y="596" type="line"/>
      <point x="507" y="596" type="line"/>
      <point x="611" y="975" type="line"/>
      <point x="632" y="1034"/>
      <point x="670" y="1147"/>
      <point x="688" y="1233" type="curve"/>
      <point x="705" y="1170"/>
      <point x="754" y="1019"/>
      <point x="770" y="975" type="curve"/>
    </contour>
    <contour>
      <point x="839" y="1557" type="line"/>
      <point x="895" y="1648"/>
      <point x="1017" y="1777"/>
      <point x="1089" y="1851" type="curve"/>
      <point x="1089" y="1877" type="line"/>
      <point x="893" y="1877" type="line"/>
      <point x="823" y="1833"/>
      <point x="759" y="1772"/>
      <point x="688" y="1704" type="curve"/>
      <point x="620" y="1772"/>
      <point x="558" y="1832"/>
      <point x="488" y="1877" type="curve"/>
      <point x="292" y="1877" type="line"/>
      <point x="292" y="1851" type="line"/>
      <point x="366" y="1776"/>
      <point x="484" y="1648"/>
      <point x="541" y="1557" type="curve"/>
    </contour>
  </outline>
</glyph>
<glyph name="acaron" format="2">
  <advance width="1204"/>
  <unicode hex="01CE"/>
  <anchor x="592" y="0" name="bottom"/>
  <anchor x="592" y="1532" name="top"/>
  <outline>
    <contour>
      <point x="626" y="1105" type="curve" smooth="yes"/>
      <point x="450" y="1105"/>
      <point x="301" y="1066"/>
      <point x="187" y="1007" type="curve"/>
      <point x="275" y="825" type="line"/>
      <point x="375" y="868"/>
      <point x="483" y="905"/>
      <point x="580" y="905" type="curve" smooth="yes"/>
      <point x="685" y="905"/>
      <point x="749" y="855"/>
      <point x="749" y="714" type="curve" smooth="yes"/>
      <point x="749" y="670" type="line"/>
      <point x="566" y="664" type="line" smooth="yes"/>
      <point x="239" y="653"/>
      <point x="72" y="538"/>
      <point x="72" y="318" type="curve" smooth="yes"/>
      <point x="72" y="90"/>
      <point x="216" y="-20" name=".hr01"/>
      <point x="409" y="-20" type="curve" smooth="yes"/>
      <point x="592" y="-20"/>
      <point x="678" y="33"/>
      <point x="772" y="154" type="curve"/>
      <point x="780" y="154" type="line"/>
      <point x="838" y="1" type="line"/>
      <point x="1048" y="1" type="line"/>
      <point x="1048" y="728" type="line" smooth="yes"/>
      <point x="1048" y="978"/>
      <point x="898" y="1105"/>
    </contour>
    <contour>
      <point x="750" y="512" type="line"/>
      <point x="750" y="421" type="line" smooth="yes"/>
      <point x="750" y="262"/>
      <point x="650" y="180"/>
      <point x="523" y="180" type="curve" smooth="yes"/>
      <point x="437" y="180"/>
      <point x="378" y="226"/>
      <point x="378" y="326" type="curve" smooth="yes"/>
      <point x="378" y="437"/>
      <point x="443" y="499"/>
      <point x="634" y="507" type="curve" smooth="yes"/>
    </contour>
    <contour>
      <point x="745" y="1212" type="line"/>
      <point x="801" y="1303"/>
      <point x="924" y="1433"/>
      <point x="995" y="1506" type="curve"/>
      <point x="995" y="1532" type="line"/>
      <point x="796" y="1532" type="line"/>
      <point x="726" y="1489"/>
      <point x="662" y="1431"/>
      <point x="591" y="1364" type="curve"/>
      <point x="523" y="1431"/>
      <point x="462" y="1487"/>
      <point x="392" y="1532" type="curve"/>
      <point x="192" y="1532" type="line"/>
      <point x="192" y="1506" type="line"/>
      <point x="267" y="1431"/>
      <point x="385" y="1303"/>
      <point x="442" y="1212" type="curve"/>
    </contour>
  </outline>
</glyph>
<glyph name="Icaron" format="2">
  <advance width="682"/>
  <unicode hex="01CF"/>
  <anchor x="397" y="0" name="bottom"/>
  <anchor x="397" y="1879" name="top"/>
  <outline>
    <contour>
      <point x="720" y="135" type="line"/>
      <point x="546" y="181" type="line"/>
      <point x="546" y="1247" type="line"/>
      <point x="720" y="1294" type="line"/>
      <point x="720" y="1428" type="line"/>
      <point x="73" y="1428" type="line"/>
      <point x="73" y="1294" type="line"/>
      <point x="246" y="1247" type="line"/>
      <point x="246" y="181" type="line"/>
      <point x="73" y="135" type="line"/>
      <point x="73" y="0" type="line"/>
      <point x="720" y="0" type="line"/>
    </contour>
    <contour>
      <point x="547" y="1559" type="line"/>
      <point x="604" y="1650"/>
      <point x="726" y="1779"/>
      <point x="797" y="1853" type="curve"/>
      <point x="797" y="1879" type="line"/>
      <point x="602" y="1879" type="line"/>
      <point x="532" y="1835"/>
      <point x="467" y="1774"/>
      <point x="397" y="1706" type="curve"/>
      <point x="328" y="1774"/>
      <point x="266" y="1834"/>
      <point x="196" y="1879" type="curve"/>
      <point x="0" y="1879" type="line"/>
      <point x="0" y="1853" type="line"/>
      <point x="75" y="1778"/>
      <point x="193" y="1650"/>
      <point x="250" y="1559" type="curve"/>
    </contour>
  </outline>
</glyph>
<glyph name="ucaron" format="2">
  <advance width="1345"/>
  <unicode hex="01D4"/>
  <anchor x="619" y="0" name="bottom"/>
  <anchor x="638" y="1532" name="top"/>
  <outline>
    <contour>
      <point x="840" y="1086" type="line"/>
      <point x="840" y="559" type="line" smooth="yes"/>
      <point x="840" y="321"/>
      <point x="786" y="190"/>
      <point x="605" y="190" type="curve" smooth="yes"/>
      <point x="484" y="190"/>
      <point x="430" y="271"/>
      <point x="430" y="432" type="curve" smooth="yes"/>
      <point x="430" y="1086" type="line"/>
      <point x="130" y="1086" type="line"/>
      <point x="130" y="377" type="line" smooth="yes"/>
      <point x="130" y="100"/>
      <point x="283" y="-20"/>
      <point x="517" y="-20" type="curve" smooth="yes"/>
      <point x="654" y="-20"/>
      <point x="784" y="29"/>
      <point x="854" y="141" type="curve"/>
      <point x="870" y="141" type="line"/>
      <point x="909" y="0" type="line" name=".hr01"/>
      <point x="1140" y="0" type="line"/>
      <point x="1140" y="1086" type="line"/>
    </contour>
    <contour>
      <point x="791" y="1212" type="line"/>
      <point x="847" y="1303"/>
      <point x="970" y="1433"/>
      <point x="1041" y="1506" type="curve"/>
      <point x="1041" y="1532" type="line"/>
      <point x="842" y="1532" type="line"/>
      <point x="772" y="1489"/>
      <point x="708" y="1431"/>
      <point x="637" y="1364" type="curve"/>
      <point x="569" y="1431"/>
      <point x="508" y="1487"/>
      <point x="438" y="1532" type="curve"/>
      <point x="238" y="1532" type="line"/>
      <point x="238" y="1506" type="line"/>
      <point x="313" y="1431"/>
      <point x="431" y="1303"/>
      <point x="488" y="1212" type="curve"/>
    </contour>
  </outline>
</glyph>
<glyph name="Udieresiscaron" format="2">
  <advance width="1508"/>
  <unicode hex="01D9"/>
  <anchor x="728" y="0" name="bottom"/>
  <anchor x="732" y="2111" name="top"/>
  <outline>
    <contour>
      <point x="1316" y="1428" type="line"/>
      <point x="1018" y="1428" type="line"/>
      <point x="1018" y="527" type="line" smooth="yes"/>
      <point x="1018" y="314"/>
      <point x="934" y="180"/>
      <point x="733" y="180" type="curve" smooth="yes"/>
      <point x="542" y="180"/>
      <point x="446" y="301"/>
      <point x="446" y="525" type="curve" smooth="yes"/>
      <point x="446" y="1428" type="line"/>
      <point x="146" y="1428" type="line"/>
      <point x="146" y="521" type="line" smooth="yes"/>
      <point x="146" y="189"/>
      <point x="348" y="-20"/>
      <point x="726" y="-20" type="curve" smooth="yes"/>
      <point x="1123" y="-20"/>
      <point x="1316" y="207"/>
      <point x="1316" y="521" type="curve" smooth="yes"/>
    </contour>
    <contour>
      <point x="864" y="1819" type="line"/>
      <point x="925" y="1909"/>
      <point x="1023" y="2010"/>
      <point x="1095" y="2085" type="curve"/>
      <point x="1095" y="2111" type="line"/>
      <point x="958" y="2111" type="line"/>
      <point x="882" y="2067"/>
      <point x="803" y="2021"/>
      <point x="732" y="1953" type="curve"/>
      <point x="665" y="2021"/>
      <point x="587" y="2067"/>
      <point x="506" y="2111" type="curve"/>
      <point x="370" y="2111" type="line"/>
      <point x="370" y="2085" type="line"/>
      <point x="447" y="2009"/>
      <point x="539" y="1909"/>
      <point x="600" y="1819" type="curve"/>
    </contour>
    <contour>
      <point x="535" y="1548" type="curve" smooth="yes"/>
      <point x="608" y="1548"/>
      <point x="661" y="1582"/>
      <point x="661" y="1655" type="curve" smooth="yes"/>
      <point x="661" y="1729"/>
      <point x="608" y="1765"/>
      <point x="535" y="1765" type="curve" smooth="yes"/>
      <point x="460" y="1765"/>
      <point x="410" y="1729"/>
      <point x="410" y="1655" type="curve" smooth="yes"/>
      <point x="410" y="1582"/>
      <point x="460" y="1548"/>
    </contour>
    <contour>
      <point x="928" y="1548" type="curve" smooth="yes"/>
      <point x="1000" y="1548"/>
      <point x="1054" y="1582"/>
      <point x="1054" y="1655" type="curve" smooth="yes"/>
      <point x="1054" y="1729"/>
      <point x="1000" y="1765"/>
      <point x="928" y="1765" type="curve" smooth="yes"/>
      <point x="853" y="1765"/>
      <point x="804" y="1729"/>
      <point x="804" y="1655" type="curve" smooth="yes"/>
      <point x="804" y="1582"/>
      <point x="853" y="1548"/>
    </contour>
  </outline>
</glyph>
<glyph name="udieresisgrave" format="2">
  <advance width="1345"/>
  <unicode hex="01DC"/>
  <anchor x="619" y="0" name="bottom"/>
  <anchor x="638" y="1756" name="top"/>
  <outline>
    <contour>
      <point x="840" y="1086" type="line"/>
      <point x="840" y="559" type="line" smooth="yes"/>
      <point x="840" y="321"/>
      <point x="786" y="190"/>
      <point x="605" y="190" type="curve" smooth="yes"/>
      <point x="484" y="190"/>
      <point x="430" y="271"/>
      <point x="430" y="432" type="curve" smooth="yes"/>
      <point x="430" y="1086" type="line"/>
      <point x="130" y="1086" type="line"/>
      <point x="130" y="377" type="line" smooth="yes"/>
      <point x="130" y="100"/>
      <point x="283" y="-20"/>
      <point x="517" y="-20" type="curve" smooth="yes"/>
      <point x="654" y="-20"/>
      <point x="784" y="29"/>
      <point x="854" y="141" type="curve"/>
      <point x="870" y="141" type="line"/>
      <point x="909" y="0" type="line" name=".hr01"/>
      <point x="1140" y="0" type="line"/>
      <point x="1140" y="1086" type="line"/>
    </contour>
    <contour>
      <point x="261" y="1756" type="line"/>
      <point x="261" y="1736" type="line"/>
      <point x="330" y="1658"/>
      <point x="472" y="1534"/>
      <point x="568" y="1466" type="curve"/>
      <point x="767" y="1466" type="line"/>
      <point x="767" y="1491" type="line"/>
      <point x="702" y="1565"/>
      <point x="634" y="1666"/>
      <point x="584" y="1756" type="curve"/>
    </contour>
    <contour>
      <point x="440" y="1428" type="curve" smooth="yes"/>
      <point x="364" y="1428"/>
      <point x="314" y="1390"/>
      <point x="314" y="1313" type="curve" smooth="yes"/>
      <point x="314" y="1237"/>
      <point x="364" y="1200"/>
      <point x="440" y="1200" type="curve" smooth="yes"/>
      <point x="514" y="1200"/>
      <point x="567" y="1237"/>
      <point x="567" y="1313" type="curve" smooth="yes"/>
      <point x="567" y="1390"/>
      <point x="514" y="1428"/>
    </contour>
    <contour>
      <point x="833" y="1428" type="curve" smooth="yes"/>
      <point x="758" y="1428"/>
      <point x="708" y="1390"/>
      <point x="708" y="1313" type="curve" smooth="yes"/>
      <point x="708" y="1237"/>
      <point x="758" y="1200"/>
      <point x="833" y="1200" type="curve" smooth="yes"/>
      <point x="907" y="1200"/>
      <point x="961" y="1237"/>
      <point x="961" y="1313" type="curve" smooth="yes"/>
      <point x="961" y="1390"/>
      <point x="907" y="1428"/>
    </contour>
  </outline>
</glyph>
<glyph name="adieresismacron" format="2">
  <advance width="1204"/>
  <unicode hex="01DF"/>
  <anchor x="592" y="0" name="bottom"/>
  <anchor x="592" y="1698" name="top"/>
  <outline>
    <contour>
      <point x="626" y="1105" type="curve" smooth="yes"/>
      <point x="450" y="1105"/>
      <point x="301" y="1066"/>
      <point x="187" y="1007" type="curve"/>
      <point x="275" y="825" type="line"/>
      <point x="375" y="868"/>
      <point x="483" y="905"/>
      <point x="580" y="905" type="curve" smooth="yes"/>
      <point x="685" y="905"/>
      <point x="749" y="855"/>
      <point x="749" y="714" type="curve" smooth="yes"/>
      <point x="749" y="670" type="line"/>
      <point x="566" y="664" type="line" smooth="yes"/>
      <point x="239" y="653"/>
      <point x="72" y="538"/>
      <point x="72" y="318" type="curve" smooth="yes"/>
      <point x="72" y="90"/>
      <point x="216" y="-20" name=".hr01"/>
      <point x="409" y="-20" type="curve" smooth="yes"/>
      <point x="592" y="-20"/>
      <point x="678" y="33"/>
      <point x="772" y="154" type="curve"/>
      <point x="780" y="154" type="line"/>
      <point x="838" y="1" type="line"/>
      <point x="1048" y="1" type="line"/>
      <point x="1048" y="728" type="line" smooth="yes"/>
      <point x="1048" y="978"/>
      <point x="898" y="1105"/>
    </contour>
    <contour>
      <point x="750" y="512" type="line"/>
      <point x="750" y="421" type="line" smooth="yes"/>
      <point x="750" y="262"/>
      <point x="650" y="180"/>
      <point x="523" y="180" type="curve" smooth="yes"/>
      <point x="437" y="180"/>
      <point x="378" y="226"/>
      <point x="378" y="326" type="curve" smooth="yes"/>
      <point x="378" y="437"/>
      <point x="443" y="499"/>
      <point x="634" y="507" type="curve" smooth="yes"/>
    </contour>
    <contour>
      <point x="263" y="1698" type="line"/>
      <point x="263" y="1526" type="line"/>
      <point x="924" y="1526" type="line"/>
      <point x="924" y="1698" type="line"/>
    </contour>
    <contour>
      <point x="394" y="1428" type="curve" smooth="yes"/>
      <point x="318" y="1428"/>
      <point x="268" y="1390"/>
      <point x="268" y="1313" type="curve" smooth="yes"/>
      <point x="268" y="1237"/>
      <point x="318" y="1200"/>
      <point x="394" y="1200" type="curve" smooth="yes"/>
      <point x="468" y="1200"/>
      <point x="521" y="1237"/>
      <point x="521" y="1313" type="curve" smooth="yes"/>
      <point x="521" y="1390"/>
      <point x="468" y="1428"/>
    </contour>
    <contour>
      <point x="787" y="1428" type="curve" smooth="yes"/>
      <point x="712" y="1428"/>
      <point x="662" y="1390"/>
      <point x="662" y="1313" type="curve" smooth="yes"/>
      <point x="662" y="1237"/>
      <point x="712" y="1200"/>
      <point x="787" y="1200" type="curve" smooth="yes"/>
      <point x="861" y="1200"/>
      <point x="915" y="1237"/>
      <point x="915" y="1313" type="curve" smooth="yes"/>
      <point x="915" y="1390"/>
      <point x="861" y="1428"/>
    </contour>
  </outline>
</glyph>
<glyph name="adotmacron" format="2">
  <advance width="1204"/>
  <unicode hex="01E1"/>
  <anchor x="592" y="0" name="bottom"/>
  <anchor x="592" y="1705" name="top"/>
  <outline>
    <contour>
      <point x="626" y="1105" type="curve" smooth="yes"/>
      <point x="450" y="1105"/>
      <point x="301" y="1066"/>
      <point x="187" y="1007" type="curve"/>
      <point x="275" y="825" type="line"/>
      <point x="375" y="868"/>
      <point x="483" y="905"/>
      <point x="580" y="905" type="curve" smooth="yes"/>
      <point x="685" y="905"/>
      <point x="749" y="855"/>
      <point x="749" y="714" type="curve" smooth="yes"/>
      <point x="749" y="670" type="line"/>
      <point x="566" y="664" type="line" smooth="yes"/>
      <point x="239" y="653"/>
      <point x="72" y="538"/>
      <point x="72" y="318" type="curve" smooth="yes"/>
      <point x="72" y="90"/>
      <point x="216" y="-20" name=".hr01"/>
      <point x="409" y="-20" type="curve" smooth="yes"/>
      <point x="592" y="-20"/>
      <point x="678" y="33"/>
      <point x="772" y="154" type="curve"/>
      <point x="780" y="154" type="line"/>
      <point x="838" y="1" type="line"/>
      <point x="1048" y="1" type="line"/>
      <point x="1048" y="728" type="line" smooth="yes"/>
      <point x="1048" y="978"/>
      <point x="898" y="1105"/>
    </contour>
    <contour>
      <point x="750" y="512" type="line"/>
      <point x="750" y="421" type="line" smooth="yes"/>
      <point x="750" y="262"/>
      <point x="650" y="180"/>
      <point x="523" y="180" type="curve" smooth="yes"/>
      <point x="437" y="180"/>
      <point x="378" y="226"/>
      <point x="378" y="326" type="curve" smooth="yes"/>
      <point x="378" y="437"/>
      <point x="443" y="499"/>
      <point x="634" y="507" type="curve" smooth="yes"/>
    </contour>
    <contour>
      <point x="261" y="1705" type="line"/>
      <point x="261" y="1532" type="line"/>
      <point x="923" y="1532" type="line"/>
      <point x="923" y="1705" type="line"/>
    </contour>
    <contour>
      <point x="590" y="1452" type="curve" smooth="yes"/>
      <point x="511" y="1452"/>
      <point x="459" y="1412"/>
      <point x="459" y="1329" type="curve" smooth="yes"/>
      <point x="459" y="1250"/>
      <point x="511" y="1208"/>
      <point x="590" y="1208" type="curve" smooth="yes"/>
      <point x="665" y="1208"/>
      <point x="721" y="1250"/>
      <point x="721" y="1329" type="curve" smooth="yes"/>
      <point x="721" y="1412"/>
      <point x="665" y="1452"/>
    </contour>
  </outline>
</glyph>
<glyph name="Gstroke" format="2">
  <advance width="1650"/>
  <unicode hex="01E4"/>
  <anchor x="810" y="0" name="bottom"/>
  <anchor x="838" y="1428" name="top"/>
  <outline>
    <contour>
      <point x="795" y="-20" type="curve" smooth="yes"/>
      <point x="1010" y="-20"/>
      <point x="1156" y="16"/>
      <point x="1292" y="60" type="curve"/>
      <point x="1292" y="328" type="line"/>
      <point x="1421" y="328" type="line"/>
      <point x="1421" y="489" type="line"/>
      <point x="1292" y="489" type="line"/>
      <point x="1292" y="807" type="line"/>
      <point x="748" y="807" type="line"/>
      <point x="748" y="628" type="line"/>
      <point x="994" y="628" type="line"/>
      <point x="994" y="489" type="line"/>
      <point x="757" y="489" type="line"/>
      <point x="757" y="328" type="line"/>
      <point x="994" y="328" type="line"/>
      <point x="994" y="202" type="line"/>
      <point x="944" y="185"/>
      <point x="891" y="174"/>
      <point x="813" y="174" type="curve" smooth="yes"/>
      <point x="547" y="174"/>
      <point x="424" y="362"/>
      <point x="424" y="708" type="curve" smooth="yes"/>
      <point x="424" y="1057"/>
      <point x="569" y="1248"/>
      <point x="841" y="1248" type="curve" smooth="yes"/>
      <point x="966" y="1248"/>
      <point x="1103" y="1211"/>
      <point x="1188" y="1169" type="curve"/>
      <point x="1286" y="1364" type="line"/>
      <point x="1166" y="1414"/>
      <point x="1014" y="1448"/>
      <point x="860" y="1448" type="curve" smooth="yes"/>
      <point x="383" y="1448"/>
      <point x="112" y="1159"/>
      <point x="112" y="701" type="curve" smooth="yes"/>
      <point x="112" y="246"/>
      <point x="364" y="-20"/>
    </contour>
  </outline>
</glyph>
<glyph name="gcaron" format="2">
  <advance width="1351"/>
  <unicode hex="01E7"/>
  <anchor x="579" y="-480" name="bottom"/>
  <anchor x="604" y="1532" name="top"/>
  <outline>
    <contour>
      <point x="501" y="1106" type="curve" smooth="yes"/>
      <point x="248" y="1106"/>
      <point x="84" y="897"/>
      <point x="84" y="543" type="curve" smooth="yes"/>
      <point x="84" y="184"/>
      <point x="245" y="-20"/>
      <point x="498" y="-20" type="curve" smooth="yes"/>
      <point x="648" y="-20"/>
      <point x="745" y="42"/>
      <point x="806" y="144" type="curve"/>
      <point x="816" y="144" type="line"/>
      <point x="811" y="107"/>
      <point x="807" y="40"/>
      <point x="807" y="7" type="curve" smooth="yes"/>
      <point x="807" y="-26" type="line" smooth="yes"/>
      <point x="807" y="-180"/>
      <point x="717" y="-271"/>
      <point x="551" y="-271" type="curve" smooth="yes"/>
      <point x="385" y="-271"/>
      <point x="267" y="-242"/>
      <point x="146" y="-187" type="curve"/>
      <point x="146" y="-413" type="line"/>
      <point x="263" y="-460"/>
      <point x="391" y="-480"/>
      <point x="560" y="-480" type="curve" smooth="yes"/>
      <point x="931" y="-480"/>
      <point x="1106" y="-319"/>
      <point x="1106" y="-11" type="curve" smooth="yes"/>
      <point x="1106" y="1086" type="line"/>
      <point x="852" y="1086" type="line"/>
      <point x="825" y="946" type="line"/>
      <point x="817" y="946" type="line"/>
      <point x="750" y="1047"/>
      <point x="649" y="1106"/>
    </contour>
    <contour>
      <point x="597" y="897" type="curve" smooth="yes"/>
      <point x="765" y="897"/>
      <point x="826" y="786"/>
      <point x="826" y="544" type="curve" smooth="yes"/>
      <point x="826" y="502" type="line" smooth="yes"/>
      <point x="826" y="286"/>
      <point x="763" y="189"/>
      <point x="602" y="189" type="curve" smooth="yes"/>
      <point x="460" y="189"/>
      <point x="390" y="306"/>
      <point x="390" y="539" type="curve" smooth="yes"/>
      <point x="390" y="770"/>
      <point x="462" y="897"/>
    </contour>
    <contour>
      <point x="757" y="1212" type="line"/>
      <point x="813" y="1303"/>
      <point x="936" y="1433"/>
      <point x="1007" y="1506" type="curve"/>
      <point x="1007" y="1532" type="line"/>
      <point x="808" y="1532" type="line"/>
      <point x="738" y="1489"/>
      <point x="674" y="1431"/>
      <point x="604" y="1364" type="curve"/>
      <point x="535" y="1431"/>
      <point x="474" y="1487"/>
      <point x="404" y="1532" type="curve"/>
      <point x="205" y="1532" type="line"/>
      <point x="205" y="1506" type="line"/>
      <point x="279" y="1431"/>
      <point x="397" y="1303"/>
      <point x="454" y="1212" type="curve"/>
    </contour>
  </outline>
</glyph>
<glyph name="Kcaron" format="2">
  <advance width="1454"/>
  <unicode hex="01E8"/>
  <anchor x="678" y="0" name="bottom"/>
  <anchor x="691" y="1879" name="top"/>
  <outline>
    <contour>
      <point x="796" y="802" type="line"/>
      <point x="1295" y="1428" type="line"/>
      <point x="963" y="1428" type="line"/>
      <point x="627" y="995" type="line"/>
      <point x="569" y="912"/>
      <point x="507" y="829"/>
      <point x="454" y="747" type="curve"/>
      <point x="454" y="1428" type="line"/>
      <point x="154" y="1428" type="line"/>
      <point x="154" y="0" type="line"/>
      <point x="454" y="0" type="line"/>
      <point x="454" y="534" type="line"/>
      <point x="582" y="646" type="line"/>
      <point x="959" y="0" type="line"/>
      <point x="1300" y="0" type="line"/>
    </contour>
    <contour>
      <point x="841" y="1559" type="line"/>
      <point x="898" y="1650"/>
      <point x="1020" y="1779"/>
      <point x="1091" y="1853" type="curve"/>
      <point x="1091" y="1879" type="line"/>
      <point x="896" y="1879" type="line"/>
      <point x="826" y="1835"/>
      <point x="761" y="1774"/>
      <point x="691" y="1706" type="curve"/>
      <point x="622" y="1774"/>
      <point x="560" y="1834"/>
      <point x="490" y="1879" type="curve"/>
      <point x="294" y="1879" type="line"/>
      <point x="294" y="1853" type="line"/>
      <point x="369" y="1778"/>
      <point x="487" y="1650"/>
      <point x="544" y="1559" type="curve"/>
    </contour>
  </outline>
</glyph>
<glyph name="kcaron" format="2">
  <advance width="1296"/>
  <unicode hex="01E9"/>
  <anchor x="596" y="0" name="bottom"/>
  <anchor x="285" y="1967" name="top"/>
  <outline>
    <contour>
      <point x="434" y="1520" type="line"/>
      <point x="134" y="1520" type="line"/>
      <point x="134" y="0" type="line"/>
      <point x="434" y="0" type="line"/>
      <point x="434" y="357" type="line"/>
      <point x="557" y="458" type="line"/>
      <point x="851" y="0" type="line"/>
      <point x="1198" y="0" type="line"/>
      <point x="768" y="624" type="line"/>
      <point x="1171" y="1086" type="line"/>
      <point x="833" y="1086" type="line"/>
      <point x="548" y="745" type="line" smooth="yes"/>
      <point x="512" y="702"/>
      <point x="453" y="619"/>
      <point x="426" y="581" type="curve"/>
      <point x="418" y="581" type="line"/>
      <point x="427" y="648"/>
      <point x="434" y="745"/>
      <point x="434" y="807" type="curve" smooth="yes"/>
    </contour>
    <contour>
      <point x="438" y="1647" type="line"/>
      <point x="495" y="1737"/>
      <point x="617" y="1867"/>
      <point x="688" y="1940" type="curve"/>
      <point x="688" y="1967" type="line"/>
      <point x="490" y="1967" type="line"/>
      <point x="420" y="1923"/>
      <point x="356" y="1865"/>
      <point x="285" y="1798" type="curve"/>
      <point x="217" y="1865"/>
      <point x="155" y="1921"/>
      <point x="85" y="1967" type="curve"/>
      <point x="-114" y="1967" type="line"/>
      <point x="-114" y="1940" type="line"/>
      <point x="-40" y="1865"/>
      <point x="79" y="1737"/>
      <point x="136" y="1647" type="curve"/>
    </contour>
  </outline>
</glyph>
<glyph name="Oogonek" format="2">
  <advance width="1686"/>
  <unicode hex="01EA"/>
  <anchor x="782" y="-450" name="bottom"/>
  <anchor x="783" y="1428" name="top"/>
  <outline>
    <contour>
      <point x="1459" y="716" type="curve" smooth="yes"/>
      <point x="1459" y="1160"/>
      <point x="1245" y="1450"/>
      <point x="783" y="1450" type="curve" smooth="yes"/>
      <point x="316" y="1450"/>
      <point x="102" y="1158"/>
      <point x="102" y="718" type="curve" smooth="yes"/>
      <point x="102" y="275"/>
      <point x="316" y="-20"/>
      <point x="781" y="-20" type="curve" smooth="yes"/>
      <point x="1245" y="-20"/>
      <point x="1459" y="274"/>
    </contour>
    <contour>
      <point x="417" y="716" type="curve" smooth="yes"/>
      <point x="417" y="1049"/>
      <point x="525" y="1250"/>
      <point x="783" y="1250" type="curve" smooth="yes"/>
      <point x="1040" y="1250"/>
      <point x="1145" y="1049"/>
      <point x="1145" y="716" type="curve" smooth="yes"/>
      <point x="1145" y="384"/>
      <point x="1040" y="181"/>
      <point x="781" y="181" type="curve" smooth="yes"/>
      <point x="526" y="181"/>
      <point x="417" y="384"/>
    </contour>
    <contour>
      <point x="791" y="-221" type="curve" smooth="yes"/>
      <point x="791" y="-145"/>
      <point x="833" y="-86"/>
      <point x="923" y="0" type="curve"/>
      <point x="796" y="36" type="line"/>
      <point x="661" y="-37"/>
      <point x="588" y="-144"/>
      <point x="588" y="-252" type="curve" smooth="yes"/>
      <point x="588" y="-376"/>
      <point x="683" y="-450"/>
      <point x="830" y="-450" type="curve" smooth="yes"/>
      <point x="893" y="-450"/>
      <point x="939" y="-441"/>
      <point x="980" y="-430" type="curve"/>
      <point x="980" y="-290" type="line"/>
      <point x="955" y="-296"/>
      <point x="911" y="-305"/>
      <point x="873" y="-305" type="curve" smooth="yes"/>
      <point x="822" y="-305"/>
      <point x="791" y="-278"/>
    </contour>
  </outline>
</glyph>
<glyph name="oogonek" format="2">
  <advance width="1308"/>
  <unicode hex="01EB"/>
  <anchor x="611" y="-456" name="bottom"/>
  <anchor x="615" y="1086" name="top"/>
  <outline>
    <contour>
      <point x="1143" y="548" type="curve" smooth="yes"/>
      <point x="1143" y="908"/>
      <point x="924" y="1106"/>
      <point x="617" y="1106" type="curve" smooth="yes"/>
      <point x="286" y="1106"/>
      <point x="84" y="908"/>
      <point x="84" y="548" type="curve" smooth="yes"/>
      <point x="84" y="185"/>
      <point x="305" y="-19"/>
      <point x="611" y="-19" type="curve" smooth="yes"/>
      <point x="940" y="-19"/>
      <point x="1143" y="185"/>
    </contour>
    <contour>
      <point x="390" y="548" type="curve" smooth="yes"/>
      <point x="390" y="776"/>
      <point x="456" y="906"/>
      <point x="613" y="906" type="curve" smooth="yes"/>
      <point x="772" y="906"/>
      <point x="837" y="776"/>
      <point x="837" y="548" type="curve" smooth="yes"/>
      <point x="837" y="319"/>
      <point x="772" y="184"/>
      <point x="615" y="184" type="curve" smooth="yes"/>
      <point x="456" y="184"/>
      <point x="390" y="319"/>
    </contour>
    <contour>
      <point x="616" y="-216" type="curve" smooth="yes"/>
      <point x="616" y="-143"/>
      <point x="659" y="-85"/>
      <point x="749" y="1" type="curve"/>
      <point x="620" y="40" type="line"/>
      <point x="481" y="-43"/>
      <point x="410" y="-148"/>
      <point x="410" y="-252" type="curve" smooth="yes"/>
      <point x="410" y="-379"/>
      <point x="506" y="-456"/>
      <point x="654" y="-456" type="curve" smooth="yes"/>
      <point x="718" y="-456"/>
      <point x="764" y="-446"/>
      <point x="806" y="-435" type="curve"/>
      <point x="806" y="-280" type="line"/>
      <point x="780" y="-287"/>
      <point x="736" y="-296"/>
      <point x="698" y="-296" type="curve" smooth="yes"/>
      <point x="648" y="-296"/>
      <point x="616" y="-271"/>
    </contour>
  </outline>
</glyph>
<glyph name="Oogonekmacron" format="2">
  <advance width="1686"/>
  <unicode hex="01EC"/>
  <anchor x="782" y="-450" name="bottom"/>
  <anchor x="783" y="1725" name="top"/>
  <outline>
    <contour>
      <point x="1459" y="716" type="curve" smooth="yes"/>
      <point x="1459" y="1160"/>
      <point x="1245" y="1450"/>
      <point x="783" y="1450" type="curve" smooth="yes"/>
      <point x="316" y="1450"/>
      <point x="102" y="1158"/>
      <point x="102" y="718" type="curve" smooth="yes"/>
      <point x="102" y="275"/>
      <point x="316" y="-20"/>
      <point x="781" y="-20" type="curve" smooth="yes"/>
      <point x="1245" y="-20"/>
      <point x="1459" y="274"/>
    </contour>
    <contour>
      <point x="417" y="716" type="curve" smooth="yes"/>
      <point x="417" y="1049"/>
      <point x="525" y="1250"/>
      <point x="783" y="1250" type="curve" smooth="yes"/>
      <point x="1040" y="1250"/>
      <point x="1145" y="1049"/>
      <point x="1145" y="716" type="curve" smooth="yes"/>
      <point x="1145" y="384"/>
      <point x="1040" y="181"/>
      <point x="781" y="181" type="curve" smooth="yes"/>
      <point x="526" y="181"/>
      <point x="417" y="384"/>
    </contour>
    <contour>
      <point x="456" y="1725" type="line"/>
      <point x="456" y="1564" type="line"/>
      <point x="1116" y="1564" type="line"/>
      <point x="1116" y="1725" type="line"/>
    </contour>
    <contour>
      <point x="799" y="-221" type="curve" smooth="yes"/>
      <point x="799" y="-145"/>
      <point x="841" y="-86"/>
      <point x="931" y="0" type="curve"/>
      <point x="804" y="36" type="line"/>
      <point x="668" y="-37"/>
      <point x="596" y="-144"/>
      <point x="596" y="-252" type="curve" smooth="yes"/>
      <point x="596" y="-376"/>
      <point x="691" y="-450"/>
      <point x="837" y="-450" type="curve" smooth="yes"/>
      <point x="901" y="-450"/>
      <point x="947" y="-441"/>
      <point x="988" y="-430" type="curve"/>
      <point x="988" y="-290" type="line"/>
      <point x="963" y="-296"/>
      <point x="919" y="-305"/>
      <point x="880" y="-305" type="curve" smooth="yes"/>
      <point x="830" y="-305"/>
      <point x="799" y="-278"/>
    </contour>
  </outline>
</glyph>
<glyph name="Ezhcaron" format="2">
  <advance width="1209"/>
  <unicode hex="01EE"/>
  <anchor x="613" y="0" name="bottom"/>
  <anchor x="613" y="1879" name="top"/>
  <outline>
    <contour>
      <point x="120" y="1428" type="line"/>
      <point x="120" y="1228" type="line"/>
      <point x="663" y="1228" type="line"/>
      <point x="291" y="823" type="line"/>
      <point x="291" y="647" type="line"/>
      <point x="411" y="647" type="line" smooth="yes"/>
      <point x="712" y="647"/>
      <point x="819" y="573"/>
      <point x="819" y="421" type="curve" smooth="yes"/>
      <point x="819" y="266"/>
      <point x="730" y="173"/>
      <point x="494" y="173" type="curve" smooth="yes"/>
      <point x="368" y="173"/>
      <point x="204" y="206"/>
      <point x="72" y="267" type="curve"/>
      <point x="72" y="58" type="line"/>
      <point x="197" y="3"/>
      <point x="346" y="-20"/>
      <point x="510" y="-20" type="curve" smooth="yes"/>
      <point x="932" y="-20"/>
      <point x="1127" y="162"/>
      <point x="1127" y="416" type="curve" smooth="yes"/>
      <point x="1127" y="672"/>
      <point x="936" y="809"/>
      <point x="619" y="822" type="curve"/>
      <point x="1054" y="1262" type="line"/>
      <point x="1054" y="1428" type="line"/>
    </contour>
    <contour>
      <point x="733" y="1559" type="line"/>
      <point x="789" y="1650"/>
      <point x="912" y="1779"/>
      <point x="983" y="1853" type="curve"/>
      <point x="983" y="1879" type="line"/>
      <point x="788" y="1879" type="line"/>
      <point x="718" y="1835"/>
      <point x="653" y="1774"/>
      <point x="582" y="1706" type="curve"/>
      <point x="514" y="1774"/>
      <point x="452" y="1834"/>
      <point x="382" y="1879" type="curve"/>
      <point x="186" y="1879" type="line"/>
      <point x="186" y="1853" type="line"/>
      <point x="260" y="1778"/>
      <point x="379" y="1650"/>
      <point x="435" y="1559" type="curve"/>
    </contour>
  </outline>
</glyph>
<glyph name="DZ" format="2">
  <advance width="2845"/>
  <unicode hex="01F1"/>
  <anchor x="2044" y="0" name="bottom"/>
  <anchor x="2037" y="1428" name="top"/>
  <outline>
    <contour>
      <point x="1338" y="733" type="curve" smooth="yes"/>
      <point x="1338" y="1186"/>
      <point x="1073" y="1428"/>
      <point x="626" y="1428" type="curve" smooth="yes"/>
      <point x="154" y="1428" type="line"/>
      <point x="154" y="0" type="line"/>
      <point x="589" y="0" type="line" smooth="yes"/>
      <point x="1050" y="0"/>
      <point x="1338" y="246"/>
    </contour>
    <contour>
      <point x="1026" y="725" type="curve" smooth="yes"/>
      <point x="1026" y="374"/>
      <point x="883" y="200"/>
      <point x="585" y="200" type="curve" smooth="yes"/>
      <point x="453" y="200" type="line"/>
      <point x="453" y="1228" type="line"/>
      <point x="617" y="1228" type="line" smooth="yes"/>
      <point x="884" y="1228"/>
      <point x="1026" y="1073"/>
    </contour>
    <contour>
      <point x="2555" y="200" type="line"/>
      <point x="1863" y="200" type="line"/>
      <point x="2538" y="1262" type="line"/>
      <point x="2538" y="1428" type="line"/>
      <point x="1513" y="1428" type="line"/>
      <point x="1513" y="1228" type="line"/>
      <point x="2170" y="1228" type="line"/>
      <point x="1495" y="166" type="line"/>
      <point x="1495" y="0" type="line"/>
      <point x="2555" y="0" type="line"/>
    </contour>
  </outline>
</glyph>
<glyph name="Dz" format="2">
  <advance width="2776"/>
  <unicode hex="01F2"/>
  <anchor x="1949" y="0" name="bottom"/>
  <anchor x="1942" y="1086" name="top"/>
  <outline>
    <contour>
      <point x="1339" y="735" type="curve" smooth="yes"/>
      <point x="1339" y="1184"/>
      <point x="1075" y="1428"/>
      <point x="627" y="1428" type="curve" smooth="yes"/>
      <point x="154" y="1428" type="line"/>
      <point x="154" y="0" type="line"/>
      <point x="591" y="0" type="line" smooth="yes"/>
      <point x="1051" y="0"/>
      <point x="1339" y="246"/>
    </contour>
    <contour>
      <point x="1023" y="726" type="curve" smooth="yes"/>
      <point x="1023" y="389"/>
      <point x="882" y="221"/>
      <point x="587" y="221" type="curve" smooth="yes"/>
      <point x="458" y="221" type="line"/>
      <point x="458" y="1207" type="line"/>
      <point x="619" y="1207" type="line" smooth="yes"/>
      <point x="882" y="1207"/>
      <point x="1023" y="1057"/>
    </contour>
    <contour>
      <point x="2373" y="200" type="line"/>
      <point x="1864" y="200" type="line"/>
      <point x="2354" y="912" type="line"/>
      <point x="2354" y="1086" type="line"/>
      <point x="1538" y="1086" type="line"/>
      <point x="1538" y="886" type="line"/>
      <point x="2014" y="886" type="line"/>
      <point x="1509" y="158" type="line"/>
      <point x="1509" y="0" type="line"/>
      <point x="2373" y="0" type="line"/>
    </contour>
  </outline>
</glyph>
<glyph name="yogh" format="2">
  <advance width="1086"/>
  <unicode hex="021D"/>
  <anchor x="487" y="-355" name="bottom"/>
  <anchor x="465" y="1086" name="top"/>
  <outline>
    <contour>
      <point x="42" y="-480" type="line"/>
      <point x="576" y="-378"/>
      <point x="955" y="-230"/>
      <point x="955" y="134" type="curve" smooth="yes"/>
      <point x="955" y="303"/>
      <point x="877" y="402"/>
      <point x="759" y="464" type="curve"/>
      <point x="859" y="536"/>
      <point x="919" y="630"/>
      <point x="919" y="751" type="curve" smooth="yes"/>
      <point x="919" y="989"/>
      <point x="745" y="1104"/>
      <point x="462" y="1104" type="curve" smooth="yes"/>
      <point x="312" y="1104"/>
      <point x="177" y="1076"/>
      <point x="40" y="1009" type="curve"/>
      <point x="128" y="822" type="line"/>
      <point x="222" y="868"/>
      <point x="332" y="896"/>
      <point x="450" y="896" type="curve" smooth="yes"/>
      <point x="568" y="896"/>
      <point x="635" y="844"/>
      <point x="635" y="740" type="curve" smooth="yes"/>
      <point x="635" y="628"/>
      <point x="549" y="557"/>
      <point x="226" y="473" type="curve"/>
      <point x="279" y="285" type="line"/>
      <point x="373" y="308"/>
      <point x="463" y="333"/>
      <point x="544" y="364" type="curve"/>
      <point x="613" y="314"/>
      <point x="649" y="252"/>
      <point x="649" y="142" type="curve" smooth="yes"/>
      <point x="649" y="-56"/>
      <point x="471" y="-171"/>
      <point x="42" y="-255" type="curve"/>
    </contour>
  </outline>
</glyph>
<glyph name="OU" format="2">
  <advance width="1653"/>
  <unicode hex="0222"/>
  <anchor x="750" y="0" name="bottom"/>
  <anchor x="750" y="1428" name="top"/>
  <outline>
    <contour>
      <point x="747" y="-20" type="curve" smooth="yes"/>
      <point x="1182" y="-20"/>
      <point x="1399" y="167"/>
      <point x="1398" y="479" type="curve"/>
      <point x="1398" y="683"/>
      <point x="1309" y="818"/>
      <point x="1122" y="883" type="curve"/>
      <point x="1283" y="956"/>
      <point x="1330" y="1091"/>
      <point x="1330" y="1268" type="curve" smooth="yes"/>
      <point x="1330" y="1426" type="line"/>
      <point x="1024" y="1426" type="line"/>
      <point x="1024" y="1267" type="line" smooth="yes"/>
      <point x="1024" y="1101"/>
      <point x="945" y="976"/>
      <point x="752" y="976" type="curve" smooth="yes"/>
      <point x="556" y="976"/>
      <point x="475" y="1100"/>
      <point x="475" y="1268" type="curve" smooth="yes"/>
      <point x="475" y="1426" type="line"/>
      <point x="168" y="1426" type="line"/>
      <point x="168" y="1268" type="line" smooth="yes"/>
      <point x="168" y="1091"/>
      <point x="213" y="956"/>
      <point x="379" y="884" type="curve"/>
      <point x="183" y="819"/>
      <point x="100" y="681"/>
      <point x="100" y="478" type="curve" smooth="yes"/>
      <point x="100" y="167"/>
      <point x="314" y="-20"/>
    </contour>
    <contour>
      <point x="748" y="180" type="curve" smooth="yes"/>
      <point x="511" y="180"/>
      <point x="424" y="294"/>
      <point x="424" y="480" type="curve" smooth="yes"/>
      <point x="424" y="668"/>
      <point x="516" y="776"/>
      <point x="751" y="776" type="curve" smooth="yes"/>
      <point x="986" y="776"/>
      <point x="1074" y="667"/>
      <point x="1074" y="481" type="curve" smooth="yes"/>
      <point x="1074" y="294"/>
      <point x="987" y="180"/>
    </contour>
  </outline>
</glyph>
<glyph name="ou" format="2">
  <advance width="1332"/>
  <unicode hex="0223"/>
  <anchor x="614" y="0" name="bottom"/>
  <anchor x="614" y="1520" name="top"/>
  <outline>
    <contour>
      <point x="609" y="-20" type="curve" smooth="yes"/>
      <point x="927" y="-20"/>
      <point x="1155" y="166"/>
      <point x="1154" y="495" type="curve"/>
      <point x="1154" y="699"/>
      <point x="1065" y="835"/>
      <point x="894" y="906" type="curve"/>
      <point x="1046" y="969"/>
      <point x="1092" y="1097"/>
      <point x="1092" y="1294" type="curve" smooth="yes"/>
      <point x="1092" y="1520" type="line"/>
      <point x="787" y="1520" type="line"/>
      <point x="787" y="1296" type="line" smooth="yes"/>
      <point x="787" y="1105"/>
      <point x="744" y="1013"/>
      <point x="616" y="1013" type="curve" smooth="yes"/>
      <point x="485" y="1013"/>
      <point x="441" y="1107"/>
      <point x="441" y="1299" type="curve" smooth="yes"/>
      <point x="441" y="1520" type="line"/>
      <point x="137" y="1520" type="line"/>
      <point x="137" y="1296" type="line" smooth="yes"/>
      <point x="137" y="1098"/>
      <point x="176" y="971"/>
      <point x="331" y="907" type="curve"/>
      <point x="150" y="834"/>
      <point x="74" y="698"/>
      <point x="74" y="492" type="curve" smooth="yes"/>
      <point x="74" y="165"/>
      <point x="312" y="-20"/>
    </contour>
    <contour>
      <point x="614" y="192" type="curve" smooth="yes"/>
      <point x="454" y="192"/>
      <point x="385" y="304"/>
      <point x="385" y="497" type="curve" smooth="yes"/>
      <point x="385" y="691"/>
      <point x="455" y="801"/>
      <point x="615" y="801" type="curve" smooth="yes"/>
      <point x="774" y="801"/>
      <point x="844" y="689"/>
      <point x="844" y="497" type="curve" smooth="yes"/>
      <point x="844" y="305"/>
      <point x="767" y="192"/>
    </contour>
  </outline>
</glyph>
<glyph name="zhook" format="2">
  <advance width="1210"/>
  <unicode hex="0225"/>
  <anchor x="474" y="-441" name="bottom"/>
  <anchor x="474" y="1086" name="top"/>
  <outline>
    <contour>
      <point x="70" y="1086" type="line"/>
      <point x="70" y="886" type="line"/>
      <point x="542" y="886" type="line"/>
      <point x="42" y="162" type="line"/>
      <point x="42" y="0" type="line"/>
      <point x="646" y="0" type="line"/>
      <point x="646" y="-121" type="line" smooth="yes"/>
      <point x="646" y="-201"/>
      <point x="613" y="-230"/>
      <point x="548" y="-230" type="curve" smooth="yes"/>
      <point x="509" y="-230"/>
      <point x="472" y="-220"/>
      <point x="447" y="-212" type="curve"/>
      <point x="447" y="-404" type="line"/>
      <point x="488" y="-417"/>
      <point x="544" y="-430"/>
      <point x="609" y="-430" type="curve" smooth="yes"/>
      <point x="802" y="-430"/>
      <point x="902" y="-329"/>
      <point x="902" y="-116" type="curve" smooth="yes"/>
      <point x="902" y="200" type="line"/>
      <point x="397" y="200" type="line"/>
      <point x="880" y="904" type="line"/>
      <point x="880" y="1086" type="line"/>
    </contour>
  </outline>
</glyph>
<glyph name="ncurl" format="2">
  <advance width="2028"/>
  <unicode hex="0235"/>
  <anchor x="763" y="0" name="bottom"/>
  <anchor x="763" y="1086" name="top"/>
  <outline>
    <contour>
      <point x="890" y="-73" type="line"/>
      <point x="909" y="-21"/>
      <point x="938" y="37"/>
      <point x="961" y="76" type="curve"/>
      <point x="1008" y="20"/>
      <point x="1088" y="-20"/>
      <point x="1208" y="-20" type="curve" smooth="yes"/>
      <point x="1438" y="-20"/>
      <point x="1545" y="88"/>
      <point x="1545" y="247" type="curve" smooth="yes"/>
      <point x="1545" y="384"/>
      <point x="1450" y="492"/>
      <point x="1273" y="492" type="curve" smooth="yes"/>
      <point x="1217" y="492"/>
      <point x="1159" y="480"/>
      <point x="1125" y="463" type="curve"/>
      <point x="1125" y="708" type="line" smooth="yes"/>
      <point x="1125" y="989"/>
      <point x="977" y="1106" name=".hr01"/>
      <point x="749" y="1106" type="curve" smooth="yes"/>
      <point x="628" y="1106"/>
      <point x="502" y="1057"/>
      <point x="436" y="944" type="curve"/>
      <point x="420" y="944" type="line"/>
      <point x="380" y="1086" type="line"/>
      <point x="146" y="1086" type="line"/>
      <point x="146" y="0" type="line"/>
      <point x="450" y="0" type="line"/>
      <point x="450" y="526" type="line" smooth="yes"/>
      <point x="450" y="761"/>
      <point x="494" y="894"/>
      <point x="663" y="894" type="curve" smooth="yes"/>
      <point x="772" y="894"/>
      <point x="822" y="813"/>
      <point x="822" y="658" type="curve" smooth="yes"/>
      <point x="822" y="398" type="line" smooth="yes"/>
      <point x="822" y="334"/>
      <point x="832" y="284"/>
      <point x="850" y="242" type="curve"/>
      <point x="807" y="183"/>
      <point x="763" y="96"/>
      <point x="730" y="-3" type="curve"/>
    </contour>
    <contour>
      <point x="1236" y="151" type="curve" smooth="yes"/>
      <point x="1163" y="151"/>
      <point x="1130" y="202"/>
      <point x="1123" y="281" type="curve"/>
      <point x="1154" y="311"/>
      <point x="1195" y="328"/>
      <point x="1235" y="328" type="curve" smooth="yes"/>
      <point x="1296" y="328"/>
      <point x="1333" y="296"/>
      <point x="1333" y="239" type="curve" smooth="yes"/>
      <point x="1333" y="188"/>
      <point x="1296" y="151"/>
    </contour>
  </outline>
</glyph>
<glyph name="tcurl" format="2">
  <advance width="1352"/>
  <unicode hex="0236"/>
  <anchor x="460" y="0" name="bottom"/>
  <anchor x="460" y="1322" name="top"/>
  <outline>
    <contour>
      <point x="265" y="-73" type="line"/>
      <point x="284" y="-21"/>
      <point x="313" y="37"/>
      <point x="336" y="76" type="curve"/>
      <point x="383" y="20"/>
      <point x="464" y="-20"/>
      <point x="584" y="-20" type="curve" smooth="yes"/>
      <point x="814" y="-20"/>
      <point x="921" y="88"/>
      <point x="921" y="247" type="curve" smooth="yes"/>
      <point x="921" y="384"/>
      <point x="826" y="492"/>
      <point x="649" y="492" type="curve" smooth="yes"/>
      <point x="593" y="492"/>
      <point x="535" y="480"/>
      <point x="501" y="463" type="curve"/>
      <point x="501" y="886" type="line"/>
      <point x="807" y="886" type="line"/>
      <point x="807" y="1086" type="line"/>
      <point x="501" y="1086" type="line"/>
      <point x="501" y="1322" type="line"/>
      <point x="308" y="1322" type="line"/>
      <point x="217" y="1095" type="line"/>
      <point x="56" y="1001" type="line"/>
      <point x="56" y="886" type="line"/>
      <point x="197" y="886" type="line"/>
      <point x="197" y="415" type="line" smooth="yes"/>
      <point x="197" y="345"/>
      <point x="207" y="289"/>
      <point x="225" y="242" type="curve"/>
      <point x="182" y="183"/>
      <point x="138" y="96"/>
      <point x="105" y="-3" type="curve"/>
    </contour>
    <contour>
      <point x="612" y="151" type="curve" smooth="yes"/>
      <point x="539" y="151"/>
      <point x="506" y="202"/>
      <point x="500" y="281" type="curve"/>
      <point x="530" y="311"/>
      <point x="571" y="328"/>
      <point x="611" y="328" type="curve" smooth="yes"/>
      <point x="672" y="328"/>
      <point x="709" y="296"/>
      <point x="709" y="239" type="curve" smooth="yes"/>
      <point x="709" y="188"/>
      <point x="672" y="151"/>
    </contour>
  </outline>
</glyph>
<glyph name="aturned" format="2">
  <advance width="1204"/>
  <unicode hex="0250"/>
  <anchor x="586" y="-18" name="bottom"/>
  <anchor x="586" y="1106" name="top"/>
  <anchor x="1103" y="1106" name="topright"/>
  <outline>
    <contour>
      <point x="549" y="-18" type="curve" smooth="yes"/>
      <point x="725" y="-18"/>
      <point x="874" y="20"/>
      <point x="989" y="77" type="curve"/>
      <point x="901" y="258" type="line"/>
      <point x="801" y="214"/>
      <point x="693" y="176"/>
      <point x="595" y="176" type="curve" smooth="yes"/>
      <point x="490" y="176"/>
      <point x="426" y="227"/>
      <point x="426" y="372" type="curve" smooth="yes"/>
      <point x="426" y="417" type="line"/>
      <point x="610" y="423" type="line" smooth="yes"/>
      <point x="937" y="434"/>
      <point x="1103" y="549"/>
      <point x="1103" y="772" type="curve" smooth="yes"/>
      <point x="1103" y="1000"/>
      <point x="959" y="1106" name=".hr01"/>
      <point x="766" y="1106" type="curve" smooth="yes"/>
      <point x="584" y="1106"/>
      <point x="498" y="1055"/>
      <point x="404" y="937" type="curve"/>
      <point x="396" y="937" type="line"/>
      <point x="338" y="1086" type="line"/>
      <point x="128" y="1086" type="line"/>
      <point x="128" y="358" type="line" smooth="yes"/>
      <point x="128" y="106"/>
      <point x="277" y="-18"/>
    </contour>
    <contour>
      <point x="426" y="575" type="line"/>
      <point x="426" y="667" type="line" smooth="yes"/>
      <point x="426" y="828"/>
      <point x="526" y="912"/>
      <point x="653" y="912" type="curve" smooth="yes"/>
      <point x="739" y="912"/>
      <point x="797" y="866"/>
      <point x="797" y="764" type="curve" smooth="yes"/>
      <point x="797" y="651"/>
      <point x="733" y="588"/>
      <point x="542" y="580" type="curve" smooth="yes"/>
    </contour>
  </outline>
</glyph>
<glyph name="alphaturned-latin" format="2">
  <advance width="1351"/>
  <unicode hex="0252"/>
  <anchor x="629" y="0" name="bottom"/>
  <anchor x="629" y="1086" name="top"/>
  <outline>
    <contour>
      <point x="739" y="1106" type="curve" smooth="yes"/>
      <point x="571" y="1106"/>
      <point x="477" y="1028"/>
      <point x="417" y="938" type="curve"/>
      <point x="406" y="938" type="line"/>
      <point x="358" y="1065"/>
      <point x="280" y="1106"/>
      <point x="145" y="1106" type="curve" smooth="yes"/>
      <point x="101" y="1106"/>
      <point x="28" y="1091"/>
      <point x="8" y="1079" type="curve"/>
      <point x="8" y="884" type="line"/>
      <point x="19" y="888"/>
      <point x="48" y="893"/>
      <point x="67" y="893" type="curve" smooth="yes"/>
      <point x="111" y="893"/>
      <point x="148" y="868"/>
      <point x="148" y="781" type="curve" smooth="yes"/>
      <point x="148" y="0" type="line"/>
      <point x="393" y="0" type="line"/>
      <point x="434" y="130" type="line"/>
      <point x="443" y="130" type="line"/>
      <point x="504" y="48"/>
      <point x="589" y="-20" name=".hr01"/>
      <point x="744" y="-20" type="curve" smooth="yes"/>
      <point x="1000" y="-20"/>
      <point x="1170" y="173"/>
      <point x="1170" y="543" type="curve" smooth="yes"/>
      <point x="1170" y="912"/>
      <point x="1005" y="1106"/>
    </contour>
    <contour>
      <point x="649" y="893" type="curve" smooth="yes"/>
      <point x="791" y="893"/>
      <point x="865" y="774"/>
      <point x="865" y="546" type="curve" smooth="yes"/>
      <point x="865" y="324"/>
      <point x="791" y="193"/>
      <point x="649" y="193" type="curve" smooth="yes"/>
      <point x="490" y="193"/>
      <point x="429" y="311"/>
      <point x="429" y="535" type="curve" smooth="yes"/>
      <point x="429" y="573" type="line" smooth="yes"/>
      <point x="429" y="787"/>
      <point x="499" y="893"/>
    </contour>
  </outline>
</glyph>
<glyph name="bhook" format="2">
  <advance width="1357"/>
  <unicode hex="0253"/>
  <anchor x="627" y="0" name="bottom"/>
  <anchor x="627" y="1532" name="top"/>
  <outline>
    <contour>
      <point x="476" y="1532" type="curve" smooth="yes"/>
      <point x="275" y="1532"/>
      <point x="146" y="1436"/>
      <point x="146" y="1218" type="curve" smooth="yes"/>
      <point x="146" y="0" type="line"/>
      <point x="379" y="0" type="line"/>
      <point x="430" y="123" type="line"/>
      <point x="450" y="123" type="line"/>
      <point x="506" y="50"/>
      <point x="586" y="-20" name=".hr01"/>
      <point x="752" y="-20" type="curve" smooth="yes"/>
      <point x="993" y="-20"/>
      <point x="1172" y="165"/>
      <point x="1172" y="543" type="curve" smooth="yes"/>
      <point x="1172" y="911"/>
      <point x="996" y="1105"/>
      <point x="758" y="1105" type="curve" smooth="yes"/>
      <point x="596" y="1105"/>
      <point x="502" y="1031"/>
      <point x="450" y="946" type="curve"/>
      <point x="437" y="946" type="line"/>
      <point x="442" y="996"/>
      <point x="450" y="1077"/>
      <point x="450" y="1163" type="curve" smooth="yes"/>
      <point x="450" y="1221" type="line"/>
      <point x="453" y="1290"/>
      <point x="478" y="1317"/>
      <point x="527" y="1317" type="curve" smooth="yes"/>
      <point x="577" y="1317"/>
      <point x="622" y="1304"/>
      <point x="640" y="1296" type="curve"/>
      <point x="640" y="1501" type="line"/>
      <point x="612" y="1514"/>
      <point x="546" y="1532"/>
    </contour>
    <contour>
      <point x="663" y="890" type="curve" smooth="yes"/>
      <point x="788" y="890"/>
      <point x="861" y="774"/>
      <point x="861" y="546" type="curve" smooth="yes"/>
      <point x="861" y="317"/>
      <point x="788" y="195"/>
      <point x="668" y="195" type="curve" smooth="yes"/>
      <point x="499" y="195"/>
      <point x="448" y="319"/>
      <point x="450" y="557" type="curve" smooth="yes"/>
      <point x="451" y="787"/>
      <point x="510" y="890"/>
    </contour>
  </outline>
</glyph>
<glyph name="oopen" format="2">
  <advance width="1090"/>
  <unicode hex="0254"/>
  <anchor x="420" y="0" name="bottom"/>
  <anchor x="420" y="1086" name="top"/>
  <outline>
    <contour>
      <point x="417" y="1106" type="curve" smooth="yes"/>
      <point x="264" y="1106"/>
      <point x="136" y="1075"/>
      <point x="58" y="1036" type="curve"/>
      <point x="145" y="827" type="line"/>
      <point x="217" y="864"/>
      <point x="299" y="888"/>
      <point x="380" y="888" type="curve" smooth="yes"/>
      <point x="529" y="888"/>
      <point x="618" y="782"/>
      <point x="618" y="552" type="curve" smooth="yes"/>
      <point x="618" y="316"/>
      <point x="526" y="198"/>
      <point x="381" y="198" type="curve" smooth="yes"/>
      <point x="255" y="198"/>
      <point x="168" y="231"/>
      <point x="81" y="281" type="curve"/>
      <point x="81" y="54" type="line"/>
      <point x="171" y="3"/>
      <point x="256" y="-20"/>
      <point x="400" y="-20" type="curve" smooth="yes"/>
      <point x="711" y="-20"/>
      <point x="927" y="160"/>
      <point x="927" y="556" type="curve" smooth="yes"/>
      <point x="927" y="948"/>
      <point x="724" y="1106"/>
    </contour>
  </outline>
</glyph>
<glyph name="dtail" format="2">
  <advance width="1394"/>
  <unicode hex="0256"/>
  <anchor x="626" y="-480" name="bottom"/>
  <anchor x="626" y="1520" name="top"/>
  <anchor x="1156" y="1520" name="topright"/>
  <outline>
    <contour>
      <point x="1123" y="-480" type="curve" smooth="yes"/>
      <point x="1204" y="-480"/>
      <point x="1272" y="-462"/>
      <point x="1311" y="-444" type="curve"/>
      <point x="1311" y="-247" type="line"/>
      <point x="1279" y="-258"/>
      <point x="1244" y="-267"/>
      <point x="1198" y="-267" type="curve" smooth="yes"/>
      <point x="1138" y="-267"/>
      <point x="1106" y="-233"/>
      <point x="1106" y="-115" type="curve" smooth="yes"/>
      <point x="1106" y="1520" type="line"/>
      <point x="804" y="1520" type="line"/>
      <point x="804" y="1138" type="line" smooth="yes"/>
      <point x="804" y="1079"/>
      <point x="812" y="996"/>
      <point x="818" y="948" type="curve"/>
      <point x="806" y="948" type="line"/>
      <point x="752" y="1031"/>
      <point x="667" y="1106"/>
      <point x="501" y="1106" type="curve" smooth="yes"/>
      <point x="256" y="1106"/>
      <point x="84" y="916"/>
      <point x="84" y="545" type="curve" smooth="yes"/>
      <point x="84" y="173"/>
      <point x="254" y="-20"/>
      <point x="493" y="-20" type="curve" smooth="yes"/>
      <point x="657" y="-20"/>
      <point x="747" y="54"/>
      <point x="802" y="138" type="curve"/>
      <point x="814" y="138" type="line"/>
      <point x="809" y="94"/>
      <point x="802" y="13"/>
      <point x="802" y="-43" type="curve" smooth="yes"/>
      <point x="802" y="-126" type="line" smooth="yes"/>
      <point x="802" y="-372"/>
      <point x="900" y="-480"/>
    </contour>
    <contour>
      <point x="602" y="193" type="curve" smooth="yes"/>
      <point x="467" y="193"/>
      <point x="389" y="314"/>
      <point x="389" y="541" type="curve" smooth="yes"/>
      <point x="389" y="759"/>
      <point x="462" y="893"/>
      <point x="603" y="893" type="curve" smooth="yes"/>
      <point x="770" y="893"/>
      <point x="824" y="771"/>
      <point x="824" y="545" type="curve" smooth="yes"/>
      <point x="824" y="512" type="line" smooth="yes"/>
      <point x="824" y="299"/>
      <point x="759" y="193"/>
    </contour>
  </outline>
</glyph>
<glyph name="gamma-latin" format="2">
  <advance width="1244"/>
  <unicode hex="0263"/>
  <anchor x="575" y="-477" name="bottom"/>
  <anchor x="575" y="1086" name="top"/>
  <outline>
    <contour>
      <point x="559" y="-477" type="curve" smooth="yes"/>
      <point x="746" y="-477"/>
      <point x="858" y="-359"/>
      <point x="858" y="-198" type="curve" smooth="yes"/>
      <point x="858" y="-74"/>
      <point x="811" y="39"/>
      <point x="730" y="194" type="curve"/>
      <point x="1144" y="1086" type="line"/>
      <point x="824" y="1086" type="line"/>
      <point x="647" y="630" type="line" smooth="yes"/>
      <point x="617" y="552"/>
      <point x="589" y="456"/>
      <point x="571" y="382" type="curve"/>
      <point x="564" y="382" type="line"/>
      <point x="546" y="459"/>
      <point x="517" y="560"/>
      <point x="490" y="631" type="curve" smooth="yes"/>
      <point x="320" y="1086" type="line"/>
      <point x="0" y="1086" type="line"/>
      <point x="394" y="198" type="line"/>
      <point x="316" y="48"/>
      <point x="263" y="-60"/>
      <point x="263" y="-196" type="curve" smooth="yes"/>
      <point x="263" y="-365"/>
      <point x="373" y="-477"/>
    </contour>
    <contour>
      <point x="561" y="-290" type="curve" smooth="yes"/>
      <point x="524" y="-290"/>
      <point x="500" y="-258"/>
      <point x="500" y="-185" type="curve" smooth="yes"/>
      <point x="500" y="-140"/>
      <point x="514" y="-50"/>
      <point x="561" y="29" type="curve"/>
      <point x="607" y="-53"/>
      <point x="621" y="-143"/>
      <point x="621" y="-188" type="curve" smooth="yes"/>
      <point x="621" y="-259"/>
      <point x="598" y="-290"/>
    </contour>
  </outline>
</glyph>
<glyph name="Ismall" format="2">
  <advance width="839"/>
  <unicode hex="026A"/>
  <anchor x="361" y="0" name="bottom"/>
  <anchor x="361" y="1086" name="top"/>
  <outline>
    <contour>
      <point x="72" y="1086" type="line"/>
      <point x="72" y="944" type="line"/>
      <point x="223" y="898" type="line"/>
      <point x="223" y="189" type="line"/>
      <point x="72" y="143" type="line"/>
      <point x="72" y="0" type="line"/>
      <point x="659" y="0" type="line"/>
      <point x="659" y="143" type="line"/>
      <point x="508" y="189" type="line"/>
      <point x="508" y="898" type="line"/>
      <point x="659" y="944" type="line"/>
      <point x="659" y="1086" type="line"/>
    </contour>
  </outline>
</glyph>
<glyph name="lmiddletilde" format="2">
  <advance width="1110"/>
  <unicode hex="026B"/>
  <anchor x="486" y="0" name="bottom"/>
  <anchor x="486" y="1520" name="top"/>
  <outline>
    <contour>
      <point x="333" y="-1" type="line"/>
      <point x="638" y="-1" type="line"/>
      <point x="638" y="618" type="line"/>
      <point x="648" y="615"/>
      <point x="659" y="612"/>
      <point x="671" y="612" type="curve" smooth="yes"/>
      <point x="813" y="612"/>
      <point x="913" y="719"/>
      <point x="919" y="900" type="curve"/>
      <point x="772" y="900" type="line"/>
      <point x="757" y="831"/>
      <point x="732" y="796"/>
      <point x="681" y="796" type="curve" smooth="yes"/>
      <point x="667" y="796"/>
      <point x="651" y="801"/>
      <point x="638" y="807" type="curve"/>
      <point x="638" y="1520" type="line"/>
      <point x="333" y="1520" type="line"/>
      <point x="333" y="891" type="line"/>
      <point x="321" y="894" name=".hr01"/>
      <point x="310" y="897"/>
      <point x="298" y="897" type="curve" smooth="yes"/>
      <point x="157" y="897"/>
      <point x="59" y="795"/>
      <point x="52" y="609" type="curve"/>
      <point x="201" y="609" type="line"/>
      <point x="212" y="677"/>
      <point x="240" y="713"/>
      <point x="291" y="713" type="curve" smooth="yes"/>
      <point x="305" y="713"/>
      <point x="317" y="708"/>
      <point x="333" y="702" type="curve"/>
    </contour>
  </outline>
</glyph>
<glyph name="lbelt" format="2">
  <advance width="1111"/>
  <unicode hex="026C"/>
  <anchor x="414" y="0" name="bottom"/>
  <anchor x="414" y="1520" name="top"/>
  <outline>
    <contour>
      <point x="621" y="0" type="line"/>
      <point x="621" y="581" type="line"/>
      <point x="824" y="581" type="line"/>
      <point x="824" y="742" type="line"/>
      <point x="621" y="742" type="line"/>
      <point x="621" y="1520" type="line"/>
      <point x="317" y="1520" type="line"/>
      <point x="317" y="997" type="line"/>
      <point x="289" y="1016"/>
      <point x="252" y="1027"/>
      <point x="216" y="1027" type="curve" smooth="yes"/>
      <point x="61" y="1027"/>
      <point x="-20" y="927"/>
      <point x="-20" y="803" type="curve" smooth="yes"/>
      <point x="-20" y="678"/>
      <point x="55" y="581"/>
      <point x="240" y="581" type="curve" smooth="yes"/>
      <point x="317" y="581" type="line"/>
      <point x="317" y="0" type="line"/>
    </contour>
    <contour>
      <point x="257" y="742" type="line" smooth="yes"/>
      <point x="211" y="742"/>
      <point x="174" y="757"/>
      <point x="174" y="804" type="curve" smooth="yes"/>
      <point x="174" y="839"/>
      <point x="197" y="866"/>
      <point x="242" y="866" type="curve" smooth="yes"/>
      <point x="288" y="866"/>
      <point x="317" y="836"/>
      <point x="317" y="770" type="curve" smooth="yes"/>
      <point x="317" y="742" type="line"/>
    </contour>
  </outline>
</glyph>
<glyph name="mhook" format="2">
  <advance width="1986"/>
  <unicode hex="0271"/>
  <anchor x="982" y="-480" name="bottom"/>
  <anchor x="982" y="1086" name="top"/>
  <anchor x="1858" y="1086" name="topright"/>
  <outline>
    <contour>
      <point x="1442" y="1106" type="curve" smooth="yes"/>
      <point x="1317" y="1106"/>
      <point x="1184" y="1055"/>
      <point x="1115" y="937" type="curve"/>
      <point x="1090" y="937" type="line"/>
      <point x="1030" y="1052"/>
      <point x="917" y="1106"/>
      <point x="757" y="1106" type="curve" smooth="yes"/>
      <point x="631" y="1106"/>
      <point x="504" y="1056"/>
      <point x="436" y="941" type="curve"/>
      <point x="420" y="941" type="line"/>
      <point x="380" y="1086" type="line"/>
      <point x="146" y="1086" type="line"/>
      <point x="146" y="-1" type="line"/>
      <point x="450" y="-1" type="line"/>
      <point x="450" y="523" type="line" smooth="yes"/>
      <point x="450" y="755"/>
      <point x="497" y="890"/>
      <point x="668" y="890" type="curve" smooth="yes"/>
      <point x="781" y="890"/>
      <point x="832" y="808"/>
      <point x="832" y="650" type="curve" smooth="yes"/>
      <point x="832" y="-1" type="line"/>
      <point x="1134" y="-1" type="line"/>
      <point x="1134" y="557" type="line" smooth="yes"/>
      <point x="1134" y="769"/>
      <point x="1192" y="890"/>
      <point x="1353" y="890" type="curve" smooth="yes"/>
      <point x="1465" y="890"/>
      <point x="1517" y="808"/>
      <point x="1517" y="655" type="curve" smooth="yes"/>
      <point x="1517" y="-137" type="line" smooth="yes"/>
      <point x="1517" y="-237"/>
      <point x="1470" y="-264"/>
      <point x="1416" y="-264" type="curve" smooth="yes"/>
      <point x="1373" y="-264"/>
      <point x="1340" y="-254"/>
      <point x="1307" y="-244" type="curve"/>
      <point x="1307" y="-454" type="line"/>
      <point x="1346" y="-466"/>
      <point x="1421" y="-480"/>
      <point x="1484" y="-480" type="curve" smooth="yes"/>
      <point x="1726" y="-480"/>
      <point x="1820" y="-348"/>
      <point x="1820" y="-157" type="curve" smooth="yes"/>
      <point x="1820" y="705" type="line" smooth="yes"/>
      <point x="1820" y="985"/>
      <point x="1692" y="1106"/>
    </contour>
  </outline>
</glyph>
<glyph name="omegaclosed-latin" format="2">
  <advance width="1656"/>
  <unicode hex="0277"/>
  <anchor x="810" y="0" name="bottom"/>
  <anchor x="810" y="1086" name="top"/>
  <outline>
    <contour>
      <point x="814" y="1104" type="curve" smooth="yes"/>
      <point x="343" y="1104"/>
      <point x="76" y="848"/>
      <point x="76" y="466" type="curve" smooth="yes"/>
      <point x="76" y="173"/>
      <point x="228" y="-20"/>
      <point x="489" y="-20" type="curve" smooth="yes"/>
      <point x="668" y="-20"/>
      <point x="759" y="58"/>
      <point x="802" y="175" type="curve"/>
      <point x="814" y="175" type="line"/>
      <point x="854" y="62"/>
      <point x="944" y="-20"/>
      <point x="1124" y="-20" type="curve" smooth="yes"/>
      <point x="1394" y="-20"/>
      <point x="1541" y="173"/>
      <point x="1541" y="466" type="curve" smooth="yes"/>
      <point x="1541" y="849"/>
      <point x="1291" y="1104"/>
    </contour>
    <contour>
      <point x="809" y="890" type="curve" smooth="yes"/>
      <point x="1124" y="890"/>
      <point x="1254" y="716"/>
      <point x="1254" y="465" type="curve" smooth="yes"/>
      <point x="1254" y="290"/>
      <point x="1194" y="194"/>
      <point x="1091" y="194" type="curve" smooth="yes"/>
      <point x="982" y="194"/>
      <point x="945" y="279"/>
      <point x="945" y="414" type="curve" smooth="yes"/>
      <point x="945" y="649" type="line"/>
      <point x="671" y="649" type="line"/>
      <point x="671" y="417" type="line" smooth="yes"/>
      <point x="671" y="288"/>
      <point x="637" y="194"/>
      <point x="522" y="194" type="curve" smooth="yes"/>
      <point x="422" y="194"/>
      <point x="363" y="290"/>
      <point x="363" y="468" type="curve" smooth="yes"/>
      <point x="363" y="717"/>
      <point x="492" y="890"/>
    </contour>
  </outline>
</glyph>
<glyph name="rturned" format="2">
  <advance width="931"/>
  <unicode hex="0279"/>
  <anchor x="444" y="-20" name="bottom"/>
  <anchor x="444" y="1086" name="top"/>
  <anchor x="743" y="1086" name="topright"/>
  <outline>
    <contour>
      <point x="142" y="-20" type="curve" smooth="yes"/>
      <point x="277" y="-20"/>
      <point x="393" y="74"/>
      <point x="456" y="188" type="curve"/>
      <point x="470" y="188" type="line"/>
      <point x="515" y="0" type="line" name=".hr01"/>
      <point x="743" y="0" type="line"/>
      <point x="743" y="1086" type="line"/>
      <point x="443" y="1086" type="line"/>
      <point x="443" y="526" type="line" smooth="yes"/>
      <point x="443" y="316"/>
      <point x="299" y="223"/>
      <point x="175" y="223" type="curve" smooth="yes"/>
      <point x="119" y="223"/>
      <point x="80" y="229"/>
      <point x="51" y="236" type="curve"/>
      <point x="22" y="-8" type="line"/>
      <point x="49" y="-14"/>
      <point x="100" y="-20" name=".hr02"/>
    </contour>
  </outline>
</glyph>
<glyph name="rhookturned" format="2">
  <advance width="931"/>
  <unicode hex="027B"/>
  <anchor x="462" y="-480" name="bottom"/>
  <anchor x="462" y="1086" name="top"/>
  <outline>
    <contour>
      <point x="779" y="-480" type="curve" smooth="yes"/>
      <point x="858" y="-480"/>
      <point x="931" y="-467"/>
      <point x="973" y="-446" type="curve"/>
      <point x="973" y="-247" type="line"/>
      <point x="939" y="-258"/>
      <point x="907" y="-269"/>
      <point x="857" y="-269" type="curve" smooth="yes"/>
      <point x="792" y="-269"/>
      <point x="760" y="-230"/>
      <point x="760" y="-115" type="curve" smooth="yes"/>
      <point x="760" y="1086" type="line"/>
      <point x="457" y="1086" type="line"/>
      <point x="457" y="526" type="line" smooth="yes"/>
      <point x="457" y="316"/>
      <point x="299" y="223"/>
      <point x="165" y="223" type="curve" smooth="yes"/>
      <point x="128" y="223"/>
      <point x="85" y="229"/>
      <point x="67" y="235" type="curve"/>
      <point x="44" y="-10" type="line"/>
      <point x="65" y="-16"/>
      <point x="112" y="-20"/>
      <point x="142" y="-20" type="curve" smooth="yes"/>
      <point x="286" y="-20"/>
      <point x="395" y="74"/>
      <point x="459" y="183" type="curve"/>
      <point x="470" y="183" type="line"/>
      <point x="462" y="140"/>
      <point x="457" y="69"/>
      <point x="457" y="-6" type="curve" smooth="yes"/>
      <point x="457" y="-120" type="line" smooth="yes"/>
      <point x="457" y="-371"/>
      <point x="555" y="-480"/>
    </contour>
  </outline>
</glyph>
<glyph name="rfishhook" format="2">
  <advance width="870"/>
  <unicode hex="027E"/>
  <anchor x="387" y="0" name="bottom"/>
  <anchor x="387" y="1086" name="top"/>
  <outline>
    <contour>
      <point x="512" y="1109" type="curve" smooth="yes"/>
      <point x="277" y="1109"/>
      <point x="142" y="1011"/>
      <point x="142" y="737" type="curve" smooth="yes"/>
      <point x="142" y="0" type="line"/>
      <point x="446" y="0" type="line"/>
      <point x="446" y="728" type="line" smooth="yes"/>
      <point x="446" y="823"/>
      <point x="475" y="884"/>
      <point x="572" y="884" type="curve" smooth="yes"/>
      <point x="628" y="884"/>
      <point x="665" y="870"/>
      <point x="703" y="860" type="curve"/>
      <point x="738" y="1077" type="line"/>
      <point x="667" y="1095"/>
      <point x="598" y="1109"/>
    </contour>
  </outline>
</glyph>
<glyph name="esh" format="2">
  <advance width="882"/>
  <unicode hex="0283"/>
  <anchor x="316" y="-480" name="bottom"/>
  <anchor x="316" y="1535" name="top"/>
  <outline>
    <contour>
      <point x="500" y="1535" type="curve" smooth="yes"/>
      <point x="291" y="1535"/>
      <point x="165" y="1449"/>
      <point x="165" y="1187" type="curve" smooth="yes"/>
      <point x="165" y="-125" type="line" smooth="yes"/>
      <point x="165" y="-235"/>
      <point x="128" y="-269"/>
      <point x="66" y="-269" type="curve" smooth="yes"/>
      <point x="26" y="-269"/>
      <point x="-7" y="-259"/>
      <point x="-40" y="-248" type="curve"/>
      <point x="-40" y="-446" type="line"/>
      <point x="0" y="-468"/>
      <point x="69" y="-480"/>
      <point x="134" y="-480" type="curve" smooth="yes"/>
      <point x="369" y="-480"/>
      <point x="469" y="-362"/>
      <point x="469" y="-125" type="curve" smooth="yes"/>
      <point x="469" y="1179" type="line" smooth="yes"/>
      <point x="469" y="1291"/>
      <point x="507" y="1324"/>
      <point x="567" y="1324" type="curve" smooth="yes"/>
      <point x="613" y="1324"/>
      <point x="659" y="1311"/>
      <point x="679" y="1302" type="curve"/>
      <point x="679" y="1500" type="line"/>
      <point x="651" y="1516"/>
      <point x="581" y="1535"/>
    </contour>
  </outline>
</glyph>
<glyph name="eshcurl" format="2">
  <advance width="1169"/>
  <unicode hex="0286"/>
  <anchor x="324" y="-480" name="bottom"/>
  <anchor x="324" y="1535" name="top"/>
  <outline>
    <contour>
      <point x="120" y="-480" type="curve" smooth="yes"/>
      <point x="333" y="-480"/>
      <point x="457" y="-382"/>
      <point x="474" y="-150" type="curve"/>
      <point x="613" y="-150" type="line"/>
      <point x="613" y="17" type="line"/>
      <point x="475" y="17" type="line"/>
      <point x="475" y="1180" type="line" smooth="yes"/>
      <point x="475" y="1292"/>
      <point x="513" y="1324"/>
      <point x="573" y="1324" type="curve" smooth="yes"/>
      <point x="619" y="1324"/>
      <point x="665" y="1311"/>
      <point x="685" y="1302" type="curve"/>
      <point x="685" y="1500" type="line"/>
      <point x="657" y="1516"/>
      <point x="587" y="1535"/>
      <point x="506" y="1535" type="curve" smooth="yes"/>
      <point x="297" y="1535"/>
      <point x="171" y="1449"/>
      <point x="171" y="1188" type="curve" smooth="yes"/>
      <point x="171" y="17" type="line"/>
      <point x="116" y="17" type="line" smooth="yes"/>
      <point x="-95" y="17"/>
      <point x="-180" y="-85"/>
      <point x="-180" y="-234" type="curve" smooth="yes"/>
      <point x="-180" y="-371"/>
      <point x="-80" y="-480"/>
    </contour>
    <contour>
      <point x="87" y="-313" type="curve" smooth="yes"/>
      <point x="38" y="-313"/>
      <point x="14" y="-278"/>
      <point x="14" y="-234" type="curve" smooth="yes"/>
      <point x="14" y="-174"/>
      <point x="55" y="-150"/>
      <point x="122" y="-150" type="curve" smooth="yes"/>
      <point x="171" y="-150" type="line"/>
      <point x="171" y="-187" type="line" smooth="yes"/>
      <point x="171" y="-273"/>
      <point x="142" y="-313"/>
    </contour>
  </outline>
</glyph>
<glyph name="tretroflexhook" format="2">
  <advance width="830"/>
  <unicode hex="0288"/>
  <anchor x="462" y="-480" name="bottom"/>
  <anchor x="423" y="1322" name="top"/>
  <anchor x="783" y="1323" name="topright"/>
  <outline>
    <contour>
      <point x="634" y="-269" type="curve" smooth="yes"/>
      <point x="559" y="-269"/>
      <point x="501" y="-223"/>
      <point x="501" y="-126" type="curve" smooth="yes"/>
      <point x="501" y="886" type="line"/>
      <point x="807" y="886" type="line"/>
      <point x="807" y="1086" type="line"/>
      <point x="501" y="1086" type="line"/>
      <point x="501" y="1322" type="line"/>
      <point x="308" y="1322" type="line"/>
      <point x="217" y="1095" type="line"/>
      <point x="56" y="1001" type="line"/>
      <point x="56" y="886" type="line"/>
      <point x="197" y="886" type="line"/>
      <point x="197" y="-126" type="line" smooth="yes"/>
      <point x="197" y="-408"/>
      <point x="360" y="-480"/>
      <point x="547" y="-480" type="curve" smooth="yes"/>
      <point x="653" y="-480"/>
      <point x="755" y="-460"/>
      <point x="814" y="-435" type="curve"/>
      <point x="814" y="-239" type="line"/>
      <point x="758" y="-256"/>
      <point x="694" y="-269"/>
    </contour>
  </outline>
</glyph>
<glyph name="ubar" format="2">
  <advance width="1419"/>
  <unicode hex="0289"/>
  <anchor x="623" y="0" name="bottom"/>
  <anchor x="642" y="1086" name="top"/>
  <outline>
    <contour>
      <point x="1292" y="489" type="line"/>
      <point x="1292" y="675" type="line"/>
      <point x="0" y="675" type="line"/>
      <point x="0" y="489" type="line"/>
    </contour>
    <contour>
      <point x="844" y="1086" type="line"/>
      <point x="844" y="559" type="line" smooth="yes"/>
      <point x="844" y="321"/>
      <point x="790" y="190"/>
      <point x="609" y="190" type="curve" smooth="yes"/>
      <point x="488" y="190"/>
      <point x="434" y="271"/>
      <point x="434" y="432" type="curve" smooth="yes"/>
      <point x="434" y="1086" type="line"/>
      <point x="134" y="1086" type="line"/>
      <point x="134" y="377" type="line" smooth="yes"/>
      <point x="134" y="100"/>
      <point x="287" y="-20"/>
      <point x="521" y="-20" type="curve" smooth="yes"/>
      <point x="658" y="-20"/>
      <point x="788" y="29"/>
      <point x="858" y="141" type="curve"/>
      <point x="874" y="141" type="line"/>
      <point x="913" y="0" type="line" name=".hr01"/>
      <point x="1144" y="0" type="line"/>
      <point x="1144" y="1086" type="line"/>
    </contour>
  </outline>
</glyph>
<glyph name="vhook" format="2">
  <advance width="1391"/>
  <unicode hex="028B"/>
  <anchor x="659" y="0" name="bottom"/>
  <anchor x="659" y="1086" name="top"/>
  <outline>
    <contour>
      <point x="870" y="1104" type="curve" smooth="yes"/>
      <point x="812" y="1104"/>
      <point x="728" y="1094"/>
      <point x="680" y="1077" type="curve"/>
      <point x="680" y="869" type="line"/>
      <point x="719" y="882"/>
      <point x="750" y="890"/>
      <point x="795" y="890" type="curve" smooth="yes"/>
      <point x="865" y="890"/>
      <point x="897" y="850"/>
      <point x="897" y="747" type="curve" smooth="yes"/>
      <point x="897" y="499" type="line" smooth="yes"/>
      <point x="897" y="277"/>
      <point x="832" y="194"/>
      <point x="681" y="194" type="curve" smooth="yes"/>
      <point x="513" y="194"/>
      <point x="447" y="274"/>
      <point x="447" y="499" type="curve" smooth="yes"/>
      <point x="447" y="1086" type="line"/>
      <point x="142" y="1086" type="line"/>
      <point x="142" y="502" type="line" smooth="yes"/>
      <point x="142" y="183"/>
      <point x="256" y="-20"/>
      <point x="670" y="-20" type="curve" smooth="yes"/>
      <point x="1074" y="-20"/>
      <point x="1201" y="190"/>
      <point x="1201" y="502" type="curve" smooth="yes"/>
      <point x="1201" y="753" type="line" smooth="yes"/>
      <point x="1201" y="991"/>
      <point x="1108" y="1104"/>
    </contour>
  </outline>
</glyph>
<glyph name="wturned" format="2">
  <advance width="1767"/>
  <unicode hex="028D"/>
  <anchor x="861" y="-1" name="bottom"/>
  <anchor x="861" y="1085" name="top"/>
  <anchor x="1699" y="1085" name="topright"/>
  <outline>
    <contour>
      <point x="653" y="1085" type="line"/>
      <point x="325" y="1085" type="line"/>
      <point x="24" y="-1" type="line"/>
      <point x="317" y="-1" type="line"/>
      <point x="436" y="511" type="line" smooth="yes"/>
      <point x="461" y="618"/>
      <point x="486" y="764"/>
      <point x="494" y="847" type="curve"/>
      <point x="501" y="847" type="line"/>
      <point x="511" y="760"/>
      <point x="543" y="626"/>
      <point x="563" y="541" type="curve" smooth="yes"/>
      <point x="693" y="-1" type="line"/>
      <point x="1024" y="-1" type="line"/>
      <point x="1161" y="538" type="line" smooth="yes"/>
      <point x="1178" y="606"/>
      <point x="1213" y="766"/>
      <point x="1222" y="849" type="curve"/>
      <point x="1229" y="849" type="line"/>
      <point x="1236" y="760"/>
      <point x="1263" y="618"/>
      <point x="1287" y="511" type="curve" smooth="yes"/>
      <point x="1400" y="-1" type="line"/>
      <point x="1699" y="-1" type="line"/>
      <point x="1400" y="1085" type="line"/>
      <point x="1078" y="1085" type="line"/>
      <point x="934" y="537" type="line" smooth="yes"/>
      <point x="905" y="425"/>
      <point x="876" y="288"/>
      <point x="867" y="228" type="curve"/>
      <point x="860" y="228" type="line"/>
      <point x="851" y="288"/>
      <point x="823" y="425"/>
      <point x="796" y="530" type="curve" smooth="yes"/>
    </contour>
  </outline>
</glyph>
<glyph name="Ysmall" format="2">
  <advance width="1096"/>
  <unicode hex="028F"/>
  <anchor x="577" y="0" name="bottom"/>
  <anchor x="577" y="1086" name="top"/>
  <outline>
    <contour>
      <point x="763" y="1086" type="line"/>
      <point x="557" y="652" type="line"/>
      <point x="350" y="1086" type="line"/>
      <point x="38" y="1086" type="line"/>
      <point x="413" y="434" type="line"/>
      <point x="413" y="0" type="line"/>
      <point x="699" y="0" type="line"/>
      <point x="699" y="439" type="line"/>
      <point x="1073" y="1086" type="line"/>
    </contour>
  </outline>
</glyph>
<glyph name="zretroflexhook" format="2">
  <advance width="1223"/>
  <unicode hex="0290"/>
  <anchor x="474" y="-480" name="bottom"/>
  <anchor x="474" y="1086" name="top"/>
  <outline>
    <contour>
      <point x="931" y="-480" type="curve" smooth="yes"/>
      <point x="998" y="-480"/>
      <point x="1064" y="-467"/>
      <point x="1107" y="-449" type="curve"/>
      <point x="1107" y="-261" type="line"/>
      <point x="1081" y="-270"/>
      <point x="1043" y="-280"/>
      <point x="1006" y="-280" type="curve" smooth="yes"/>
      <point x="938" y="-280"/>
      <point x="902" y="-250"/>
      <point x="902" y="-125" type="curve" smooth="yes"/>
      <point x="902" y="200" type="line"/>
      <point x="397" y="200" type="line"/>
      <point x="880" y="904" type="line"/>
      <point x="880" y="1086" type="line"/>
      <point x="70" y="1086" type="line"/>
      <point x="70" y="886" type="line"/>
      <point x="542" y="886" type="line"/>
      <point x="42" y="162" type="line"/>
      <point x="42" y="0" type="line"/>
      <point x="643" y="0" type="line"/>
      <point x="643" y="-135" type="line" smooth="yes"/>
      <point x="643" y="-395"/>
      <point x="763" y="-480"/>
    </contour>
  </outline>
</glyph>
<glyph name="zcurl" format="2">
  <advance width="1471"/>
  <unicode hex="0291"/>
  <anchor x="576" y="-174" name="bottom"/>
  <anchor x="576" y="1086" name="top"/>
  <outline>
    <contour>
      <point x="529" y="-174" type="line"/>
      <point x="555" y="-108"/>
      <point x="576" y="-53"/>
      <point x="601" y="0" type="curve"/>
      <point x="748" y="0" type="line" smooth="yes"/>
      <point x="980" y="0"/>
      <point x="1145" y="89"/>
      <point x="1145" y="277" type="curve" smooth="yes"/>
      <point x="1145" y="406"/>
      <point x="1052" y="504"/>
      <point x="891" y="504" type="curve" smooth="yes"/>
      <point x="721" y="504"/>
      <point x="607" y="401"/>
      <point x="509" y="200" type="curve"/>
      <point x="393" y="200" type="line"/>
      <point x="888" y="913" type="line"/>
      <point x="888" y="1086" type="line"/>
      <point x="70" y="1086" type="line"/>
      <point x="70" y="886" type="line"/>
      <point x="542" y="886" type="line"/>
      <point x="42" y="162" type="line"/>
      <point x="42" y="0" type="line"/>
      <point x="408" y="0" type="line"/>
      <point x="394" y="-33"/>
      <point x="376" y="-73"/>
      <point x="360" y="-113" type="curve"/>
    </contour>
    <contour>
      <point x="714" y="200" type="line"/>
      <point x="755" y="298"/>
      <point x="807" y="346"/>
      <point x="869" y="346" type="curve" smooth="yes"/>
      <point x="916" y="346"/>
      <point x="936" y="316"/>
      <point x="936" y="284" type="curve" smooth="yes"/>
      <point x="936" y="235"/>
      <point x="896" y="200"/>
      <point x="819" y="200" type="curve" smooth="yes"/>
    </contour>
  </outline>
</glyph>
<glyph name="ezh" format="2">
  <advance width="1086"/>
  <unicode hex="0292"/>
  <anchor x="561" y="-480" name="bottom"/>
  <anchor x="561" y="1086" name="top"/>
  <outline>
    <contour>
      <point x="67" y="1086" type="line"/>
      <point x="67" y="875" type="line"/>
      <point x="628" y="875" type="line"/>
      <point x="241" y="466" type="line"/>
      <point x="241" y="294" type="line"/>
      <point x="367" y="294" type="line" smooth="yes"/>
      <point x="652" y="294"/>
      <point x="747" y="196"/>
      <point x="747" y="16" type="curve" smooth="yes"/>
      <point x="747" y="-155"/>
      <point x="646" y="-269"/>
      <point x="439" y="-269" type="curve" smooth="yes"/>
      <point x="281" y="-269"/>
      <point x="132" y="-227"/>
      <point x="20" y="-178" type="curve"/>
      <point x="20" y="-407" type="line"/>
      <point x="132" y="-453"/>
      <point x="258" y="-480"/>
      <point x="445" y="-480" type="curve" smooth="yes"/>
      <point x="850" y="-480"/>
      <point x="1051" y="-270"/>
      <point x="1051" y="30" type="curve" smooth="yes"/>
      <point x="1051" y="300"/>
      <point x="871" y="458"/>
      <point x="584" y="479" type="curve"/>
      <point x="1007" y="911" type="line"/>
      <point x="1007" y="1086" type="line"/>
    </contour>
  </outline>
</glyph>
<glyph name="ezhcurl" format="2">
  <advance width="1149"/>
  <unicode hex="0293"/>
  <anchor x="605" y="-489" name="bottom"/>
  <anchor x="605" y="1086" name="top"/>
  <outline>
    <contour>
      <point x="443" y="-480" type="curve" smooth="yes"/>
      <point x="614" y="-480"/>
      <point x="754" y="-435"/>
      <point x="835" y="-368" type="curve"/>
      <point x="860" y="-400"/>
      <point x="902" y="-450"/>
      <point x="929" y="-489" type="curve"/>
      <point x="1082" y="-376" type="line"/>
      <point x="1050" y="-330"/>
      <point x="1013" y="-285"/>
      <point x="979" y="-246" type="curve"/>
      <point x="1032" y="-187"/>
      <point x="1103" y="-92"/>
      <point x="1103" y="35" type="curve" smooth="yes"/>
      <point x="1103" y="315"/>
      <point x="916" y="473"/>
      <point x="636" y="497" type="curve"/>
      <point x="1058" y="908" type="line"/>
      <point x="1058" y="1086" type="line"/>
      <point x="114" y="1086" type="line"/>
      <point x="114" y="879" type="line"/>
      <point x="678" y="879" type="line"/>
      <point x="305" y="488" type="line"/>
      <point x="305" y="312" type="line"/>
      <point x="406" y="312" type="line" smooth="yes"/>
      <point x="677" y="312"/>
      <point x="802" y="199"/>
      <point x="802" y="16" type="curve" smooth="yes"/>
      <point x="802" y="-18"/>
      <point x="796" y="-49"/>
      <point x="789" y="-75" type="curve"/>
      <point x="680" y="26"/>
      <point x="546" y="92"/>
      <point x="364" y="92" type="curve" smooth="yes"/>
      <point x="153" y="92"/>
      <point x="18" y="-11"/>
      <point x="18" y="-173" type="curve" smooth="yes"/>
      <point x="18" y="-379"/>
      <point x="211" y="-480"/>
    </contour>
    <contour>
      <point x="448" y="-288" type="curve" smooth="yes"/>
      <point x="332" y="-288"/>
      <point x="246" y="-244"/>
      <point x="246" y="-168" type="curve" smooth="yes"/>
      <point x="246" y="-121"/>
      <point x="286" y="-79"/>
      <point x="377" y="-79" type="curve" smooth="yes"/>
      <point x="482" y="-79"/>
      <point x="574" y="-122"/>
      <point x="669" y="-213" type="curve"/>
      <point x="619" y="-259"/>
      <point x="536" y="-288"/>
    </contour>
  </outline>
</glyph>
<glyph name="glottalstopreversed" format="2">
  <advance width="987"/>
  <unicode hex="0295"/>
  <anchor x="474" y="0" name="bottom"/>
  <anchor x="474" y="1530" name="top"/>
  <outline>
    <contour>
      <point x="515" y="1530" type="curve" smooth="yes"/>
      <point x="217" y="1530"/>
      <point x="42" y="1365"/>
      <point x="42" y="1129" type="curve" smooth="yes"/>
      <point x="42" y="939"/>
      <point x="132" y="754"/>
      <point x="406" y="617" type="curve"/>
      <point x="406" y="0" type="line"/>
      <point x="714" y="0" type="line"/>
      <point x="714" y="737" type="line"/>
      <point x="430" y="826"/>
      <point x="351" y="980"/>
      <point x="351" y="1119" type="curve" smooth="yes"/>
      <point x="351" y="1242"/>
      <point x="417" y="1317"/>
      <point x="542" y="1317" type="curve" smooth="yes"/>
      <point x="651" y="1317"/>
      <point x="771" y="1266"/>
      <point x="833" y="1219" type="curve"/>
      <point x="942" y="1410" type="line"/>
      <point x="817" y="1483"/>
      <point x="678" y="1530"/>
    </contour>
  </outline>
</glyph>
